<?xml version="1.0" standalone="no"?>
<!DOCTYPE svg PUBLIC "-//W3C//DTD SVG 1.1//EN" "http://www.w3.org/Graphics/SVG/1.1/DTD/svg11.dtd" >
<svg xmlns="http://www.w3.org/2000/svg" xmlns:xlink="http://www.w3.org/1999/xlink" version="1.1">
<metadata></metadata>
<defs>
<font id="short_stackregular" horiz-adv-x="0" >
<font-face units-per-em="2048" ascent="1638" descent="-410" />
<missing-glyph horiz-adv-x="746" />
<glyph />
<glyph unicode="&#xd;" />
<glyph />
<glyph />
<glyph />
<glyph />
<glyph />
<glyph />
<glyph />
<glyph />
<glyph unicode="&#x9;" />
<glyph />
<glyph />
<glyph />
<glyph />
<glyph />
<glyph />
<glyph />
<glyph />
<glyph />
<glyph />
<glyph unicode=" "  horiz-adv-x="746" />
<glyph unicode="&#x09;" horiz-adv-x="746" />
<glyph unicode="&#xa0;" horiz-adv-x="746" />
<glyph unicode="!" horiz-adv-x="719" d="M220 127q0 27 11 47t28.5 33.5t39.5 20.5t45 7q36 0 56.5 -15t31.5 -39t14 -54t3 -60q0 -15 -2.5 -32t-11 -32t-25.5 -25t-46 -10q-78 0 -111 42t-33 117zM283 1357q0 28 8.5 52.5t22.5 42.5t33.5 28.5t41.5 10.5q61 0 85 -30t24 -90q0 -35 -2.5 -97t-7.5 -155.5 t-14 -219t-21 -286.5q-1 -13 -2.5 -35t-5 -47.5t-9.5 -52t-15.5 -48t-23.5 -35t-33 -13.5q-20 0 -34.5 7.5t-24 19.5t-14 28t-4.5 33q1 66 5.5 142.5t8.5 154.5t7.5 153.5t3.5 140.5q0 36 -4.5 72t-10 72.5t-10 74.5t-4.5 77z" />
<glyph unicode="&#x22;" horiz-adv-x="947" d="M202 1329q0 9 6 26.5t17.5 34t28.5 29t40 12.5q34 0 55 -29.5t32.5 -73t15.5 -93t4 -88.5q0 -137 -15.5 -206t-60.5 -69q-40 0 -64 22.5t-36.5 59t-16.5 82.5t-4 93q0 58 -0.5 91.5t-0.5 53.5t-0.5 31t-0.5 24zM569.5 1305.5q-1.5 29.5 0.5 58.5q3 18 16.5 37t31 33.5 t36.5 23t32 6.5q31 -4 49 -40t26.5 -89.5t10 -117t-0.5 -121t-5.5 -101t-4.5 -58.5q-3 -15 -12.5 -31.5t-22 -30.5t-26 -22.5t-22.5 -6.5q-40 7 -60.5 32t-29 62.5t-8.5 85t2 98.5q0 30 -2.5 60.5t-5.5 61t-4.5 60z" />
<glyph unicode="#" horiz-adv-x="1746" d="M137 921q0 24 11.5 41.5t28.5 28.5t37 16t38 5h313v23q0 28 2 57t12.5 52.5t32 38.5t59.5 15q24 0 38.5 -9t22.5 -24t10.5 -34.5t2.5 -40.5v-32.5t-1 -31.5q9 1 23 3t44.5 5t84.5 9t144 17q-4 77 -10 163t-6 167q0 27 1 51.5t8.5 44t23.5 31t45 11.5q28 0 45.5 -9 t27.5 -25t13.5 -37.5t3.5 -45.5q0 -13 1 -37.5t2.5 -55.5t3.5 -65.5t4 -67.5t3.5 -61.5l2.5 -47.5q28 1 60 6.5t61 11.5t53 10.5t38 4.5q41 0 63.5 -28.5t22.5 -70.5t-28 -71.5t-79 -29.5q-22 0 -51.5 9t-61.5 9q-15 0 -35.5 1t-32.5 -6q0 -30 1 -64.5l2 -69t2.5 -68.5 t1.5 -63q32 4 70.5 4.5t72.5 -0.5q40 -1 80 -4q22 0 37 -9t24.5 -23t14 -30t4.5 -30q0 -53 -28.5 -77t-79.5 -24q-26 0 -47.5 3.5t-42.5 7.5t-42.5 7t-47.5 1q0 -26 1.5 -51t3.5 -52t3.5 -57.5t1.5 -66.5q0 -17 -6.5 -32t-18 -26t-26 -17.5t-29.5 -6.5q-11 0 -28.5 4.5 t-34 13.5t-28 22.5t-11.5 31.5v240q-27 -3 -67.5 -6.5t-85 -8t-87 -9.5t-74.5 -9q0 -2 1 -15.5t2.5 -31.5t2.5 -35t2 -26q3 -36 8.5 -58.5t11 -43t9.5 -44.5t4 -64q0 -43 -20 -66.5t-68 -23.5q-20 0 -41 6.5t-38 18t-27.5 28t-10.5 37.5q0 78 -6 152t-6 131q-48 -5 -82 -7.5 t-58.5 -3.5t-41.5 -1.5t-32 -0.5q-23 0 -47.5 3.5t-44.5 13.5t-33 28.5t-13 48.5q0 12 7 30t19 34t29 27.5t38 11.5q24 0 38.5 -2t22.5 -4t10.5 -4l2.5 -2q10 0 33 1t50 2.5t53.5 2.5t43.5 1q0 28 -0.5 59.5t-1.5 63.5t-2.5 62.5t-4.5 55.5h-268q-6 0 -31.5 4t-54 13.5 t-51.5 25.5t-23 40zM741 872l5 -262q1 1 7.5 1h15.5t17.5 -0.5t13.5 -0.5q30 1 64.5 3.5t69 6.5t66.5 9t58 10q0 7 -1 28t-2 48.5t-2 59t-1.5 58.5t-0.5 47t1 25q-78 -1 -152.5 -9t-158.5 -24z" />
<glyph unicode="$" horiz-adv-x="1414" d="M202 358q0 14 7 31.5t18 33t25.5 26t28.5 10.5q18 0 32 -8t26.5 -23t25 -37t28.5 -50q19 -15 45.5 -28.5t55.5 -23t59.5 -15.5t56.5 -6q13 0 17.5 9t4.5 26q0 21 1 37t1 41.5t-1 67.5t-5 113q-108 23 -184 50t-125 63t-71.5 84.5t-22.5 114.5q0 50 14.5 99.5t40.5 94.5 t61 82.5t76 63.5q32 20 74.5 35.5t107.5 35.5q0 26 -0.5 44t-0.5 35q0 33 3 62t13.5 51.5t31 35.5t55.5 13q9 0 23 -6t27 -17t22.5 -28t9.5 -39v-144q25 -3 53.5 -9.5t55 -14.5t48 -16.5t32.5 -14.5q34 -19 60 -49t44 -66.5t27.5 -77t9.5 -80.5q0 -6 -3.5 -19.5t-12 -27.5 t-22 -24.5t-33.5 -10.5q-35 0 -52.5 17t-27.5 43t-17.5 56.5t-23.5 57t-45 45.5t-82 21v-130.5t0.5 -120.5t2 -101.5t3.5 -73.5q76 -13 149.5 -39t132 -68.5t94.5 -102t36 -140.5q0 -58 -20.5 -99.5t-54 -69.5t-76 -44.5t-86.5 -25t-85.5 -12t-73.5 -5.5v-178 q0 -16 -12 -28.5t-27.5 -20.5t-31.5 -12.5t-24 -4.5q-3 0 -19 2.5t-34 10t-32.5 20t-14.5 33.5v187q-14 4 -50.5 9.5t-83.5 16t-97 28t-92 45t-69 66.5t-27 94zM398 853q0 -23 23 -43.5t57.5 -36.5t74 -26.5t71.5 -14.5q0 8 1 21t1 29q0 23 0.5 53.5t-1 70.5t-5 90.5 t-10.5 113.5q-41 -5 -79 -27.5t-67.5 -57t-47.5 -79t-18 -93.5zM816 258q22 0 58 4t71 14t60.5 27t25.5 43q0 45 -19.5 78.5t-50.5 56.5t-69.5 38t-75.5 23v-284z" />
<glyph unicode="%" horiz-adv-x="1833" d="M180 1143q0 20 6.5 52t19.5 68t31.5 72t42.5 65t52.5 47t62.5 18q22 0 38.5 -2t27.5 -9.5t17 -23t6 -42.5q44 -6 67.5 -13.5t38.5 -10.5q25 -5 47 -12t38 -23.5t25 -46t9 -78.5q0 -53 -18.5 -111t-53 -106t-83.5 -79t-109 -31q-133 0 -199 71t-66 195zM224 -49 q0 12 14 37t37.5 58t53.5 71t61 77t60.5 75.5t53.5 66.5q36 45 77 97t81.5 107t79.5 110t72 105q56 84 122.5 175t138.5 182.5t147 181t148 170.5q10 11 23 23t28.5 21.5t32 16t32.5 6.5q68 0 68 -69q0 -11 -2.5 -33t-24.5 -45q-115 -120 -230 -246.5t-211 -268.5 q-80 -120 -146.5 -212t-126.5 -176q-40 -58 -81 -115.5t-85.5 -122t-94 -138.5t-107.5 -165l-18 -36t-23.5 -33t-35.5 -24.5t-54 -9.5q-29 0 -46.5 12.5t-27.5 30.5t-13 37.5t-3 33.5zM344 1147q0 -65 32 -95t86 -30q17 0 33 19.5t28 47.5t19.5 57.5t7.5 49.5q0 14 -15 27 t-36.5 22.5t-44 15t-37.5 5.5q-11 0 -24 -12.5t-24 -30.5t-18 -38.5t-7 -37.5zM1048 300q0 25 8.5 58t25 67t41 66.5t55 58t68 41t80.5 15.5q20 0 52 -3t68 -11.5t73 -24t67 -41.5t48.5 -63.5t18.5 -89.5q0 -60 -21 -126t-60 -120.5t-95.5 -90.5t-126.5 -36q-75 0 -132 21 t-94.5 60t-56.5 94.5t-19 124.5zM1225 299q0 -72 37.5 -108t109.5 -36q22 0 43.5 22.5t38 54t26.5 66.5t10 61q0 22 -19 41t-45.5 32t-55 20.5t-46.5 7.5q-17 0 -34.5 -16t-32 -40.5t-23.5 -52.5t-9 -52z" />
<glyph unicode="&#x26;" horiz-adv-x="1338" d="M210 274q0 55 10.5 106.5t27 101.5t37.5 100t43 101q3 9 10 20.5t13.5 24t11.5 25.5t5 24t-3.5 25t-8 30t-8 32.5t-3.5 31.5q0 39 11.5 79.5t34.5 73.5t57.5 54t79.5 21q31 0 52.5 -15.5t34 -38t18 -49t5.5 -47.5q0 -38 -15 -75t-26 -68l-26 -64q1 -25 15 -68.5t35 -94 t46.5 -101.5t49 -92t43 -66t29.5 -22l128 117q9 8 17 28.5t17.5 47t20.5 55t26 52t34 39t44 15.5q29 0 47.5 -11t29.5 -28.5t15 -38.5t4 -42q0 -10 -3.5 -22.5t-8.5 -24t-10 -21.5t-8 -14q-30 -47 -57.5 -83t-55 -66.5t-56.5 -59t-62 -61.5l30 -33q11 -13 22.5 -25.5 t21.5 -26.5t16 -30.5t6 -37.5q0 -26 -5.5 -42t-15.5 -25t-24 -12t-30 -3q-11 0 -32 5.5t-38 22.5l-110 105q-36 -20 -73 -39.5t-75 -34.5t-77 -24t-81 -9q-78 0 -124.5 24.5t-71.5 64t-32.5 89t-7.5 100.5zM384 287q0 -26 6.5 -48t18 -38t27 -24.5t33.5 -8.5q12 0 39 6.5 t57 16.5t55.5 22.5t34.5 24.5q-25 31 -50.5 71t-51 83.5t-50 88t-46.5 84.5q-9 -17 -22 -46.5t-24 -66.5t-19 -79.5t-8 -85.5z" />
<glyph unicode="'" horiz-adv-x="550" d="M162 942v3q0 35 1 54t2 29.5t2 16t1 12.5q0 16 -2.5 43t-2.5 55q0 46 3.5 96t14 91t29 67.5t47.5 26.5q7 0 24 -6.5t35 -18.5t31.5 -29t13.5 -37v-288q0 -5 1.5 -25t4 -42.5t4 -41.5t1.5 -23q0 -24 -8.5 -44t-23.5 -35t-36.5 -23.5t-46.5 -8.5q-26 0 -44.5 13.5t-29.5 33 t-16 42t-5 39.5z" />
<glyph unicode="(" horiz-adv-x="804" d="M205 560q0 117 16.5 238t51 234t87 212t125.5 173q19 18 37 32q16 12 33.5 22t32.5 10q45 0 59.5 -25t14.5 -65q0 -30 -8.5 -56t-23 -49t-33 -44t-37.5 -41q-31 -32 -55.5 -80t-43 -105.5t-32 -120.5t-21.5 -123.5t-12 -115.5t-4 -96q0 -72 19.5 -148t52 -145.5t75 -126 t89.5 -89.5q19 -14 34.5 -26.5t26.5 -27t17 -32t6 -41.5q0 -25 -11.5 -45t-29.5 -34.5t-40 -22.5t-44 -8q-28 0 -47 14q-27 21 -40.5 38t-25 35.5t-26.5 41.5t-45 56q-44 48 -80.5 114t-62.5 140.5t-40.5 153t-14.5 153.5z" />
<glyph unicode=")" horiz-adv-x="774" d="M88 -83q0 32 17 69t56 65q46 33 86 90t70 126t47 145t17 148q0 41 -3.5 96t-11 115.5t-19.5 123.5t-30 120.5t-42 105.5t-55 80q-20 20 -38 43.5t-32.5 47t-23 45t-8.5 38.5q0 52 11.5 79t56.5 27q14 0 34.5 -10t38.5 -22q21 -14 43 -32q73 -74 123.5 -173t82.5 -212 t46.5 -234t14.5 -238q0 -75 -14.5 -153.5t-40.5 -153t-62.5 -140.5t-80.5 -114q-25 -28 -48 -58t-45.5 -54.5t-46 -40t-50.5 -15.5q-44 0 -68.5 24t-24.5 62z" />
<glyph unicode="*" horiz-adv-x="1217" d="M104 1129q0 26 10.5 43.5t27 28.5t35.5 16t36 5q24 0 43.5 -4t38 -11.5t37.5 -19.5t42 -28q25 -18 50 -31.5t45.5 -23t35 -15t18.5 -6.5q9 32 15.5 69t13.5 73.5t16.5 71t24.5 60.5t37.5 41.5t55.5 15.5q14 0 32 -4.5t33.5 -12.5t26.5 -20t11 -28q0 -10 -7 -28 t-18.5 -46.5t-26.5 -69t-31 -94.5l221 126q25 14 50 14q9 0 23 -7.5t27.5 -22.5t23.5 -36t10 -48q0 -16 -6.5 -27.5t-16.5 -19.5t-22.5 -13.5t-24.5 -9.5l-225 -81l117 -28q15 0 37.5 4.5t42.5 4.5q21 0 36 -11.5t25 -28.5t15 -36t5 -34q0 -20 -5.5 -40.5t-17 -37t-29 -26.5 t-42.5 -10q-20 0 -40.5 4.5t-46 14.5t-58 26t-76.5 39q-9 4 -23 9t-28 9.5t-25.5 7.5t-15.5 4q-33 -116 -50.5 -190t-32 -117.5t-31 -60t-46.5 -16.5q-25 0 -49.5 8t-43.5 23.5t-30.5 38t-11.5 50.5q0 7 12.5 33.5t30.5 62.5t38.5 74.5t36.5 69.5l-206 -117q-19 -10 -39 -10 q-26 0 -44.5 10.5t-30.5 26.5t-17.5 34.5t-5.5 34.5q0 24 10.5 45.5t34.5 29.5l-3 -1q9 4 35.5 11.5t61.5 18t73.5 24t71.5 28.5l-246 80q-29 9 -40 32t-11 49z" />
<glyph unicode="+" horiz-adv-x="1304" d="M175 595q0 36 14 59.5t36 36.5t48.5 18t52.5 5q15 0 40.5 -3t51.5 -6t47 -6t28 -3h52q13 0 27 1v199q0 32 4.5 62t17.5 53.5t37.5 38t65.5 14.5q25 0 38.5 -6t20 -17t7.5 -26.5t1 -33.5q-3 -35 -5 -68q-2 -29 -3.5 -61t-1.5 -55v-11.5t1 -23t2.5 -28t3.5 -25.5q20 1 44 2 t48.5 2t47.5 2t43 1q18 8 39.5 19.5t54.5 11.5q32 0 50 -12t27 -29t11.5 -36t2.5 -34q0 -37 -13.5 -57.5t-35 -31t-47.5 -13t-51 -2.5q-14 0 -35 0.5t-44.5 1t-46 1t-38.5 0.5q-23 0 -40.5 -1.5t-23.5 -6.5q0 -44 1.5 -79t3.5 -65.5t3.5 -58.5t1.5 -57q0 -47 -8.5 -73.5 t-22.5 -39t-34 -15.5t-42 -3q-21 0 -40.5 4.5t-33.5 16.5t-22.5 32t-8.5 51q0 38 3 63.5t7 53t7 64.5t3 99h-320q-16 0 -30 6.5t-24.5 17t-16.5 24t-6 27.5z" />
<glyph unicode="," horiz-adv-x="647" d="M50 -222q0 17 17 51.5t44.5 77.5t62.5 91t71 92t69 80.5t58 57.5q11 8 29 17.5t53 9.5q21 0 33 -8t19 -19.5t9 -23t2 -18.5q0 -25 -8.5 -46.5t-22 -41t-30 -37t-32.5 -35.5q-8 -10 -13.5 -16.5t-11 -12.5t-12 -13t-15.5 -19q-14 -18 -29.5 -45.5t-32.5 -58.5t-35.5 -61.5 t-39.5 -55t-44 -40t-49 -15.5q-18 0 -34.5 6.5t-29 18t-20.5 28t-8 36.5z" />
<glyph unicode="-" horiz-adv-x="1081" d="M179 606q0 27 7 44.5t23.5 28t44.5 14.5t70 4q49 0 100.5 2t102.5 4q27 1 59.5 2.5t66.5 2l68 1t64 0.5q41 0 65.5 -25t24.5 -68q0 -24 -13 -44.5t-31 -35.5t-37 -23.5t-31 -8.5q-30 0 -63 5t-66 10.5t-66.5 10.5t-65.5 5q-54 0 -108 -5.5t-113 -5.5q-19 0 -37.5 2.5 t-32.5 11t-23 24.5t-9 44z" />
<glyph unicode="." horiz-adv-x="580" d="M150 90q0 22 13 44.5t33.5 40.5t45 29t47.5 11q24 0 49 -5t45.5 -17.5t33.5 -35t13 -56.5q0 -120 -125 -120q-21 0 -47.5 4.5t-50.5 17t-40.5 33.5t-16.5 54z" />
<glyph unicode="/" horiz-adv-x="919" d="M152 -134q0 1 0.5 2.5t2 8t5 20t9.5 37.5q30 114 66 247t76 276t83 290.5t87.5 290.5t89 276.5t88.5 249.5q6 16 16 34.5t24.5 35t32.5 27.5t39 11q38 0 61.5 -23t23.5 -68q0 -8 -1 -15t-4 -15q-33 -76 -70 -171.5t-72.5 -195.5t-66.5 -198t-53 -180q-25 -92 -49.5 -189 t-47.5 -191.5t-44 -180.5t-37.5 -154.5t-28 -114.5t-15.5 -61q-6 -19 -11.5 -42t-14.5 -42.5t-23.5 -32.5t-38.5 -13q-17 0 -39 4t-41.5 14t-33 25t-13.5 38z" />
<glyph unicode="0" horiz-adv-x="1606" d="M173 651q0 189 52 323.5t140 220t205 125t246 39.5q153 0 268.5 -48.5t193 -141t116.5 -226.5t39 -305q0 -147 -49.5 -267.5t-134 -206t-198 -132.5t-242.5 -47q-90 0 -172.5 24t-153 67.5t-128 105t-98 135.5t-62.5 158.5t-22 175.5zM361 683q0 -66 15.5 -130.5 t43.5 -123.5t67 -109t87.5 -87t104.5 -58t117 -21q97 0 179.5 32.5t142.5 96.5t93.5 159t33.5 220q0 120 -27.5 216t-79.5 163t-127.5 102.5t-170.5 35.5q-99 0 -186 -31t-152.5 -93.5t-103 -155.5t-37.5 -216z" />
<glyph unicode="1" horiz-adv-x="674" d="M222 1260q0 18 10.5 37t27 34.5t35 25t35.5 9.5q10 0 30.5 -5.5t40.5 -18t35.5 -32.5t15.5 -50q0 -112 -6 -233.5t-13 -240.5t-13 -229.5t-6 -200.5q0 -30 4 -63.5t8.5 -69t8.5 -71.5t4 -72q0 -35 -22.5 -60t-61.5 -25q-36 0 -59 15t-36.5 42.5t-19.5 64.5t-8 80.5 t-1 92.5t1 99q0 80 6 172t13.5 188t13.5 192.5t6 184.5q0 15 -7.5 30.5t-17 32t-17 34t-7.5 37.5z" />
<glyph unicode="2" horiz-adv-x="1297" d="M187 1106q0 32 10 58.5t26.5 49.5t38.5 43.5t46 40.5q29 24 60 38t64.5 21.5t68.5 9.5t71 2q65 0 131.5 -21t120.5 -60t88.5 -95t34.5 -126q0 -86 -22.5 -171.5t-59.5 -169t-83.5 -164.5t-94.5 -159q-21 -34 -39.5 -62.5t-35 -55.5t-31.5 -55t-28 -62q10 -2 25 -3t32 -1 q18 0 56 2t83.5 5.5t91 9.5t78.5 14q15 4 38 14.5t49 10.5q18 0 37.5 -14t35 -33t26 -40t10.5 -34q0 -22 -13.5 -38.5t-31.5 -28t-37 -18t-31 -9.5q-8 -2 -17 -2.5t-17 -0.5q-28 0 -55.5 4.5t-55.5 4.5q-57 0 -118.5 -4t-125.5 -8.5t-128 -8.5t-127 -4q-12 0 -24.5 7.5 t-22.5 18t-16.5 22t-6.5 18.5q0 47 16 82t39 65.5t48 59t44 61.5q26 47 60.5 106t70.5 124.5t71 133t62 130.5t44 118t17 96q0 45 -18 77t-46.5 51.5t-63.5 28.5t-70 9q-65 0 -116 -12.5t-77 -41.5q-13 -14 -23 -38.5t-21.5 -48t-26.5 -41t-37 -17.5q-23 0 -37.5 14.5 t-22.5 33t-11 37t-3 26.5z" />
<glyph unicode="3" horiz-adv-x="1317" d="M143 88q0 11 4 31.5t12 40t20.5 34t30.5 14.5q29 0 48 -3t34 -7t28.5 -9t30.5 -9t41 -7t60 -3q38 0 87.5 2.5t102.5 11t104 26t91 48.5t64.5 76.5t24.5 111.5q0 39 -20 64.5t-54 40.5t-78 21.5t-92 6.5q-23 0 -44.5 -7.5t-44 -16t-47.5 -16t-53 -7.5q-53 0 -81.5 19.5 t-28.5 58.5q0 44 24.5 74t63.5 51t86 34t92 24q46 30 97 68.5t94 85t71 99t28 109.5q0 9 -15 15t-35.5 9t-42 4.5t-34.5 1.5q-32 0 -68.5 -5.5t-73.5 -14.5t-70.5 -20.5t-59.5 -24.5q-20 -9 -32.5 -17t-22.5 -14t-19 -9.5t-22 -3.5t-28.5 5t-29 13.5t-22.5 20t-9 25.5 q0 40 27.5 72t71.5 56t99 41.5t110 28.5t104 16t82 5q136 0 209 -55t73 -174q0 -28 -16 -70.5t-49 -94t-82.5 -109.5t-116.5 -117q47 -15 92.5 -39.5t81 -57.5t57.5 -74t22 -87q0 -112 -27 -192t-79 -134.5t-128.5 -86.5t-176 -48.5t-220.5 -21.5t-262 -5q-27 0 -43.5 9.5 t-25.5 23.5t-12 31t-3 31z" />
<glyph unicode="4" horiz-adv-x="1234" d="M132 849l7 280q1 32 25 55t72 23q25 0 41 -14t25.5 -38t13.5 -56.5t4 -68.5q0 -42 -3.5 -90t-3.5 -85q0 -70 20.5 -113.5t59 -68t94.5 -34t127 -10.5l198 -4q3 29 5.5 76.5t4 105t2.5 121t1 124.5q0 85 -4.5 154t-4.5 104q0 53 28.5 75.5t66.5 22.5q19 0 35 -9.5 t27.5 -24t18 -31t6.5 -29.5q0 -94 -1 -182.5t-1.5 -176t-1.5 -175.5t-1 -180q11 -12 20 -32.5t9 -41.5q0 -11 -9 -27.5t-20 -28.5q-4 -35 -6 -67.5t-2 -46.5q0 -60 10 -126t10 -138q0 -30 -10.5 -54t-28.5 -41.5t-42 -27t-52 -9.5q-12 0 -25 7t-23.5 19t-17.5 27t-7 30 l2 409l-315 11q-85 3 -151 32t-111 80t-68.5 120.5t-23.5 153.5z" />
<glyph unicode="5" horiz-adv-x="1370" d="M192 92l9 -12q-2 3 -2 18t4 35.5t13.5 40t25 33t38.5 13.5q19 0 41.5 -11.5t51.5 -26t65 -26t82 -11.5q90 0 164.5 11.5t128 41t83.5 79t30 126.5q0 15 -6.5 37.5t-20 47t-35.5 49t-53 44t-72 32t-92 12.5q-42 0 -80 -12t-67 -26q-34 -17 -64 -38q-25 0 -53.5 0.5 t-52.5 7.5t-40 23t-16 47v9t1 9q7 33 8.5 93.5t1.5 133t2 150t10.5 144.5t25.5 115.5t49 63.5q57 6 112.5 8t109.5 2q51 0 104 -0.5t107 -0.5q63 0 124.5 1.5t121.5 7.5l7.5 1t17 2.5t20 3t17.5 1.5q31 0 51.5 -13t32.5 -33t16.5 -44.5t4.5 -46.5q0 -20 -9 -35t-23 -24.5 t-31 -14.5t-33 -5q-26 0 -46.5 5t-37.5 11.5t-32 12t-30 5.5h-39.5h-92.5t-118.5 -1t-118 -2t-90.5 -3.5t-36 -5.5q0 -39 -1 -63.5t-2.5 -42t-3 -30t-3 -27.5t-2.5 -36t-1 -53q0 -18 0.5 -38t1.5 -37.5t2.5 -28.5t4.5 -11q19 0 38 3.5t40 7t44.5 7t51.5 3.5 q95 0 180.5 -30.5t150.5 -86t103 -133t38 -172.5q0 -111 -43 -195.5t-118 -140.5t-177.5 -84.5t-221.5 -28.5q-41 0 -95.5 2t-107.5 14.5t-98.5 39t-69.5 76.5z" />
<glyph unicode="6" horiz-adv-x="1449" d="M163 616q0 49 17 123t45 157t64 166.5t74 150t74.5 108.5t65.5 42q26 0 42 -8t25 -21.5t12 -32t3 -39.5q0 -17 -3 -26t-11 -23q-38 -66 -77 -143.5t-70.5 -158t-51.5 -159t-20 -146.5q0 -58 4 -111.5t15.5 -100.5t32.5 -85.5t55 -66.5t83.5 -44.5t117.5 -17.5 q4 111 28.5 213.5t78.5 181t143 125t222 46.5q54 0 89.5 -16t57 -45t30 -69.5t8.5 -89.5q0 -111 -49 -208t-131 -168.5t-188 -112.5t-221 -41q-150 0 -257.5 30.5t-175.5 102.5t-100 191t-32 296zM842 211q0 -12 3 -20q61 2 115 30t95 73.5t65 103.5t24 120q0 22 -17 30.5 t-35 8.5q-61 0 -108 -31.5t-78.5 -79.5t-47.5 -105.5t-16 -109.5v-20z" />
<glyph unicode="7" horiz-adv-x="1141" d="M105 1259q0 15 6.5 29t18.5 25t28.5 18t36.5 7q130 0 259 -5t263 -5q10 0 37 1.5t56 3t54.5 3t34.5 1.5q13 9 25.5 11.5t22.5 2.5q23 0 39 -10.5t25.5 -27.5t13.5 -38t4 -41q0 -17 -4.5 -30.5t-12.5 -31.5q-20 -41 -50.5 -108t-66 -146t-73.5 -162t-72 -157t-60.5 -132 t-40.5 -85q-13 -26 -25.5 -56t-23 -61t-18.5 -61t-12 -57q-5 -27 -11.5 -53.5t-21 -47t-40 -33.5t-67.5 -13q-20 0 -35 8t-25 20.5t-14.5 29t-4.5 34.5q0 5 1.5 15t7.5 45q1 7 13.5 37t33.5 77t48.5 108t58.5 128.5t64 139.5t65.5 140.5t62 132t53 114t40 85t22.5 47.5 q-31 4 -58 5.5t-54 1.5t-55 -0.5t-59 -0.5q-29 0 -67.5 -2t-77.5 -4t-74.5 -4t-60.5 -2q-28 0 -64 3t-68.5 13.5t-55 31.5t-22.5 56z" />
<glyph unicode="8" horiz-adv-x="1195" d="M195 238q0 61 10 115.5t29.5 104t47.5 96t65 91.5l-2 -2q9 12 21.5 23t23.5 21.5t19 19.5t8 18q-26 31 -51.5 64t-45.5 68.5t-32 73.5t-12 80q0 70 26.5 124.5t71 95t101.5 68.5t119 45.5t124 25t115 7.5q55 0 100.5 -27.5t78 -70t50.5 -93.5t18 -98q0 -54 -29 -88.5 t-77 -54.5l-124 -126q-12 -12 -32.5 -30.5t-43 -38t-43 -36.5t-32.5 -26q30 -37 60.5 -91.5t55 -114t40 -117.5t15.5 -103q0 -139 -86 -215.5t-246 -76.5q-66 0 -128 10t-110 39.5t-76.5 82t-28.5 136.5zM375 294q0 -41 7.5 -67.5t24 -41.5t43.5 -21t65 -6q28 0 57.5 5 t52.5 15.5t38 27.5t15 41q0 13 -6 42.5t-16 66.5t-23.5 76t-28 71t-29.5 53t-28 21q-21 0 -41.5 -16t-39.5 -42t-35.5 -58t-29 -63.5t-19.5 -59t-7 -44.5zM470 1000q0 -11 14 -38t32.5 -56t36.5 -51t27 -22t22.5 8.5t28 20t27.5 23.5t20 19l140 143q12 12 27.5 24t29.5 23.5 t23.5 20.5t9.5 15q0 24 -14.5 37t-35.5 19t-45 7t-43 1q-41 0 -93 -13.5t-98 -38.5t-77.5 -61t-31.5 -81z" />
<glyph unicode="9" horiz-adv-x="1354" d="M124 1050q0 55 27 101.5t70.5 84.5t99 67t112.5 48.5t110 29.5t93 10q80 0 152.5 -24t127 -67.5t87 -104.5t32.5 -136q0 -2 2 -18t2 -32q0 -23 14 -34.5t31 -24t31 -32t14 -58.5q0 -125 -6 -230t-14.5 -205t-17 -202.5t-13.5 -220.5q0 -69 -69 -69q-9 0 -29.5 8t-41.5 24 t-37 39t-16 52q0 57 8 110.5t17.5 114t17.5 133.5t8 171q0 27 -1 56t-3 58q-53 -26 -118.5 -44.5t-124.5 -18.5q-62 0 -127.5 9.5t-128.5 30t-119 53t-98.5 78.5t-67 106t-24.5 137zM315 1015q0 -32 18.5 -60t49 -50.5t69.5 -40t80.5 -30t81.5 -18.5t73 -6q13 0 34.5 1.5 t47 5t51.5 9.5t46.5 15.5t34 22.5t13.5 30q0 9 -2 29t-5 43.5t-6 45t-5 33.5q-8 39 -36.5 71.5t-66 56t-78.5 36.5t-73 13q-45 0 -101.5 -12t-106.5 -37.5t-84.5 -64.5t-34.5 -93z" />
<glyph unicode=":" horiz-adv-x="580" d="M160 767q0 24 17.5 45.5t43 38t54 26t50.5 9.5q7 0 21.5 -9.5t28 -28.5t24 -46t10.5 -63q0 -34 -8 -58.5t-21.5 -40t-31 -23t-36.5 -7.5q-36 0 -64.5 7.5t-48 26t-29.5 48.5t-10 75zM162 180q0 29 8 54.5t23.5 44t38 29.5t52.5 11q25 0 48 -13t40.5 -33.5t28 -45 t10.5 -47.5t-10.5 -45.5t-28 -40.5t-40.5 -29t-48 -11q-60 0 -91 31t-31 95z" />
<glyph unicode=";" horiz-adv-x="559" d="M63 -108q0 32 7.5 55.5t18 44t22.5 39t21 40.5q14 33 22.5 72t22.5 72.5t38.5 56t71.5 22.5q28 0 52 -10t41 -26t26.5 -37.5t9.5 -43.5q0 -18 -0.5 -30t-2 -22.5t-5 -20t-10.5 -22.5q-9 -16 -31.5 -50.5t-48.5 -72t-48.5 -71.5t-31.5 -49q-14 -26 -31.5 -42t-52.5 -16 q-25 0 -42.5 12t-28 29t-15.5 36t-5 34zM161 718q0 43 7.5 70t24 42t43 20t63.5 5q33 0 54.5 -11t34 -29.5t17.5 -43.5t5 -53q0 -65 -30 -96.5t-81 -31.5q-30 0 -55 10.5t-43.5 28.5t-29 41t-10.5 48z" />
<glyph unicode="&#x3c;" horiz-adv-x="1225" d="M175 486q0 33 18 60.5t38 47.5q95 67 189 129q40 27 84 55t88.5 55.5t87.5 52t81 44.5q38 17 62 35t39.5 33t26 24.5t22.5 9.5q113 0 113 -110q0 -22 -7 -38t-15 -27q-10 -13 -21 -23q-31 -20 -76 -42.5t-97 -46.5t-107 -50t-105 -53.5t-91 -56t-65 -58.5q9 -7 24 -14 t32.5 -14t36.5 -14t37 -13q11 -4 39 -16.5t79.5 -37.5t130.5 -65t191 -98q13 -6 20.5 -21t12 -31t6 -30.5t1.5 -20.5q0 -11 -8 -21.5t-22 -18.5t-32 -12.5t-37 -4.5q-14 0 -27 6t-30.5 17t-41 26.5t-57.5 35.5q-54 27 -122.5 58.5t-140.5 61t-141.5 52.5t-124.5 33 q-24 4 -41 10t-28 17.5t-16.5 29t-5.5 44.5z" />
<glyph unicode="=" horiz-adv-x="1190" d="M211 866q0 14 5.5 30t17 29.5t28 22.5t37.5 9q56 0 108 1.5t105 6.5q52 3 102.5 6t99.5 3q106 0 158 -18.5t52 -65.5q0 -40 -10 -63t-29 -34t-46.5 -14t-61.5 -3t-72.5 7.5t-72.5 7.5q-20 0 -45.5 -3.5t-64.5 -7.5t-96 -7.5t-140 -3.5q-25 0 -40 10t-22.5 24.5t-10 31.5 t-2.5 31zM213 499q0 15 7.5 32t19 31.5t26 24.5t28.5 10q9 0 22.5 -2t38 -4.5t64.5 -4.5t103 -2q37 0 73.5 3.5t73.5 7.5t75 7.5t78 3.5q27 0 55 -1.5t50.5 -11.5t37 -31t14.5 -60q0 -26 -10 -42.5t-25 -26t-32.5 -13.5t-32.5 -4q-33 0 -65.5 6t-69.5 6q-42 1 -84 -3.5 t-84 -10.5t-84.5 -11t-85.5 -5q-7 0 -24 1t-38.5 4.5t-44.5 10.5t-42 18t-31.5 27.5t-12.5 39.5z" />
<glyph unicode="&#x3e;" horiz-adv-x="1225" d="M175 975q0 11 8 21.5t22 18.5t31.5 12.5t37.5 4.5q13 0 26.5 -6t31 -17t41 -27t57.5 -35q54 -27 122.5 -59t140.5 -61t141.5 -52t124.5 -33q24 -4 41 -10t28 -17.5t16.5 -29t5.5 -44.5q0 -33 -18 -60.5t-38 -47.5q-95 -67 -189 -129q-40 -27 -84 -55t-88.5 -55.5 t-87.5 -52.5t-81 -44q-38 -17 -62 -35t-39.5 -33t-26 -24.5t-22.5 -9.5q-113 0 -113 110q0 21 6.5 37.5t14.5 27.5q10 13 22 23q31 20 76 42.5t97 46.5t107 50t105 53.5t91 56t65 58.5q-9 7 -24 14t-32.5 14t-36.5 14t-37 13q-11 4 -39 16.5t-80 37.5t-130.5 65t-190.5 98 q-13 6 -20.5 21t-12 31t-6 30.5t-1.5 20.5z" />
<glyph unicode="?" horiz-adv-x="1158" d="M223 1315q0 32 22 60t57.5 51.5t79.5 42.5t87 32t80.5 20t61.5 7q98 0 181.5 -26t144 -77t95 -127t34.5 -177q0 -155 -72.5 -263t-231.5 -181q-39 -18 -81.5 -38t-76 -46.5t-52.5 -61.5t-11 -83q5 -26 -2 -46.5t-37 -26.5q-29 -6 -61 -1t-59.5 18.5t-46.5 34t-23 44.5 q-7 47 17.5 90.5t69.5 83t106 75t127 66.5q59 27 106 55.5t80 64.5t51 84t18 114q0 69 -24 118.5t-63.5 81t-90 46t-102.5 14.5q-39 0 -69 -9.5t-55.5 -24.5t-48 -31.5t-44.5 -31.5t-46 -24.5t-53 -9.5q-12 0 -24 3.5t-22 13t-16 25.5t-6 40zM255 97q0 23 13 45t33.5 39.5 t45 28t48.5 10.5q23 0 48 -4.5t45.5 -17t33.5 -34t13 -54.5q0 -60 -31.5 -92t-93.5 -32q-21 0 -47.5 5t-50.5 17.5t-40.5 34t-16.5 54.5z" />
<glyph unicode="@" horiz-adv-x="1946" d="M162 457q0 123 34 229.5t94.5 194t144.5 155t184 114t212.5 70.5t230.5 24q91 0 176 -23t159.5 -65.5t136 -103t105.5 -135t68.5 -162t24.5 -184.5q0 -90 -12 -176t-47.5 -152.5t-100 -107t-169.5 -40.5q-81 0 -139 28t-103 96q-13 -10 -37 -25t-53.5 -29.5t-62.5 -25 t-64 -10.5q-77 0 -130.5 23.5t-87 65.5t-48.5 100t-15 127q0 77 26 150t73 130t112 91.5t143 34.5q57 0 102.5 -17t80.5 -46.5t60 -68.5t41.5 -83.5t24 -91.5t7.5 -92l-3 -152q7 -7 17.5 -15t23.5 -15.5t29 -12.5t34 -5q42 0 68 28t40 73.5t19 104t5 119.5q0 106 -40 199 t-110 162.5t-163.5 109.5t-201.5 40q-89 0 -176.5 -19t-166.5 -56t-146.5 -91.5t-116.5 -126.5t-77 -160t-28 -192q0 -151 45.5 -257.5t136.5 -173.5t226.5 -97.5t315.5 -30.5q55 0 117 7.5t125.5 19t126.5 25.5t122 26q10 2 25 9t32.5 14.5t36 13.5t36.5 6q9 0 21 -5.5 t22.5 -15t18 -23.5t7.5 -32q0 -20 -23.5 -38.5t-63 -36t-92 -32.5t-111 -28t-119 -23.5t-117 -17.5t-104.5 -11t-81 -4q-97 0 -200 8.5t-201 35t-185 75t-152.5 128.5t-104 195.5t-38.5 276.5zM843 420q0 -17 4.5 -39t13.5 -42t24 -33.5t36 -13.5q64 0 107 16.5t69.5 49 t38 81.5t11.5 114q0 24 -11 48.5t-28 44t-38 32t-41 12.5q-48 0 -83 -25.5t-58 -64.5t-34 -87t-11 -93z" />
<glyph unicode="A" horiz-adv-x="1582" d="M119 86q0 36 12 67t26 58q2 4 6.5 12.5t16.5 36t33.5 82.5t57.5 153q-1 12 -1.5 23t-0.5 21q0 41 13.5 69.5t51.5 55.5l254 530q15 31 33 66.5t40.5 66t50 51t60.5 20.5q25 0 56 -29.5t63.5 -76t65 -103t60 -109.5t48.5 -96.5t30 -63.5q50 -112 75 -170.5t39 -74.5 q46 -29 64 -67.5t18 -100.5q28 -71 50.5 -142.5t49.5 -131.5q20 -44 41 -72.5t37.5 -54t27 -53t10.5 -70.5q0 -29 -14 -44.5t-33.5 -23t-39.5 -8.5t-32 -1q-31 0 -62 35t-58 83.5t-47.5 99.5t-29.5 84q-11 37 -22.5 78t-22.5 76.5t-22.5 60.5t-22.5 31q-16 14 -36 18.5 t-53 4.5q-57 0 -115 0.5t-119 1t-126.5 1t-138.5 0.5q-20 0 -32.5 -3.5t-23 -16t-21 -36.5t-24.5 -66l-80 -215q-9 -32 -17 -59.5t-15 -38.5q-9 -15 -19.5 -23.5t-21.5 -12.5t-23 -4.5t-24 -0.5q-43 0 -68 17.5t-25 64.5zM533 662q95 -1 156.5 -2t100.5 -2t61 -1.5t39 -0.5 q12 0 23 0.5t25.5 1t34 1.5t47.5 3q-14 40 -42.5 101t-62 126.5t-66.5 127.5t-55 105q-20 38 -32 38q-6 0 -23 -29.5t-39.5 -75.5t-47.5 -103.5t-48.5 -112.5t-42.5 -102.5t-28 -74.5z" />
<glyph unicode="B" horiz-adv-x="1373" d="M198 88q0 23 4 41.5t6 38.5q0 8 -5 26.5t-4 40.5l8 327v190v101.5t0.5 113.5t1.5 121.5t3 125.5q1 21 10 41t21.5 36.5t28.5 28t33 16.5q104 26 210 40.5t202 14.5q43 0 94 -13.5t95 -39.5t73.5 -64.5t29.5 -87.5q0 -35 -12 -65t-30.5 -55.5t-41 -46t-43.5 -36.5 q85 -20 155.5 -58t121 -94.5t78 -131.5t27.5 -169q0 -137 -46.5 -228t-124.5 -148.5t-180 -87t-214 -42.5q-42 -5 -72 -8.5t-53.5 -6t-43 -3.5t-40.5 -1q-11 0 -24 2t-25 2t-19.5 -4t-15 -8.5t-19 -8t-32.5 -3.5t-48 6.5t-51.5 19t-41 32t-16.5 45.5zM379 952q30 7 57 22.5 t59 24.5q12 2 30.5 4.5t40 5t44 5t43.5 4.5q18 11 47.5 23.5t57.5 28.5t48 37t20 49q0 27 -48.5 46t-133.5 19q-14 0 -38.5 -1.5t-53.5 -6t-59 -11t-54 -17t-40 -24t-16 -31.5zM382 651q0 -91 8.5 -183.5t8.5 -186.5q0 -18 -0.5 -36.5t-1.5 -37.5q0 -1 17.5 -2.5t40.5 -3 t45.5 -2.5t32.5 -1q63 0 128.5 5t127 19t115.5 38.5t94 63t63.5 94t23.5 130.5q0 73 -35.5 129.5t-91.5 95.5t-124.5 59t-135.5 20q-37 0 -67.5 -13.5t-57.5 -29t-52.5 -29t-51.5 -13.5q-13 0 -27.5 2.5t-23.5 2.5q-7 0 -16 -6t-17 -16q0 -23 -1.5 -49.5t-1.5 -49.5z" />
<glyph unicode="C" horiz-adv-x="1434" d="M149 532q0 55 8 116.5t22 124t31.5 123.5t37.5 115q24 64 68.5 132t108 123.5t145 91.5t179.5 36q86 0 170.5 -25t152 -74t109.5 -120.5t41 -165.5q0 -17 -3.5 -39.5t-13 -43t-26.5 -34.5t-44 -14q-31 0 -47.5 17.5t-24 43.5t-9 57.5t-1.5 59.5q0 34 -29 64.5t-73 53.5 t-96 36.5t-97 13.5q-84 0 -149 -39t-113 -102t-80.5 -141t-52.5 -155.5t-28.5 -147.5t-8.5 -115q0 -89 38 -159t100 -118.5t140 -74t159 -25.5q40 0 94 3t110 10.5t109.5 20.5t91.5 32q16 8 27 19.5t22.5 22t26 18t36.5 7.5q43 0 68.5 -29t25.5 -71q0 -28 -7 -45.5 t-24 -31.5q-38 -32 -104.5 -55t-144.5 -38t-158.5 -22t-147.5 -7q-78 0 -155.5 10t-148.5 33.5t-132.5 64t-106.5 102t-70.5 145.5t-25.5 196z" />
<glyph unicode="D" horiz-adv-x="1566" d="M187 238l6 949q0 57 18 92.5t45.5 55t61 26t66.5 6.5h197q86 0 182.5 -21.5t192 -63.5t182.5 -103.5t154 -142t106.5 -179t39.5 -214.5q0 -122 -38 -218t-102 -168t-148.5 -122.5t-176.5 -82t-186 -45.5t-178 -14q-22 0 -52.5 0.5t-62.5 2t-61.5 4.5t-50.5 7 q-19 -11 -40.5 -20t-32.5 -9q-39 0 -63 26.5t-37 65.5t-17.5 84.5t-4.5 83.5zM370 898q0 -42 1 -97.5t1.5 -118.5t3 -130t5.5 -132t8 -124t11 -106q3 -3 12 -6.5t22 -5.5t28.5 -3.5t31.5 -1.5h161q58 0 125.5 13t134.5 38.5t128.5 63t108.5 85.5t75.5 106.5t28.5 126.5 q0 83 -27.5 159.5t-74.5 142.5t-110 120t-135 92.5t-148.5 59.5t-150.5 21q-20 0 -54 -0.5t-68.5 -2.5t-62.5 -5t-37 -9q-8 -36 -11.5 -70t-5 -68.5t-1.5 -70.5v-77z" />
<glyph unicode="E" horiz-adv-x="1316" d="M198 715q0 17 6 35t10 36q-5 85 -9.5 169t-4.5 172q0 18 -0.5 41.5t1.5 49t7 50t16 44t29.5 31.5t47.5 12q22 0 42.5 -7.5t41 -16t41.5 -16t45 -7.5q60 0 140 1.5t168 4.5q48 1 95.5 2t93.5 2t88 1h78q44 0 73.5 -2t47 -11.5t25 -28.5t7.5 -53q0 -15 -7.5 -30t-20.5 -27 t-29 -20t-32 -8q-193 1 -328.5 2t-226.5 2t-143 1.5t-78 1t-33.5 0.5t-7.5 1v-325q0 -13 9 -13q37 0 75 -0.5t79.5 -1.5t88.5 -1.5t103 -0.5q37 0 73.5 6.5t77.5 6.5t69.5 -23.5t28.5 -76.5q0 -7 -5 -20.5t-14.5 -27t-24.5 -23.5t-35 -10h-431q-29 0 -46 -0.5t-26 -1.5 t-11.5 -2.5t-2.5 -3.5q0 -14 3.5 -28t3.5 -34v-23.5v-44t1 -56t2 -59.5v-160q-4 -6 9 -9.5t35 -5t49 -2.5t51 -4q34 -2 84 -4.5t103 -4t104.5 -3t88.5 -3t54 -2t3 -0.5q-19 0 -16 0t18.5 -0.5t39.5 -0.5t49 -0.5t45.5 -0.5h29.5q27 0 44.5 -11t27.5 -27.5t14 -36.5t4 -38 q0 -27 -11 -46t-29.5 -30t-44 -16t-53.5 -5q-21 0 -51 7.5t-53 18.5q-11 4 -44 9t-84.5 9t-120.5 7t-152 3q-62 0 -128.5 -5.5t-138.5 -5.5q-24 0 -44.5 9t-35.5 24.5t-23.5 37t-8.5 47.5v508q-10 16 -13 34.5t-3 37.5z" />
<glyph unicode="F" horiz-adv-x="1297" d="M187 145q0 7 3 26t6 42t6 46.5t3 40.5v792q0 16 0.5 42t3 56.5t9 61.5t17.5 56t28 41t42 16q26 0 51.5 -4.5t51 -10t51 -10t52.5 -4.5h506q10 0 27 2.5t35 5t35 5t28 2.5q19 0 42 -11t42.5 -29t32.5 -40.5t13 -46.5q0 -45 -22 -68.5t-71 -23.5q-8 0 -33.5 4.5t-54 10 t-54 11t-33.5 7.5q-5 0 -33 -0.5t-71 -1.5t-96 -2t-108 -2q-128 -3 -290 -6q-8 0 -13.5 -7t-5.5 -10q-3 -29 -5 -54.5t-3 -59t-1.5 -82.5t-0.5 -126q0 -11 6.5 -17.5t17 -11t23.5 -6t26 -1.5q94 0 191.5 12.5t194.5 24.5q16 2 31.5 6t32 8t34.5 7t38 3q30 0 46.5 -12.5 t24 -28.5t9 -32t1.5 -24q0 -34 -12.5 -54.5t-37 -31.5t-60.5 -14.5t-83 -3.5q-59 0 -117.5 -6.5t-117.5 -14t-118.5 -14t-120.5 -6.5q0 -32 0.5 -50t0.5 -21q0 -89 4.5 -181.5t4.5 -201.5q0 -21 -2.5 -45.5t-11.5 -45t-25.5 -34t-44.5 -13.5q-35 0 -59 11t-38.5 30t-21 44.5 t-6.5 54.5z" />
<glyph unicode="G" horiz-adv-x="1464" d="M166 675q0 53 20 125.5t59 150t95.5 154t129.5 136.5t161.5 97t191.5 37q47 0 94.5 -8t91 -21.5t81.5 -32t66 -39.5q21 -16 42 -33.5t38 -39t28 -49t11 -62.5q0 -29 -9.5 -46t-20.5 -27q-13 -11 -29 -17q-25 0 -43 15t-33.5 34.5t-30.5 39.5t-33 29q-61 49 -125 66 t-135 17q-57 0 -114 -25t-109.5 -67t-97.5 -98.5t-78.5 -119.5t-52.5 -129t-19 -128q0 -126 37 -214.5t102.5 -145t154.5 -82.5t194 -26q95 0 153.5 13t90 39t42 64.5t10.5 90.5q0 12 -0.5 33t-1 44.5l-1 47t-0.5 39.5q-48 -8 -99.5 -9t-96.5 -1q-23 0 -48 6.5t-45.5 19.5 t-33.5 32t-13 44q0 27 10.5 43.5t28 26.5t40.5 13.5t49 3.5q20 0 44.5 -1.5t46.5 -3.5q26 -2 51 -4q21 0 46.5 4t51.5 8.5t51.5 8.5t48.5 4q20 0 38 -9t31.5 -23.5t21.5 -32t8 -33.5q0 -33 -14 -53t-37 -33q-1 -63 -4 -132q-1 -29 -1 -57q0 -37 2 -72q3 -39 5 -63t3.5 -39 t2.5 -22.5t1 -12.5q0 -38 -5 -61t-14 -35.5t-22 -16.5t-29 -4q-27 0 -44 5t-28.5 13.5t-18 18t-11.5 18.5q-29 -16 -66.5 -32t-81.5 -28.5t-92.5 -20t-99.5 -7.5q-161 0 -281 44t-199 129.5t-118 211.5t-39 290z" />
<glyph unicode="H" horiz-adv-x="1461" d="M197 1237q0 18 2.5 39.5t11 39.5t25.5 30.5t46 12.5q15 0 31.5 -11t30.5 -28.5t23.5 -38.5t9.5 -42l4 -450q0 -19 16 -19h283.5t190.5 -0.5t116 -0.5h61t25.5 1.5t8.5 3.5q-2 118 -7.5 233.5t-5.5 233.5q0 26 4 49.5t14 41t26.5 27.5t41.5 10q32 0 51 -15t28.5 -38.5 t12.5 -53.5t3 -60q0 -34 1 -76t3 -94t4.5 -115t5.5 -139q3 -6 7.5 -16t8 -22t6 -24t2.5 -21t-2.5 -22.5t-4.5 -25.5q-4 -14 -7 -29q6 -132 10 -223.5t6 -152.5t3 -95.5t1 -52.5q0 -40 -26 -69.5t-70 -29.5q-47 0 -70 32t-23 116l-6 450h-21t-46 -0.5t-81 -1t-125.5 -1 t-180 -1t-244.5 -0.5q-5 0 -10.5 -10.5t-6.5 -21.5q0 -112 8.5 -236t8.5 -245q0 -14 -11 -27t-26.5 -23t-33.5 -15.5t-32 -5.5t-29.5 5t-29 15.5t-22.5 25t-9 34.5q0 97 -1 181t-2 164t-2.5 162.5t-2.5 178t-2 209.5t-1 257z" />
<glyph unicode="I" horiz-adv-x="908" d="M153 90q0 17 6 34.5t17 32t27.5 23.5t37.5 9q2 0 15.5 -1.5t31 -3.5t35.5 -3.5l30 -2.5v86q0 56 0.5 130t1.5 157t2.5 170.5t3.5 170.5t5.5 156t7.5 128h-77q-23 0 -46 1.5t-42.5 10t-31.5 25t-12 46.5q0 28 7.5 47.5t25.5 32t48 18.5t75 6q21 0 47.5 0.5t55 1t56.5 1 t51 0.5q14 0 36.5 0.5t64.5 0.5q34 0 64.5 8.5t61.5 8.5q16 0 33.5 -10.5t32 -25.5t24 -31t9.5 -26q0 -31 -14.5 -53t-36.5 -36.5t-47 -21t-46 -6.5q-7 0 -16 3.5l-18 7t-16.5 7t-10.5 3.5l-100 -6q-4 -32 -7 -91t-5.5 -134t-3.5 -161.5t-1 -173.5q0 -53 1 -110t4 -114.5 t7.5 -115.5t11.5 -112q30 -3 57 -3t48 1.5t35 2t17 -1.5q31 -20 45 -45t14 -51q0 -18 -10 -33.5t-25.5 -26t-35 -16.5t-37.5 -6h-342q-18 0 -47 4t-56.5 14.5t-48 28.5t-20.5 45z" />
<glyph unicode="J" horiz-adv-x="1060" d="M93 140q0 16 7 35.5t20.5 36t33 27.5t45.5 11q18 0 31.5 -8.5t25.5 -21t23.5 -26t23.5 -22.5q7 -5 19 -8.5t24.5 -5.5t24.5 -2.5t19 -0.5q60 0 120 22.5t108.5 60.5t78.5 89t30 107q0 20 4.5 131.5t4.5 316.5q0 86 -7.5 170.5t-7.5 172.5q0 27 5 54.5t17.5 49t33.5 35 t54 13.5q24 0 39.5 -13.5t24.5 -32.5t12.5 -39t3.5 -33q0 -45 2 -102t4 -122t4 -135.5t2 -142.5q0 -39 -1.5 -86.5t-4.5 -97t-7 -97.5t-9.5 -88t-11.5 -69t-12 -40q-95 -159 -226 -230t-294 -71q-31 0 -76 7t-87 25t-71.5 49.5t-29.5 80.5z" />
<glyph unicode="K" horiz-adv-x="1365" d="M218 197.5v177.5v156.5v169t0.5 170.5t1 162t0.5 142.5t1 113.5q1 17 6 35t16 32.5t28 24t42 9.5q15 0 30.5 -5t27.5 -15t19.5 -26t7.5 -38l-7 -399q0 -10 0.5 -28t1.5 -39t2.5 -41t3.5 -34l163 182q18 47 46 71t67 32q16 20 45.5 55t59.5 70q16 17 31 34t28 31.5 t22.5 26.5t14.5 18q15 20 26 35t25 25t34 15t53 5q9 0 21.5 -4t23 -13t18 -24t7.5 -37q0 -44 -15.5 -70t-38.5 -46t-49.5 -39t-49.5 -48q-3 -3 -19.5 -22.5t-37.5 -46t-42.5 -55t-36.5 -49.5q10 -23 25.5 -44.5t28.5 -43.5q59 -100 114.5 -203.5t122.5 -216.5q16 -28 37 -63 t43 -74t43 -79t37.5 -76.5t26.5 -67.5t10 -52q0 -23 -5 -44t-17 -36.5t-32 -24.5t-50 -9q-18 0 -36 13.5t-34 35t-30.5 48t-26 52.5t-20.5 47.5t-14 34.5q-5 11 -20.5 45t-38.5 81.5t-52 105.5t-59.5 117t-60.5 115t-56 101t-46 74.5t-30 34.5q-71 -57 -133.5 -133.5 t-113.5 -150.5q-2 -22 -2.5 -37.5t-0.5 -36.5q0 -48 4.5 -97t11.5 -98q4 -43 7 -87.5t5 -91.5q0 -12 -9 -26t-23.5 -25.5t-31.5 -19t-33 -7.5q-21 0 -40.5 6t-35.5 16.5t-26 25t-11 30.5q-5 67 -5 147.5z" />
<glyph unicode="L" horiz-adv-x="1188" d="M187 1093q0 79 1.5 132.5t9.5 85.5t24.5 46t46.5 14q20 0 39 -9t33.5 -24.5t23 -36t8.5 -42.5q0 -40 -2 -81t-2 -79q0 -107 3.5 -214t8 -216t8.5 -221.5t7 -229.5q0 -17 2 -19.5t22 -2.5q26 -1 72.5 -3t109.5 -4t141.5 -3.5t169.5 -1.5q38 0 76 7.5t80 7.5q20 0 37.5 -9 t30.5 -23.5t20.5 -33t7.5 -38.5q0 -18 -10 -37t-26 -34t-36 -25t-39 -10q-29 0 -50.5 4.5t-45 10.5t-52 10.5t-71.5 4.5q-100 0 -201.5 -10.5t-202.5 -10.5q-34 0 -67.5 6.5t-69.5 6.5q-6 0 -20 -1.5t-27 -1.5q-19 0 -33 8.5t-14 42.5t4.5 49t6.5 22q0 42 0.5 69t1.5 44.5 t2.5 29.5t2.5 24t1.5 26.5t0.5 38.5q0 88 -5 177.5t-11.5 181t-11.5 184.5t-5 188z" />
<glyph unicode="M" horiz-adv-x="1696" d="M188 177q0 23 5 47t5 46q0 219 2 369.5t4.5 250.5t4.5 159.5t2 96.5q0 45 8.5 86t23.5 72.5t36 50t47 18.5q22 0 38 -10.5t27 -26.5t16.5 -36t4.5 -39v-5q4 -13 8 -32q3 -20 18.5 -58.5t38.5 -86.5t50.5 -101t53.5 -103t48.5 -92t35.5 -68q8 -17 20.5 -42.5t26.5 -53.5 t28.5 -56t26.5 -50t20.5 -36t11.5 -14q10 0 23 9.5t25.5 22.5t22 25t13.5 18q8 13 19 29.5t26.5 41t36.5 59t51 84.5q31 52 69.5 111t77.5 119.5t74.5 119.5t59.5 110q8 18 16 39t19 41q6 17 13.5 32.5t18 27t24 18.5t32.5 7q51 0 80.5 -29.5t29.5 -80.5q0 -301 -9.5 -611 t-9.5 -626q0 -20 -9.5 -32.5t-22 -19.5t-24.5 -10t-18 -3q-3 0 -24.5 4.5t-47 16.5t-46 33.5t-20.5 56.5q0 24 6 49.5t13.5 50.5t14.5 49.5t9 48.5v504q0 37 -0.5 77.5t-2.5 81.5q-39 -51 -75.5 -111.5t-73 -124.5t-72.5 -128t-73 -122.5t-76.5 -108t-81.5 -84.5 q-5 -4 -10.5 -9.5t-15.5 -10.5t-26 -8.5t-42 -3.5q-22 0 -48.5 22t-54.5 57t-56 78t-52 84.5t-43 77t-29 56.5l-131 268q-2 -50 -3 -114.5t-1 -146.5v-361q3 -20 11 -45t8 -48q0 -66 -17.5 -106.5t-62.5 -40.5t-70.5 13t-37.5 36t-15 54t-3 67z" />
<glyph unicode="N" horiz-adv-x="1434" d="M202 1234q0 14 4.5 35t14.5 40.5t25 33t36 13.5q42 0 70.5 -19.5t48 -51.5t32.5 -73t24.5 -84t24 -84.5t31.5 -74.5q33 -59 73 -128t81.5 -138t81 -133.5t72.5 -114.5q38 -51 73.5 -98t64.5 -82.5t49.5 -56.5t29.5 -21q3 0 6.5 23t6.5 59.5t6.5 82t6 90t5 83.5t3.5 63 q1 130 2 229t1.5 176.5t0.5 138.5v115q0 50 4 88t15.5 64t31 39.5t49.5 13.5q25 0 43 -3.5t30 -16t17.5 -37t5.5 -66.5q0 -103 -5 -203.5t-8 -204.5q-5 -177 -15 -360.5t-20 -365.5q-3 -42 -5 -90t-15.5 -88.5t-45 -67t-95.5 -26.5q-14 0 -27 5t-24.5 11.5t-20.5 14.5 t-13 14q-88 91 -169.5 196.5t-156.5 216.5t-142.5 224.5t-125.5 221.5q0 -249 7 -375t9 -140q6 -31 12.5 -73t6.5 -90q0 -28 -4.5 -53t-15.5 -44t-29 -30t-45 -11q-39 0 -62 12.5t-35 34t-15.5 50t-3.5 59.5q0 39 -1 88t-1 91q0 64 1 135t2 144.5t2 147.5t1 146 q0 74 -5.5 148t-5.5 157z" />
<glyph unicode="O" horiz-adv-x="1658" d="M128 681q0 129 28.5 232t79 181.5t120 134.5t150.5 92t170.5 52.5t180.5 16.5q157 0 282 -51t212 -146.5t133 -233t46 -310.5q0 -100 -26.5 -189t-73.5 -164t-111.5 -134.5t-141.5 -101.5t-163 -64t-175 -22q-95 0 -184.5 30t-168.5 82t-145 121t-113 148t-73.5 162.5 t-26.5 163.5zM310 711q0 -68 19.5 -136.5t55 -131.5t83.5 -117.5t105.5 -95t121.5 -64t131 -23.5q106 0 201.5 34.5t167.5 101.5t114 166t42 228q0 126 -35.5 227t-98.5 172t-149 109t-187 38q-109 0 -211.5 -31t-182.5 -94t-128.5 -158.5t-48.5 -224.5z" />
<glyph unicode="P" horiz-adv-x="1316" d="M197 565q0 8 2.5 16t6.5 16q4 9 9 17q4 99 6 159.5t3 99t1 62v48.5q0 41 2 83t10 82t24 75.5t45 63.5q8 8 23.5 12.5t29.5 4.5q24 0 44 -12q21 5 47.5 18t61.5 26.5t81 24t107 10.5q263 0 394 -90.5t131 -265.5q0 -82 -14.5 -140.5t-33.5 -97.5t-38.5 -61t-28.5 -31 q-22 -22 -60 -45.5t-87 -45.5t-106.5 -42.5t-117.5 -37t-120 -27.5t-114 -14q-14 -1 -31.5 0t-33.5 3q-18 2 -37 5q4 -66 10.5 -119.5t13 -103t11.5 -99t5 -107.5q0 -20 -9.5 -32t-23.5 -18t-30 -7.5t-29 -1.5q-19 0 -44 4.5t-42 15.5q-10 7 -17.5 30t-11.5 56.5t-6.5 74 t-3.5 82t-1 82v74.5v82q-11 17 -19.5 36.5t-8.5 34.5zM394 849q0 -18 0.5 -41l1 -46t1.5 -44.5t2 -37.5q24 -2 44 -5.5t39 -7t37 -6.5t38 -3q28 0 66 5.5t80.5 14.5t85 21.5t80 26.5t65.5 28.5t41 28.5q29 32 51.5 79t22.5 100q0 59 -18.5 104.5t-58.5 76.5t-103 47t-152 16 q-38 0 -79 -3.5t-77.5 -13t-64 -25.5t-36.5 -40q-1 -3 -4 -14.5t-9.5 -26t-17.5 -28.5t-28 -23q-2 -15 -3.5 -38t-2 -48.5l-1 -51t-0.5 -45.5z" />
<glyph unicode="Q" horiz-adv-x="1687" d="M129 716q0 99 26.5 188t73.5 164t111.5 134.5t141.5 101t163 64t175 22.5q95 0 184.5 -30t168.5 -81.5t145 -120.5t113 -147t73.5 -162t26.5 -164q0 -154 -39.5 -269t-107.5 -199q33 -35 62.5 -70t52.5 -66t36.5 -57t13.5 -44q0 -31 -21 -51.5t-61 -20.5q-13 0 -32 2 t-37.5 7t-35 13.5t-23.5 22.5q-5 7 -31.5 44t-69.5 91q-96 -60 -207.5 -87t-227.5 -27q-158 0 -283 51t-212 147t-133 233.5t-46 310.5zM313 688q0 -125 35.5 -226t98 -171.5t148 -108.5t186.5 -38q91 0 177 21t160 64q-52 59 -109.5 114.5t-116.5 100.5v30q0 43 15 68.5 t50 25.5q25 0 56 -16t61.5 -37.5t57 -45t41.5 -38.5q14 -15 35.5 -36t47.5 -46q45 58 71 132.5t26 167.5q0 68 -19.5 137.5t-55 133t-83.5 119t-105.5 97t-121.5 65t-131 23.5q-106 0 -201 -35.5t-167 -103.5t-114 -168t-42 -229z" />
<glyph unicode="R" horiz-adv-x="1414" d="M188 841q0 39 1 88.5t7.5 98t21 90t41.5 65.5q104 91 225 145t263 54q69 0 137 -18t123 -56t89 -97.5t34 -141.5q0 -61 -26.5 -107t-66.5 -79.5t-87.5 -57t-90.5 -38.5q43 -1 94 -13.5t99 -32.5t87 -46t58 -55q37 -59 58.5 -127t32 -145t13 -162t2.5 -178 q0 -22 -11.5 -40t-27.5 -31t-34.5 -20.5t-31.5 -7.5q-30 0 -47.5 11.5t-26.5 31.5t-11.5 46.5t-2.5 56.5q0 31 4.5 62.5t4.5 71.5q0 30 -2 64.5t-6.5 68t-11.5 65t-17 56.5q-26 61 -74.5 98.5t-109 58.5t-126.5 28t-127 7q-15 0 -48.5 -5t-71.5 -14t-73.5 -22t-54.5 -29 q0 -51 5 -108.5t13 -116.5t19 -115.5t22 -105.5q1 -5 1.5 -9t0.5 -9q0 -20 -10 -37t-26.5 -29t-38.5 -18.5t-47 -6.5q-20 0 -38.5 10t-32 25.5t-21.5 35t-8 38.5q0 29 5 57t5 59q0 22 -4.5 61.5t-10.5 89.5t-14 107.5t-14 115t-10.5 112.5t-4.5 100zM368 1009q0 -59 1 -112 t7 -107q28 1 81 11.5t116.5 28.5t130 42t121 52t89 59.5t34.5 63.5q0 53 -18.5 86.5t-48.5 52.5t-67.5 26t-74.5 7q-34 0 -75 -6t-82 -18.5t-79.5 -30.5t-68.5 -41t-48 -52t-18 -62z" />
<glyph unicode="S" horiz-adv-x="1279" d="M137 889q0 78 24 145t65.5 122t97.5 97.5t120.5 71.5t134 44t138.5 15q72 0 130.5 -20t99.5 -54t63.5 -77.5t22.5 -90.5q0 -25 -1 -57t-9 -60.5t-25 -48.5t-50 -20q-20 0 -31 8t-16 20t-6 26t-1 26q0 53 -14 87t-40.5 53.5t-65 27t-87.5 7.5q-34 0 -74 -12t-81 -33 t-79.5 -49.5t-68.5 -63t-48 -73t-18 -78.5q0 -47 32.5 -78.5t85 -52.5t119 -35t135.5 -26q56 -10 112.5 -23t107.5 -31t95 -43t76.5 -59.5t51 -79.5t18.5 -103q0 -71 -31.5 -127t-82.5 -99t-114.5 -74t-127.5 -50.5t-122.5 -28.5t-98.5 -9q-31 0 -70 3t-79 11.5t-78 24.5 t-68 42t-48 64t-18 90q0 16 11 43.5t28 49.5t37.5 29t39.5 -18q33 -60 60.5 -94t57.5 -50.5t66.5 -20.5t87.5 -4q62 0 127 21t118.5 53t87.5 70t34 71q0 24 -21 48t-57.5 46t-85.5 41t-104 32q-63 9 -129 20.5t-129 28t-118 41.5t-97 61t-66 85.5t-24 117.5z" />
<glyph unicode="T" horiz-adv-x="1249" d="M90 1197q-1 8 -1 15q0 33 12 55q14 27 37 42.5t52.5 21.5t57.5 6q148 0 298.5 6t310.5 6q23 0 46 3.5t46.5 7.5t47 7.5t48.5 3.5q24 0 43 -11t33 -28.5t21.5 -40t7.5 -45.5q0 -14 -9 -32.5t-24 -35.5t-34 -28.5t-38 -11.5q-23 0 -42 7.5t-35.5 17t-30.5 17t-26 7.5 q-10 0 -38.5 -0.5t-62 -1.5t-64 -3t-45.5 -5v-22q0 -16 0.5 -49.5t0.5 -96.5q0 -101 7.5 -201.5t20.5 -203.5q6 -98 10 -196t17 -200q1 -8 6 -26t10 -38.5t9.5 -39.5t4.5 -28q0 -23 -3 -38.5t-13 -25.5t-29 -15t-50 -6h-11q-36 0 -58 11q-25 13 -37 36.5t-15 54.5t-3 65 q0 24 2 48t2 50q0 32 -3.5 63.5t-7.5 63.5t-7.5 65t-3.5 67q0 54 -4.5 107t-9.5 107t-9.5 109.5t-5.5 113.5l-2 211q-32 -1 -70 -5.5t-77.5 -10t-80 -9.5t-76.5 -4q-66 0 -94.5 15.5t-30.5 47.5z" />
<glyph unicode="U" horiz-adv-x="1396" d="M175 716q0 58 4 128.5t11 142.5t16.5 141t21.5 124q6 28 33 51t67 23q24 0 39 -7t24 -19t12.5 -27.5t3.5 -33.5q0 -11 -1 -24t-3 -25q-8 -45 -15.5 -99.5t-13.5 -111t-9.5 -111t-3.5 -99.5q0 -65 3.5 -137t14 -142.5t29.5 -134.5t51 -113t78.5 -78t110.5 -29 q76 0 139.5 20t109.5 58.5t72.5 93.5t29.5 125l24 552q5 105 17 177.5t31 116.5t45 63.5t58 19.5q33 0 53 -35.5t20 -86.5q0 -12 -9 -62t-20.5 -127.5t-20.5 -176t-9 -206.5q0 -55 1 -115t2.5 -121.5t3 -123.5t1.5 -120q0 -30 -11 -52t-28 -37t-38.5 -22.5t-43.5 -7.5 q-11 0 -20 8.5t-16.5 20t-13 23.5t-9.5 20q-36 -37 -77 -68t-90 -54t-106.5 -36t-126.5 -13q-90 0 -158 33.5t-117 90t-81 131.5t-51 158t-26.5 169t-7.5 165z" />
<glyph unicode="V" horiz-adv-x="1394" d="M115 1165q0 12 0.5 30.5t7.5 36t22.5 29.5t44.5 12q13 0 28.5 -4.5t29.5 -13.5t25 -22.5t15 -30.5q14 -63 34 -137.5t42.5 -153.5t47 -159t48.5 -153.5t47 -136.5t43 -108q1 -6 4 -21.5t6.5 -31t8.5 -27.5t10 -12q8 0 18 17t20 40.5t20 48.5t18 40q67 108 131.5 220.5 l129 225t130 224t136.5 218.5q22 34 47 52.5t70 18.5q7 0 17.5 -5.5t20.5 -16.5t17 -29t7 -42q0 -9 -2.5 -21.5t-6.5 -24.5t-8.5 -22t-7.5 -15q-16 -24 -49 -76.5t-76.5 -123.5t-94 -155t-102.5 -171.5t-102 -172.5t-92.5 -157.5t-74 -127.5t-46.5 -82q-13 -24 -20 -43 t-13 -33.5t-14.5 -24.5t-24 -16t-42 -9t-68.5 -3q-7 0 -28.5 43t-51 115t-65 166t-71 195.5t-69.5 203.5t-60 190.5t-41.5 156t-15.5 99.5z" />
<glyph unicode="W" horiz-adv-x="1781" d="M105 1312q0 13 7 30.5t19 34t29 28t37 11.5q33 0 52 -18t30.5 -47t17.5 -64.5t13 -70.5q11 -54 22 -99.5t23 -91t26.5 -96t32 -115.5t39 -150t47.5 -198q8 -35 12 -70.5t15 -49.5l28 86q10 30 24 74t31 96.5t36.5 110.5t41 116t43.5 113t44 101t39.5 80.5t33.5 57.5 t31.5 34t34.5 11q35 0 67 -57t49 -172q14 -93 27.5 -174.5t29 -158t35.5 -152.5t47 -159q23 56 41.5 127.5t38.5 155t44.5 177.5t58.5 196q17 51 35.5 100t35.5 90.5t31 73.5t23 48q6 24 16.5 58.5t28 66t43.5 53.5t63 22q22 0 40.5 -10.5t31.5 -26.5t20.5 -35t7.5 -37 q0 -12 -5.5 -25t-15 -28t-23.5 -34t-31 -44q-20 -29 -37.5 -60t-36 -74.5t-39 -105.5t-46 -153t-57 -217.5t-71.5 -298.5q-6 -28 -15.5 -67t-22 -80.5t-29.5 -83t-39 -74t-49.5 -52.5t-61.5 -20q-15 0 -31 4.5t-30.5 13.5t-25.5 23.5t-15 34.5q-17 84 -40 175.5t-47.5 187 t-48 194.5t-39.5 199q-14 -40 -33 -94.5t-39.5 -116t-42 -125t-40 -121t-33.5 -105t-23 -75.5v2q-3 -9 -12 -29t-21.5 -44.5t-27.5 -50t-30.5 -46.5t-30.5 -34.5t-27 -13.5q-59 0 -88 25.5t-37 73.5q-23 135 -49 263t-55.5 254.5t-63 255t-71.5 265.5q-6 23 -13.5 50t-14 54 t-11 52.5t-4.5 44.5z" />
<glyph unicode="X" horiz-adv-x="1055" d="M115 1239q0 14 5.5 30.5t15.5 31t23.5 24t29.5 9.5q30 0 56 -22t50 -58t47 -83t47 -97t48.5 -99.5t51.5 -90.5q30 54 58 105t57.5 104t60.5 111t67 128q16 31 36 65t42 62t45.5 46t48.5 18q16 0 30 -8.5t24.5 -21t16 -28t5.5 -30.5q0 -6 -10.5 -30t-26.5 -56.5t-35 -69.5 t-36 -69t-30 -55t-16 -28q-9 -12 -30.5 -47t-48.5 -80.5t-55.5 -96.5t-52.5 -94.5t-39.5 -74.5t-15.5 -37q0 -14 14 -48t36.5 -79.5t50.5 -97t56 -100t53.5 -89t42.5 -63.5q22 -31 45.5 -49.5t43 -37t31.5 -44.5t12 -72q0 -67 -68 -67q-56 0 -96 18t-73 52t-62.5 83.5 t-62.5 111.5q-51 94 -81 154.5t-46 89.5q-14 -29 -33 -68t-37.5 -79t-33 -76.5t-19.5 -61.5q-5 -27 -5 -54.5t-6 -50.5t-24 -37.5t-58 -14.5q-30 0 -53.5 11.5t-39.5 30.5t-24.5 44.5t-8.5 53.5q0 7 10 32t25.5 60t35.5 76t39 80t35.5 71t26.5 50q5 9 13.5 28.5t17.5 42 t17 44t13 34.5q0 34 -21.5 81.5t-54.5 105.5t-72.5 125.5t-75.5 141.5q-13 26 -22.5 55t-9.5 55z" />
<glyph unicode="Y" horiz-adv-x="1163" d="M58 1226q0 15 6.5 28.5t17 24t24.5 16.5t28 6q28 0 44 -8.5t33 -36.5q11 -19 40 -63.5t67 -102t81.5 -122.5t85 -124.5t76 -107t55.5 -70.5l12.5 17.5t14.5 21.5t13 20t9 14q37 64 80 142t87 154.5t86 143.5t77 110q17 21 31.5 38t29 29t30.5 18.5t36 6.5q29 0 48 -20.5 t19 -48.5q0 -5 -2.5 -11.5t-12.5 -25.5t-29.5 -53.5t-53.5 -94.5q-46 -78 -98.5 -169.5t-107.5 -190.5t-110 -202.5t-106 -205.5t-96 -200.5t-79 -186.5q-3 -8 -10 -22t-17 -27.5t-23 -23.5t-27 -10q-11 0 -31 8t-40 21.5t-34.5 30.5t-14.5 34q0 29 15.5 79.5t39.5 108 t52 115.5t53 101q17 28 30 52t13 38q0 17 -8.5 38t-16.5 34q-15 25 -51.5 75t-83 114t-96.5 135.5t-91.5 138.5t-68 123.5t-26.5 90.5z" />
<glyph unicode="Z" horiz-adv-x="1361" d="M102 1281q0 22 9 37.5t24 25.5t34.5 15t39.5 5q30 0 58 -2t56 -5t56.5 -5t59.5 -2q68 0 140 2t150 2q68 0 140.5 -2.5t150.5 -9.5q15 -2 24.5 -10t15 -20t7.5 -26.5t2 -27.5q0 -19 -17.5 -57.5t-46.5 -89.5t-67 -111.5t-80 -123t-85 -125t-81.5 -116.5t-69.5 -97.5 t-50 -69.5q-14 -20 -37.5 -56t-47.5 -76t-44 -78.5t-28 -62.5l608 -12q25 -1 54 4t50 16q14 8 36.5 19.5t48.5 11.5q29 0 48 -8t30.5 -21t16.5 -30.5t5 -36.5t-6 -41.5t-18 -41.5t-30.5 -32t-42.5 -13t-45.5 3.5t-42.5 8t-41 8.5t-41 4q-36 0 -99 -4.5t-140 -9.5 t-160.5 -9.5t-159.5 -4.5q-17 0 -35.5 0.5t-43.5 2t-60.5 4t-87.5 6.5q-44 4 -58 26.5t-14 53.5q0 74 29.5 142t76.5 140q63 97 131 190t136 188t134.5 196t126.5 214l-160 9q-37 2 -75 2q-26 0 -53 -1q-67 -2 -127 -5.5t-107.5 -7.5t-69.5 -4q-55 0 -91 32.5t-36 86.5z" />
<glyph unicode="[" horiz-adv-x="764" d="M208.5 -33.5q-0.5 30.5 1.5 58.5q2 42 2.5 98t0 119.5t-1.5 131.5t-1.5 133.5t0 125t2.5 106.5q2 61 1.5 143t-1 169t-1 170.5t0.5 145.5q2 28 8.5 48.5t22 34t42.5 20t70 6.5q30 0 59.5 3.5t66.5 3.5q22 0 42.5 -7t37 -19.5t26.5 -29.5t11 -36q1 -33 -15.5 -53 t-40.5 -30t-51.5 -13t-48.5 -3h-41q-1 -53 -2 -125.5t-1.5 -157t-1 -177.5t-0.5 -188t0.5 -188t1.5 -177t3 -156t4 -124q43 0 77.5 -3.5t59.5 -14.5t38.5 -30.5t13.5 -52.5q0 -21 -9 -38t-24 -29t-33 -18.5t-36 -6.5h-168q-18 0 -38 4t-37 14t-28 28t-12 46q0 38 -0.5 68.5z " />
<glyph unicode="\" horiz-adv-x="919" d="M80 1581q0 45 23.5 68t61.5 23q21 0 39 -11t32.5 -27.5t24.5 -35t16 -34.5q43 -115 88 -249t89.5 -277t87.5 -290.5t83 -290.5t76 -276t66 -247q6 -24 9.5 -37.5t5 -20t2 -8t0.5 -2.5q0 -23 -13.5 -38t-33 -25t-41.5 -14t-39 -4q-24 0 -38.5 13t-23.5 32.5t-14.5 42.5 t-11.5 42q-5 15 -16 61t-27.5 114.5t-37.5 154.5t-44 180.5t-48 191.5t-49 189q-22 82 -53 180t-66.5 198t-72.5 195.5t-70 171.5q-3 8 -4 15t-1 15z" />
<glyph unicode="]" horiz-adv-x="754" d="M156 -102q-1 33 15.5 53t40.5 30t51.5 13t48.5 3h41q1 53 2 125.5t1.5 157t1 177.5t0.5 188t-0.5 188t-1.5 177t-3 156t-4 124q-43 0 -78 3.5t-59.5 14.5t-38 30.5t-13.5 52.5q0 21 9 38t24 29t33 18.5t36 6.5h168q18 0 38 -4t37 -14t28 -28t12 -46q0 -38 0.5 -68.5 t-1.5 -58.5q-3 -42 -3 -98t0.5 -119.5t1.5 -131.5t1.5 -133.5t0 -125t-2.5 -106.5q-1 -40 -1.5 -91t0 -107t1 -114.5t1 -115t0.5 -108t-1 -92.5q-2 -28 -8.5 -48.5t-22 -34t-42.5 -20t-70 -6.5q-30 0 -59.5 -3.5t-66.5 -3.5q-22 0 -42.5 7t-37 19.5t-26.5 29t-11 36.5z" />
<glyph unicode="^" horiz-adv-x="1264" d="M125 477q0 15 6.5 29.5t18.5 33t29 44t38 62.5q30 58 64.5 132.5t66 152.5t56 153t35.5 134q4 25 11 44t19 31t31 18t48 6q36 0 66 -19.5t50 -41.5q72 -103 140 -205q29 -44 60 -91.5t60.5 -95.5t56.5 -94t48 -87q18 -42 37.5 -67.5t35.5 -42.5t26.5 -28.5t10.5 -24.5 q0 -121 -118 -121q-23 0 -41 7t-30 16q-14 10 -25 23q-22 33 -46 82t-50 105.5t-54 115.5t-58 113t-61.5 98.5t-63.5 70.5q-8 -10 -15.5 -26t-15 -35t-14.5 -39.5t-13 -39.5q-5 -12 -18.5 -42.5t-41 -86.5t-70 -141.5t-105.5 -206.5q-8 -14 -24 -22.5t-33.5 -13t-33 -6 t-21.5 -1.5q-12 0 -23 8.5t-20 23.5t-14 34.5t-5 40.5z" />
<glyph unicode="_" horiz-adv-x="1297" d="M-72 -225q0 13 7 26.5t18.5 25t27 19t32.5 7.5h1278q36 0 61.5 -16t25.5 -56q0 -24 -6.5 -37.5t-17.5 -21t-27 -9.5t-35 -2h-1287q-29 0 -44.5 6.5t-23 16.5t-8.5 21t-1 20z" />
<glyph unicode="`" horiz-adv-x="642" d="M24 1533q0 45 9 69t23.5 35t32.5 13t37 2q12 0 31 -14t40.5 -36t44 -49t42.5 -52t35.5 -45t22.5 -29q28 -34 51.5 -57.5l41 -41t27.5 -31t10 -28.5q0 -22 -1 -37.5t-7.5 -25.5t-20 -14.5t-38.5 -4.5q-28 0 -67 23t-81 58t-84 77t-75 80.5t-53.5 68t-20.5 39.5z" />
<glyph unicode="a" horiz-adv-x="1529" d="M133 426q0 78 22.5 162.5t64.5 157.5q40 73 98.5 137t130.5 111.5t155.5 75t174.5 27.5q69 0 133 -18.5t120 -50.5t102.5 -76t79.5 -94.5t51 -105.5t17 -110q0 -49 -5 -86.5t-13 -74.5q-6 -38 -12 -78.5t-6 -94.5q0 -47 7 -77.5t20 -49.5t31.5 -26.5t41.5 -7.5 q6 0 15 3.5t17 8t14 9t8 7.5q11 11 21.5 19.5t28.5 8.5q36 0 54.5 -17t18.5 -56q0 -24 -14.5 -50t-40.5 -47.5t-62 -35.5t-80 -14q-88 0 -150.5 49.5t-89.5 135.5q-37 -39 -81 -74.5t-97 -62t-117.5 -42t-142.5 -15.5q-59 0 -120.5 16t-119 45t-107.5 70.5t-87.5 91.5 t-59 108t-21.5 121zM320 428q0 -62 33.5 -114t86.5 -89t118.5 -57.5t128.5 -20.5q84 0 154.5 32t121 83t78.5 114.5t28 125.5q0 35 15.5 61.5t29.5 50.5q4 5 4.5 15.5t0 22t-1.5 21.5t-1 14q0 22 -15 48t-40.5 52t-58 50.5t-66.5 43.5t-68 30.5t-61 11.5q-76 0 -141.5 -21 t-119.5 -57t-96.5 -84.5t-71 -103.5t-43.5 -114t-15 -115z" />
<glyph unicode="b" horiz-adv-x="1342" d="M182 1289q0 9 0.5 24.5t0.5 31.5t0.5 29t0.5 17q0 41 19.5 64t74.5 23q13 0 29 -4.5t30 -12.5t23.5 -19.5t9.5 -25.5l2 -95v-49v-46q-1 -44 -2.5 -87.5t-3 -88t-1.5 -93.5q60 51 140 83.5t183 32.5q256 0 388.5 -129t132.5 -400q0 -106 -30.5 -188.5t-81 -144.5 t-115.5 -105.5t-134.5 -70t-138 -38.5t-125.5 -12q-52 0 -106 10t-102 27q-13 -18 -35.5 -29t-52.5 -11q-27 0 -45 11.5t-30 30t-18 41.5t-7 47q-2 35 -3 105.5t-1 161t1 194t1 204.5v191.5t-1 155.5zM370 660.5q0 -44.5 0.5 -97.5t1.5 -103t1.5 -90t0.5 -57 q0 -31 3.5 -67.5t12.5 -64.5q15 -8 38 -13t49 -8t53.5 -4t51.5 0q52 2 108 15t107.5 37t95.5 59.5t72 82.5q19 28 29.5 63t15.5 73t6 76.5t1 73.5q-3 73 -38.5 123t-88 81t-115 44.5t-118.5 13.5q-36 0 -77.5 -10t-80.5 -27.5t-71.5 -41.5t-50.5 -52q-4 -2 -5.5 -32 t-1.5 -74.5z" />
<glyph unicode="c" horiz-adv-x="1253" d="M133 420q0 138 40 259.5t118 213t193 144.5t264 53q28 0 64 -10t73 -29t73 -45.5t64 -59t45 -70.5t17 -79q0 -12 -5 -30t-13.5 -34t-20.5 -26t-26.5 -7.5t-31.5 21.5t-35 63q-14 32 -39.5 55t-58.5 37.5t-70.5 21.5t-74.5 7q-91 0 -163.5 -37t-123.5 -97.5t-78 -137.5 t-27 -156q0 -97 29 -158.5t82.5 -97t128 -48.5t165.5 -13q27 0 52.5 -1.5t50 -1t49.5 4.5t52 15q22 10 41 19q17 7 33 13t24 6q10 0 28 -6t35.5 -20t30.5 -36.5t13 -55.5q0 -17 -11.5 -34.5t-29 -32t-36.5 -23.5t-34 -9h-79q-70 0 -136.5 -6t-138.5 -6q-107 0 -204 20.5 t-170 70.5t-116 133.5t-43 209.5z" />
<glyph unicode="d" horiz-adv-x="1446" d="M133 497q0 76 18.5 150.5t54.5 141.5t89 124t123 99t156 64q82 22 177 21h9q46 -1 92.5 -15.5t88 -37t77 -50t59.5 -54.5q1 5 1.5 14.5l1 19t1 18t0.5 11.5v372q0 101 103 101q22 0 36.5 -9t23 -23.5t12 -33t3.5 -37.5q0 -8 -0.5 -28t-0.5 -42.5t-0.5 -43.5t-0.5 -33 q2 -45 4.5 -121.5t2.5 -187.5q0 -91 -3 -189t-5 -198q-4 -103 -5.5 -204t-1.5 -197q0 -76 -23 -112t-81 -36q-19 0 -35 10t-28 26.5t-21 38t-13 45.5q-26 -32 -70.5 -54.5t-99 -36.5t-115.5 -20.5t-121 -6.5q-128 0 -223.5 38t-159 106t-95 162.5t-31.5 207.5zM322 495 q0 -81 28 -146t76 -110.5t111.5 -70t134.5 -24.5q97 0 167.5 19t116.5 46.5t70.5 58t30.5 53.5q6 32 9 62.5t4 62t1 66v75.5q0 67 -26.5 128.5t-70.5 108.5t-100 75t-116 28q-105 0 -186.5 -32.5t-137 -90.5t-84 -137t-28.5 -172z" />
<glyph unicode="e" horiz-adv-x="1336" d="M107 475q0 142 41 257t121 196t196.5 125t268.5 44q52 0 106.5 -11t105.5 -32t96.5 -52t79.5 -71.5t53.5 -90t19.5 -107.5q0 -45 -20 -65t-53 -28q-29 -8 -67.5 -14.5t-86.5 -21.5l-669 -208q13 -61 42.5 -104t69 -72t86 -46t93.5 -25.5t91.5 -11t80.5 -2.5q57 0 113 13 t103 29t82.5 29t51.5 13q53 0 77.5 -24t24.5 -75q0 -33 -33.5 -57t-86.5 -40t-117.5 -25.5t-126 -14t-112.5 -6t-77 -1.5q-69 0 -137.5 17.5t-130 49.5t-114 77.5t-91 101t-60 119.5t-21.5 134zM294 553q47 14 108 32t128.5 38.5t137 42.5t134 43.5t119 41t91.5 36.5 q-11 38 -37 65.5t-65.5 45t-91.5 26t-114 8.5q-28 0 -66.5 -8t-81 -25.5t-86 -46.5t-79.5 -71t-62 -98.5t-35 -129.5z" />
<glyph unicode="f" horiz-adv-x="1114" d="M74 943q0 19 7 36.5t19.5 31t29.5 21t36 7.5l194 -4q2 0 5 -0.5t5 -0.5q4 25 9 53.5t9.5 54t8.5 45t6 26.5q43 166 155 252t279 86q17 0 45.5 -5t60.5 -15t65 -24t59.5 -32t43.5 -39.5t17 -45.5q0 -9 -1.5 -24t-7 -29.5t-16 -24.5t-29.5 -10q-37 0 -60.5 12t-46 27 t-51 27t-76.5 12q-84 0 -135.5 -29t-81 -77.5t-42 -111.5t-17.5 -131q40 -1 70.5 -1h54.5t43 0.5t37 0.5q29 0 59 1t59 3h2q18 2 37.5 3t39.5 1q13 0 27.5 -3.5t26.5 -13t19.5 -26t7.5 -42.5q0 -36 -12.5 -55.5t-30.5 -29.5t-38.5 -12t-35.5 -2q-19 0 -44 2t-63 5t-92 5 t-130 2q-6 0 -14.5 1t-30.5 2q-2 -75 -3 -159t-1 -179q0 -45 -2 -87t-2 -84q0 -19 1.5 -40t5.5 -51t11 -73t17 -107q3 -17 3 -31q0 -33 -15 -49q-21 -22 -57 -22q-41 0 -67.5 5.5t-42 18.5t-22 35t-6.5 55q0 9 -3 31.5t-7 53.5t-7 66.5t-3 70.5q0 28 1 84t2 128.5t2 157 t1 170.5h-9l-187 -11q-20 0 -37 8t-29 20.5t-19 28t-7 31.5z" />
<glyph unicode="g" horiz-adv-x="1354" d="M133 489q0 75 13.5 149t41 141t69.5 124t98.5 98.5t128 65t158.5 23.5q96 0 172.5 -24.5t134 -65t96.5 -92.5t60 -108q11 -30 16.5 -46.5t11.5 -20.5q33 -22 51.5 -51t18.5 -55l-1 -359q-4 -57 -8.5 -137.5t-15.5 -195.5q-6 -62 -13 -124t-20.5 -119.5t-36.5 -106.5 t-60.5 -85.5t-92.5 -57.5t-133 -21q-18 0 -52.5 2.5t-75.5 9.5t-83.5 18t-77.5 27.5t-57 39.5t-22 54q0 19 3 36t12 29.5t26 20t45 7.5q21 0 41.5 -13.5t45.5 -23.5t57.5 -15t62.5 -7.5t53 -2.5h31q46 0 75.5 29t47.5 72.5t25.5 95.5t10.5 99q1 22 4 51t6 61.5t6 65.5t4 62 q-60 -74 -148 -119.5t-210 -45.5q-125 0 -221.5 32t-162.5 96t-100.5 160.5t-34.5 226.5zM325 487q0 -104 27.5 -171t75 -106t111.5 -54.5t137 -15.5q83 0 144 36.5t103 91.5t65 120t29 122q3 28 -3 49.5t-14 40.5q-10 22 -18 43.5t-8 44.5q0 31 -22.5 70.5t-62 74.5 t-93.5 59.5t-116 24.5q-103 0 -171.5 -36.5t-109 -96.5t-57.5 -137.5t-17 -159.5z" />
<glyph unicode="h" horiz-adv-x="1415" d="M182 103l2 1248q0 16 8 37.5t22.5 40.5t34.5 32t44 13q34 0 57.5 -23t23.5 -53q0 -39 -1.5 -84t-3 -93.5t-3 -98.5t-1.5 -98v-75q64 66 148.5 100.5t179.5 34.5q39 0 80 -4.5t82 -13.5t79.5 -22.5t72.5 -32.5q91 -52 144 -105.5t80 -113t34 -127.5q6 -60 6 -130v-20 l-2 -372q0 -21 -1.5 -51.5t-11.5 -59.5t-31 -49.5t-60 -20.5q-24 0 -44 9t-34.5 24.5t-22 36t-7.5 44.5q0 54 4.5 106.5t9.5 104.5t9.5 104.5t4.5 105.5q0 38 -3 83t-15.5 90.5t-37.5 88t-68.5 75.5t-109 52.5t-158.5 19.5q-64 0 -123.5 -22.5t-105 -56.5t-72.5 -74t-27 -76 v-421q0 -31 4.5 -70.5t4.5 -73.5q0 -20 -1.5 -40.5t-9 -37t-24 -27.5t-46.5 -11q-13 0 -32 2.5t-36.5 13t-30 32t-12.5 59.5z" />
<glyph unicode="i" horiz-adv-x="626" d="M186 1450q0 17 7 35t19.5 33t30.5 24.5t40 9.5q19 0 47.5 -15t54.5 -38.5t45 -52t19 -55.5q0 -7 -4.5 -20t-14 -26t-24 -23t-34.5 -10q-17 0 -48.5 8.5t-62 25.5t-53 43t-22.5 61zM218 555q0 112 13.5 229.5t33.5 222.5q1 9 7.5 24.5t18 31t27.5 27t37 11.5q22 0 36 -7.5 t21.5 -21t10.5 -31t3 -36.5q0 -53 -4 -116.5t-8.5 -129t-8 -128.5t-3.5 -114q0 -45 6.5 -102t15 -117t15 -117.5t6.5 -104.5q0 -49 -25 -75.5t-56 -26.5q-60 0 -90 21.5t-41 75.5q-2 8 -4.5 31t-5 76t-4 143.5t-1.5 233.5z" />
<glyph unicode="j" horiz-adv-x="627" d="M-324 -467q-3 30 10.5 46t35.5 23.5t49 8t52 -1.5q53 0 104 2.5t98 14t89.5 35t78.5 65.5q8 9 13.5 28.5t9.5 43t6 47t3 38.5q1 18 4.5 56t7.5 93t7 126t3 154q0 109 -3.5 194.5t-3.5 146.5q0 39 0.5 71t0.5 61t0.5 57t0.5 60q0 28 4 60t14.5 59t30 45t51.5 18 q26 0 44 -9t29.5 -23.5t17 -32.5t6.5 -36q1 -15 0 -50.5t-3 -83t-4.5 -101.5t-4.5 -104.5t-3 -93.5v-37.5v-28.5q0 -96 4 -193t4 -191t-8 -180t-30 -159.5t-62 -133.5t-103 -102.5t-153.5 -65.5t-213.5 -23q-20 0 -50.5 1.5t-59.5 10.5t-51 29t-25 56zM178 1432 q0 20 7.5 39.5t22.5 34.5t36.5 24t50.5 9q18 0 42.5 -18.5t46.5 -44t37.5 -52.5t15.5 -45q0 -26 -7 -43t-19.5 -27t-30 -14t-39.5 -4q-21 0 -49 18t-53.5 41.5t-43 47t-17.5 34.5z" />
<glyph unicode="k" horiz-adv-x="1243" d="M182 68q0 38 4 82.5t8.5 89t8.5 86t4 74.5l16 998q0 22 9 39t23 28.5t31 17.5t35 6q13 0 29 -5.5t30 -17t23 -29.5t9 -43q0 -75 -3.5 -148t-8 -144.5t-8 -141.5t-3.5 -139q0 -58 0.5 -115.5t4.5 -121.5q66 73 126 135t118 119.5t114.5 112.5t114.5 113q14 14 29 32 t32 33.5t35.5 26.5t40.5 11q31 0 51 -5t31.5 -16.5t16 -28.5t4.5 -41q0 -21 -6 -35t-15.5 -24.5t-23 -19t-28.5 -18.5q-11 -8 -28 -21.5t-36.5 -30t-40.5 -35.5t-41 -37q-48 -43 -101 -94l163 -358q21 -45 39.5 -79t37.5 -67.5t39 -71t43 -90.5q7 -20 12 -38 q5 -16 8.5 -31.5t3.5 -25.5q0 -26 -8 -52.5t-22.5 -48t-34 -35t-42.5 -13.5q-29 0 -45.5 23t-27 54.5t-17.5 65.5t-17 56l-265 584l-65 -82q-23 -29 -46.5 -59.5t-48.5 -58t-51 -49t-54 -30.5l5 -284q0 -18 -6 -36.5t-19 -34t-32 -25.5t-45 -10q-29 0 -49.5 12t-34 28.5 t-20 34t-6.5 28.5z" />
<glyph unicode="l" horiz-adv-x="697" d="M193 808l8 522q0 66 20 107t72 41q19 0 34.5 -8t26.5 -20.5t17 -27.5t6 -29v-734q0 -109 4.5 -218.5t24.5 -221.5q3 -18 9.5 -29.5t15 -18t18.5 -8.5t19 -2q15 0 25 6.5t15 12.5q6 7 12.5 13.5t14.5 12t19.5 8.5t27.5 3q18 0 31 -7.5t22 -19.5t13.5 -27t4.5 -30 q0 -31 -18.5 -56.5t-46.5 -43.5t-61 -28t-62 -10h-9q-98 1 -158 45q-64 46 -84 137q-5 23 -5 50v53q0 67 -3 132.5t-6.5 130.5t-5.5 131l-2 74q0 30 1 60z" />
<glyph unicode="m" horiz-adv-x="2069" d="M173 584v130.5t1.5 100.5t4 83.5t7.5 79.5q4 31 25.5 52.5t47.5 21.5q12 0 26 -3t26.5 -10.5t22 -20.5t14.5 -32q17 14 42.5 31t59.5 32t77 25t94 10q52 0 107.5 -16t107 -47.5t94 -77.5t69.5 -106q31 49 77 87.5t101 65.5t115.5 41t120.5 14q116 0 210.5 -38.5t162 -119 t104 -206t36.5 -299.5q0 -41 -2 -80t-5.5 -82t-8 -93t-8.5 -112q0 -8 -6 -22.5t-17 -28t-27 -23.5t-36 -10q-28 0 -51.5 12.5t-41 31t-27 40t-9.5 39.5q0 40 8 68t18 56.5t18 63.5t8 90q0 48 -1.5 93t-1.5 93q0 57 -22.5 120t-65.5 116t-104.5 88t-139.5 35q-39 0 -88 -12 t-94.5 -37.5t-82 -65.5t-50.5 -95v-432q0 -5 1 -20.5t2.5 -32.5t2.5 -32.5t1 -19.5q0 -22 -6 -42.5t-18 -36t-28.5 -25t-37.5 -9.5q-22 0 -46 4t-43.5 15.5t-32 31.5t-12.5 52q0 6 2.5 24t5 38t5 36.5t2.5 19.5v337q0 53 -18.5 111.5t-53 108t-83.5 82t-110 32.5 q-77 0 -127.5 -15t-80 -46.5t-41 -80.5t-11.5 -118q0 -73 2 -149.5t10 -144.5l31 -252q0 -23 -12 -41t-28.5 -30t-33 -18.5t-26.5 -6.5q-59 0 -87 27.5t-35 98.5q-2 59 -6 174t-4 277z" />
<glyph unicode="n" horiz-adv-x="1428" d="M174 845q0 35 3 78.5t12 81t26 63t46 25.5q31 0 48.5 -19.5t26 -50t10 -69t1.5 -77.5q35 51 89 92.5t115.5 70.5t124.5 45t117 16q98 0 172.5 -28.5t129 -77.5t91 -113.5t58.5 -136.5t31.5 -147.5t9.5 -145.5v-170q0 -65 -8.5 -125.5t-24.5 -107t-39.5 -75t-53.5 -28.5 q-22 0 -41 3t-33.5 14.5t-22.5 35.5t-8 66q0 39 8 81.5t17.5 85.5t17.5 86t8 85q0 47 -2.5 93.5t-10.5 91.5t-22.5 87.5t-39.5 81.5q-20 32 -41.5 62.5t-52 54.5t-73.5 38.5t-106 14.5q-43 0 -98 -17.5t-110.5 -50t-106 -78t-84.5 -101.5v-256q0 -13 1.5 -33.5t4.5 -45.5 t7.5 -53t9.5 -55q8 -42 19 -80t11 -71q0 -23 -2 -44t-10.5 -36.5t-26.5 -24.5t-50 -9q-21 0 -43 3.5t-40.5 15.5t-30.5 35.5t-12 63.5q0 15 1 41t1 68q0 68 -4 143.5t-8.5 157t-8 168t-3.5 177.5z" />
<glyph unicode="o" horiz-adv-x="1381" d="M133 532q0 155 50 263t131.5 175.5t185 98t211.5 30.5q125 0 224.5 -41t168.5 -118t106 -186.5t37 -245.5q0 -79 -21 -149t-58 -129.5t-88.5 -106.5t-112.5 -80.5t-129 -51t-138 -17.5q-76 0 -147.5 23.5t-134.5 64.5t-115.5 95.5t-90 116.5t-58.5 128t-21 130zM306 557 q0 -74 32 -148.5t84.5 -134.5t120 -97.5t137.5 -37.5q76 0 147.5 26t126 76t87.5 122t33 164q0 90 -24.5 164.5t-67.5 128.5t-103 83.5t-130 29.5q-78 0 -157 -24.5t-142.5 -72t-103.5 -117.5t-40 -162z" />
<glyph unicode="p" horiz-adv-x="1424" d="M196 99v770q30 59 81 99t111 64.5t122.5 35t114.5 10.5q157 0 278.5 -36.5t204 -100t125.5 -149t43 -182.5q0 -148 -43 -263.5t-124 -195t-197 -121t-261 -41.5q-89 0 -151.5 9.5t-118.5 29.5v-78v-15q0 -40 5 -81q5 -49 11.5 -97.5t12.5 -96t6 -90.5q0 -20 -10 -35 t-25.5 -25t-34.5 -15t-37 -5q-23 0 -42.5 6t-34.5 20t-23.5 38t-8.5 59v53t-0.5 64.5t-1 66.5t-0.5 58zM369 493q0 -10 0.5 -28t1.5 -40.5t2 -47.5l2 -50q3 -58 6 -126q-2 -16 20.5 -25t53 -13.5t61.5 -5.5t47 -1q105 0 200 22.5t167 72t114.5 129.5t42.5 196 q0 82 -32 144.5t-91.5 104.5t-145 63t-192.5 21q-30 0 -71.5 -8.5t-80.5 -25.5t-68 -42t-35 -58z" />
<glyph unicode="q" horiz-adv-x="1383" d="M133 520q0 124 40.5 228.5t112.5 180t170.5 117.5t213.5 42q52 0 111 -11.5t117 -35t112 -58.5t95 -81.5t66 -105.5t26 -129q4 -6 8.5 -17t4.5 -26v-278q0 -46 -0.5 -88.5t-2.5 -85.5q-2 -37 -3.5 -74.5t-1.5 -84.5q1 -107 4.5 -221.5t3.5 -223.5q0 -22 -11 -37 t-26.5 -24t-33 -13t-30.5 -4q-50 0 -77.5 18t-27.5 71l15 376v86t2 136q-25 -36 -63 -69t-84.5 -58t-99.5 -40t-110 -15q-125 0 -224 47t-167 122.5t-104 169t-36 186.5zM318 542q0 -63 21 -129t65.5 -119.5t112.5 -87.5t163 -34q54 0 111 22.5t103.5 64.5t76 101.5 t29.5 134.5q0 15 3.5 36t9.5 44t13 46t15 41q-15 64 -51 112.5t-82.5 80.5t-98.5 48t-98 16q-78 0 -149 -24.5t-125.5 -72.5t-86.5 -118.5t-32 -161.5z" />
<glyph unicode="r" horiz-adv-x="1158" d="M182 475v13q0 50 4 89l33 395q4 48 24.5 76.5t73.5 28.5q22 0 38.5 -7.5t28 -19.5t18.5 -26.5t10 -28.5q41 31 90 53t101 36t105 20.5t103 6.5q42 0 96 -5.5t102 -23.5t81 -52t33 -92q0 -41 -25.5 -66.5t-67.5 -25.5q-32 0 -50 14.5t-32 32.5q-6 7 -14 15t-22.5 15 t-37.5 11t-59 4q-113 0 -196 -23.5t-137 -73.5t-80 -128.5t-26 -188.5q0 -41 1 -77.5t3.5 -72.5t5.5 -73t6 -79q2 -32 6 -66t4 -66q0 -9 -5 -25t-16.5 -31.5t-30 -27t-45.5 -11.5q-35 0 -57.5 8t-36 24.5t-18.5 42t-5 59.5q0 26 3 54t3 54q0 61 -6 127q-6 53 -6 111z" />
<glyph unicode="s" horiz-adv-x="1339" d="M176 701q0 68 23.5 126t64 106t95 85t117.5 62t131 38t135 13q70 0 127.5 -17.5t97.5 -46t62 -65.5t22 -77q0 -25 -1 -57t-8.5 -60.5t-24.5 -48t-49 -19.5q-20 0 -30.5 8.5t-15.5 20.5t-6 26.5t-1 26.5q0 39 -13.5 63t-39.5 38t-63.5 19t-85.5 5q-33 0 -72 -9 t-78.5 -24.5t-77 -37.5t-66 -48.5t-46 -55.5t-17.5 -60q0 -39 31 -64.5t82 -42.5t115.5 -28.5t131.5 -21.5q83 -13 163.5 -32.5t144.5 -52.5t103 -84.5t39 -127.5q0 -54 -31 -96.5t-80.5 -75t-111.5 -55.5t-124.5 -37.5t-119.5 -21.5t-96 -7q-30 0 -68 2.5t-77.5 9.5 t-76.5 20t-66.5 34.5t-47 52t-17.5 73.5q0 13 11 35.5t27.5 40.5t36.5 23.5t38 -14.5q33 -37 59.5 -58t56 -31t65 -12t85.5 -2q60 0 122.5 13.5t114.5 32t85 38.5t33 32q0 16 -20.5 33t-55.5 32t-82 28.5t-100 22.5q-62 8 -126.5 18t-125.5 26t-115 38.5t-95 56.5t-64.5 81 t-23.5 110z" />
<glyph unicode="t" horiz-adv-x="1163" d="M40 898q0 21 9 39t24.5 30.5t36.5 19.5t44 7l210 -5l6 50t5 49q3 29 4 54t3 48.5t4.5 47t8.5 49.5q3 17 14 33.5t25.5 29.5t31 21t31.5 8q12 0 25 -6t24 -17.5t18.5 -27t7.5 -34.5q0 -40 -0.5 -67t-2 -46t-3.5 -33l-4 -28q-2 -11 -3.5 -23.5t-3 -28.5t-3.5 -36.5 t-5 -48.5q57 1 108.5 2.5t101.5 3t102 2.5t111 1q20 0 35.5 -10.5t26 -25.5t16 -31.5t5.5 -28.5q0 -21 -9 -37.5t-22 -27.5t-29 -16t-29 -5l-409 7q-4 -4 -4 -9q0 -54 -2 -122q-1 -39 -1 -79v-60q2 -71 9 -139.5t25.5 -122t50.5 -86.5t84 -33q17 0 40.5 6.5t46.5 15.5t43 20 t31 20q11 10 29 18t30 8q38 0 48.5 -18.5t10.5 -50.5q0 -11 -5 -26.5t-13 -25.5q-19 -24 -49.5 -50.5t-65.5 -48t-71 -35.5t-66 -14q-99 0 -164 39.5t-105 106t-60 152t-28 178t-9 184.5t-3 170h-48.5t-42.5 -1q-12 -1 -22 -1.5t-21.5 -1t-26 -1t-35.5 -0.5q-12 0 -32 6 t-40 17t-34.5 27.5t-14.5 37.5z" />
<glyph unicode="u" horiz-adv-x="1336" d="M153 577q0 31 2 70t6 81t9.5 85.5t12.5 84t15.5 75t17.5 59.5q11 27 35 44.5t64 17.5q36 0 57.5 -26t21.5 -62q0 -6 -9.5 -37.5t-21 -84t-21 -124t-9.5 -156.5q0 -33 3.5 -81t13.5 -100.5t28 -105t48.5 -94.5t74.5 -68t105 -26q52 0 96 16t80.5 41.5t66 57.5t53 64t41 60 t30.5 47q6 58 9 102.5t4.5 81.5t2 69.5t0.5 67t-0.5 74t-0.5 90.5v119q0 21 9.5 35t23.5 23t31 12.5t31 3.5q12 0 26 -4t26 -12t20 -21.5t8 -31.5l-2 -949q0 -51 -20 -68.5t-61 -17.5q-37 0 -57.5 5.5t-30 20.5t-11.5 41t-2 67v68q-26 -47 -58.5 -89.5t-75.5 -74.5t-99 -51 t-128 -19q-104 0 -178.5 31.5t-126 83t-83 117.5t-49 135t-23 135t-5.5 118z" />
<glyph unicode="v" horiz-adv-x="1294" d="M85 989q0 14 2.5 29t11 28t23 21t38.5 8q31 0 51 -5.5t34 -18.5t23.5 -34.5t20.5 -52.5q28 -83 56.5 -169.5t61 -174t69 -175t81.5 -172.5q4 -8 9 -22.5t10.5 -29t11 -25.5t11.5 -11q8 0 27 32t44 82t54 111t56.5 120t50.5 108.5t37 76.5q11 22 28.5 55.5t38.5 73t43 80 t43 76t39 62t30 37.5q14 10 29 16.5t28 6.5q36 0 58 -30t22 -75q0 -40 -28.5 -90t-66.5 -110q-27 -42 -56 -89.5t-48 -92.5q-18 -42 -43 -94.5t-55 -110t-63.5 -117.5t-67 -116t-66 -106t-60.5 -87q-14 -19 -44 -27.5t-59 -8.5q-23 0 -45.5 9t-27.5 17q-93 134 -158 285 t-113 301q-14 45 -29 91.5t-32 91.5q-11 28 -24.5 55t-26 54t-21 55.5t-8.5 61.5z" />
<glyph unicode="w" horiz-adv-x="1949" d="M163 747q0 98 12 156.5t30 89t39 40t39 9.5q46 0 61.5 -24.5t15.5 -68.5q0 -36 -6.5 -75.5t-6.5 -76.5q0 -22 1 -62t4.5 -90.5t10 -109t17 -116.5t26 -112t37 -96.5t49 -70t63.5 -32.5q11 -2 22 -2q30 0 60 12q40 16 74.5 49.5t63 80t49 101t32 114t11.5 119.5 q0 26 -3 66.5t-6.5 84.5t-6.5 85.5t-3 70.5q0 12 6.5 31.5t20.5 38t35.5 31.5t51.5 13q18 0 34.5 -10t30 -24.5t21.5 -30.5t9 -29q2 -32 2.5 -75.5t0.5 -87.5q1 -60 2.5 -126.5t6.5 -131.5t15 -124t28 -103.5t44.5 -71t65.5 -26.5q49 0 100 15.5t98.5 45t90 73t74 100.5 t49.5 126.5t18 151.5q0 21 -1.5 53.5t-5.5 71.5t-11 80.5t-18 79.5q-5 17 -13.5 34t-16.5 34t-14 34.5t-6 35.5q0 45 24.5 76.5t78.5 31.5q14 0 30.5 -4.5t31 -16.5t25.5 -32t15 -51q3 -13 12 -52.5t18.5 -94.5t17 -118.5t7.5 -124.5q0 -102 -23.5 -197t-65.5 -178 t-99.5 -151.5t-125.5 -117.5t-144 -76t-154 -27q-56 0 -98.5 23t-75.5 63t-58 92.5t-46 112.5q-24 -62 -63.5 -123t-90 -109.5t-109 -78.5t-119.5 -30q-69 0 -122 31t-93.5 82.5t-69 118.5t-48 139t-31 145t-17.5 135.5t-8 110t-2 70.5z" />
<glyph unicode="x" horiz-adv-x="1168" d="M145 71q0 39 13.5 66t34 50t44.5 46.5t45 55.5q12 18 38 51t54.5 68t51.5 64t29 40q0 -1 -8.5 14t-23 41t-33 60t-39 71t-40.5 74t-37 69q-12 21 -27 41.5t-28.5 43t-23 47.5t-9.5 55q0 31 21.5 54.5t62.5 23.5q22 0 48.5 -26.5t55 -68t57.5 -92.5t55 -99t48 -87.5 t37 -59.5q21 28 51 72t65 92.5t74 97.5t78.5 88t78.5 63.5t75 24.5q43 0 66 -22.5t23 -51.5q0 -13 -5.5 -26.5t-16.5 -24.5l-13 -13t-33.5 -33t-45.5 -44.5t-49.5 -49.5t-45 -47t-31.5 -36q-23 -28 -43.5 -54.5t-41 -54.5t-42 -58t-45.5 -64q10 -19 24 -41.5t29 -46 t31 -46.5t31 -43q32 -42 61 -79.5t57 -66t56.5 -45.5t59.5 -17q10 0 18 1.5t14.5 1.5t12.5 -3.5t14 -12.5q15 -20 20 -37t5 -37q0 -35 -8.5 -58.5t-22.5 -38t-32 -20.5t-36 -6q-33 0 -70 17.5t-73.5 44t-70.5 58.5t-61 61q-10 10 -22.5 25.5t-26.5 34.5t-28.5 39t-28.5 40 q-33 46 -67 98q-22 -27 -53 -65t-59.5 -74t-49.5 -64.5t-23 -35.5q-3 -13 -8.5 -36.5t-16.5 -46t-29.5 -39t-48.5 -16.5q-24 0 -46 4t-39 14.5t-27.5 28.5t-10.5 46z" />
<glyph unicode="y" horiz-adv-x="1212" d="M85 945q0 24 9 44t24.5 34.5t35.5 22.5t42 8q21 0 33 -7t20.5 -19t14 -27.5t13.5 -33.5q23 -54 50.5 -116t57 -125.5t59 -126t56 -117.5t49 -100.5t37.5 -74.5l399 691q31 51 79 80t99 29q13 0 24 -6.5t19 -17t12 -22.5t4 -22q0 -16 -4.5 -28t-17.5 -31t-36 -49.5 t-59.5 -84t-89 -135t-123.5 -201.5l-250 -457q-33 -57 -67 -125.5t-61.5 -134t-45 -121.5t-17.5 -87q0 -19 -6.5 -39.5t-18.5 -37.5t-28.5 -28t-36.5 -11q-17 0 -40 10t-44 25.5t-36 34.5t-15 37q0 25 10.5 64t28.5 85t42.5 95t52.5 94l119 206q-26 46 -59 109.5t-68.5 134 t-71 143t-67 138t-57 118.5t-40.5 85q-17 35 -24 59t-7 38z" />
<glyph unicode="z" horiz-adv-x="1096" d="M55 960q0 13 3.5 32t11.5 36.5t21 30t31 12.5h419q31 0 60.5 3t59.5 6.5t61 6.5t64 3q27 0 44 -14.5t27.5 -35t14.5 -43.5t4 -41q0 -66 -25 -128t-62 -121.5t-79.5 -116.5t-76.5 -113l-185 -278q-4 -5 -4 -12q0 -12 13.5 -18.5t36 -8.5t50.5 -2h57q38 0 79.5 3t83 10.5 t82.5 21t78 34.5q14 8 28 8q21 0 37.5 -16t27.5 -39t17 -48t6 -42q0 -19 -8 -38t-23.5 -34.5t-37.5 -25t-50 -9.5q-20 0 -36.5 2.5t-31.5 5t-29.5 5t-30.5 2.5q-52 0 -97 -1t-88.5 -2.5t-88.5 -2.5t-97 -1q-38 0 -78.5 1.5t-73.5 12t-54.5 32.5t-21.5 63q0 15 27 58.5 t67.5 104.5t87.5 134.5t86 149.5q5 10 27 39t51.5 71.5t62.5 96t60 113.5q2 6 2 9q0 11 -13.5 20t-40.5 9q-55 0 -110 -4t-110.5 -9.5t-112.5 -9.5t-115 -4q-20 0 -39 2.5t-34.5 11t-25 25t-9.5 43.5z" />
<glyph unicode="{" horiz-adv-x="902" d="M139 617q0 33 7 55t17.5 37t21.5 24.5t20 18.5q42 42 76 64.5t58 41t37 41t13 63.5q0 34 -7 75.5t-15 83.5t-15 80.5t-7 68.5q0 44 17 83t51 68t85 45.5t119 16.5q22 0 43 -3.5t37.5 -12t26.5 -22t10 -32.5q0 -33 -14.5 -50.5t-37.5 -26.5t-50.5 -12.5t-53.5 -9.5 q-29 -6 -34.5 -22.5t-5.5 -30.5q0 -16 3 -43t8 -60.5t10.5 -71.5t10.5 -76t8 -72.5t3 -61.5q0 -38 -26 -69.5t-62.5 -57.5t-75.5 -49t-64 -45q45 -30 88.5 -53.5t77 -50t54.5 -60t21 -82.5q0 -42 -8.5 -89.5t-18.5 -94.5t-18.5 -89t-8.5 -72q0 -31 4 -48.5t14 -26.5 t26.5 -13t42.5 -7q25 -3 45 -7.5t34.5 -13t22.5 -23t8 -37.5q0 -21 -10.5 -36t-26 -24.5t-35 -14.5t-37.5 -5q-77 0 -131 10t-88.5 31.5t-50.5 55t-16 80.5q0 34 10 83t22.5 105.5t22.5 117t10 118.5q0 26 -14 47.5t-35.5 39.5t-47.5 33t-50 29q-10 -7 -30 -8.5t-40.5 5 t-35.5 21.5t-15 41z" />
<glyph unicode="|" horiz-adv-x="886" d="M345 553q0 27 0.5 78t1.5 118t3 145t4.5 158.5t6 159t7.5 147t9 121.5t11 83q1 6 8 20.5t19 30t29 27t40 11.5q43 0 60.5 -27.5t17.5 -69.5q0 -19 -2.5 -79.5t-6 -148t-8 -194t-8 -216t-6 -214t-2.5 -188.5q0 -52 3 -131.5t8 -171.5t10.5 -189t10.5 -183t8 -153.5 t3 -100.5q0 -49 -24.5 -74.5t-55.5 -25.5q-61 0 -95.5 25.5t-37.5 91.5q-1 26 -2.5 73.5t-2.5 109t-2.5 133.5t-2.5 146.5t-1.5 148t-1 138t-1 117t-0.5 84.5z" />
<glyph unicode="}" horiz-adv-x="889" d="M155 1413q0 19 10 32.5t26.5 22t37.5 12t43 3.5q68 0 119 -16.5t85 -45.5t51 -68t17 -83q0 -30 -7 -68.5t-15 -80.5t-15 -83.5t-7 -75.5q0 -41 12.5 -68t36.5 -45.5t59 -32t81 -26.5q13 -4 25 -10t21.5 -17t15 -28.5t5.5 -42.5q0 -40 -20.5 -65t-50.5 -43t-66 -32.5 t-66 -32.5t-50.5 -43.5t-20.5 -66.5q0 -58 11 -116t24 -111.5t24 -100.5t11 -81q0 -95 -69 -143.5t-222 -48.5q-18 0 -35 2t-30 8.5t-21 18.5t-8 33q0 23 8 37.5t22.5 23t34.5 13t45 7.5t42 7t27 13t14 26.5t4 48.5q0 30 -11.5 79t-25.5 104.5t-25.5 110.5t-11.5 97 q0 49 20.5 89.5t56.5 74t85 62t107 54.5q-34 4 -73.5 19.5t-73 41t-56 58.5t-22.5 71q0 40 2.5 92t6 102.5t6 93.5t2.5 66q0 7 -3 17t-9.5 20.5t-16.5 19t-25 11.5q-27 -5 -53 -5t-45.5 8.5t-31.5 28t-12 52.5z" />
<glyph unicode="~" horiz-adv-x="1310" d="M182 610q0 72 38.5 121t95 79t120 43t114.5 13q42 0 74 -22t62 -49t62.5 -49t75.5 -22q34 0 63.5 6.5t57 15t55 15t57.5 6.5q29 0 43.5 -11t20.5 -26.5t6 -33.5v-32t-4 -32t-23 -32q-25 -18 -66 -31t-84.5 -22t-84 -13t-63.5 -4q-45 0 -79 10.5t-61.5 26.5t-50 34.5 t-44 34.5t-44.5 26.5t-51 10.5q-38 0 -65.5 -21t-51 -45.5t-48 -45.5t-56.5 -21q-69 0 -69 70z" />
<glyph unicode="&#xa1;" horiz-adv-x="628" d="M153 35q0 34 1 96.5t4.5 155.5t11 219t21.5 287q0 13 2 35t6.5 48t11.5 52t17.5 47.5t25 35t33.5 13.5q20 0 36 -7.5t27.5 -20t17.5 -28.5t6 -32q0 -60 -3 -127.5t-8 -139.5q-5 -85 -10 -168t-5 -156q0 -35 6 -75t11 -77q5 -36 9 -73t4 -74q0 -27 -8 -51t-22.5 -42 t-33.5 -28.5t-41 -10.5q-120 0 -120 121zM202 1320q0 15 2.5 31.5t11 31t25.5 24t46 9.5q80 0 112 -41.5t32 -117.5q0 -27 -10.5 -46.5t-28 -32.5t-39.5 -19.5t-45 -6.5q-35 0 -56 14.5t-32 38.5t-14.5 54t-3.5 61z" />
<glyph unicode="&#xa2;" horiz-adv-x="1341" d="M180 590q0 117 29.5 222.5t87 190.5t143 144.5t196.5 84.5q4 45 9 82t11 60q1 5 7.5 16.5t18.5 23.5t29 21t38 9q39 0 62 -23t23 -55q0 -14 -2 -46t-6 -77q44 -9 97 -34t99 -62.5t77 -84.5t31 -101q0 -14 -7 -28t-18.5 -25t-26.5 -18t-32 -7q-25 0 -47 15t-36 50 q-20 54 -60 82.5t-91 38.5q-4 -50 -7.5 -102.5t-6 -105.5t-4 -105t-1.5 -99q0 -27 1.5 -64t4 -79.5t6 -89t7.5 -93.5h39q26 0 52 5t56 25q35 16 54 27t36 11q12 0 31 -6t37 -20t31 -36t13 -54q0 -17 -11.5 -34.5t-28.5 -31.5t-36 -23t-34 -9q-73 0 -127 -4.5t-100 -9.5 q5 -59 8 -106t3 -71q0 -37 -23.5 -60t-55.5 -23q-58 0 -92.5 22t-38.5 73q-2 23 -3 64.5t-3 95.5q-91 7 -171 32.5t-139.5 75.5t-94 127.5t-34.5 188.5zM361 646q0 -76 17.5 -129t50.5 -88.5t80.5 -55t106.5 -29.5q-1 52 -1.5 103t-1 96.5t-0.5 82.5v61q0 22 0.5 60.5t2 88 t3.5 106t5 113.5q-62 -22 -111 -64.5t-83 -97t-51.5 -118.5t-17.5 -129z" />
<glyph unicode="&#xa3;" horiz-adv-x="1357" d="M200 92q0 18 6.5 35.5t15.5 32t19 24.5t17 13q55 22 90.5 56t55 77t27 94t7.5 108v40l-115 -13q-20 -2 -37 6t-29.5 21.5t-20 29.5t-7.5 31q0 19 7.5 36.5t20.5 30.5t30 20.5t36 7.5l120 -3q2 8 2 15.5v12.5q0 6 2.5 24.5t6.5 43.5t9 53t10 53.5t8.5 44t5.5 25.5 q10 37 25.5 72t33 65t37 54.5t38.5 41.5q21 19 59 37.5t82 33.5t88.5 24.5t80.5 9.5q15 0 41.5 -4t58 -12.5t63.5 -22t58.5 -31.5t43 -41t16.5 -51q0 -9 -1.5 -24t-7 -28.5t-16 -23.5t-29.5 -10q-12 0 -25 6.5t-25.5 14.5t-23 16t-16.5 11q-15 7 -27.5 13t-28 9.5t-36.5 5.5 t-51 2q-29 0 -63 -13.5t-64 -31.5t-52.5 -35t-27.5 -23q-44 -56 -58.5 -138.5t-15.5 -196.5q20 0 37.5 -1t34.5 -1q34 0 64.5 0.5t60.5 1t62.5 1t70.5 0.5q13 0 27.5 -3.5t26.5 -12.5t19.5 -25.5t7.5 -42.5q0 -36 -13.5 -56t-32.5 -29.5t-39.5 -11.5t-35.5 -2q-20 0 -33.5 1 t-27.5 3q-56 5 -113 9t-114 4q-6 0 -8 -5t-2 -12t1 -14t1 -11q0 -101 -19.5 -189t-74.5 -155h176q69 0 133.5 3t118 7t93 7t58.5 3q57 0 75.5 -28t18.5 -79q0 -13 -4 -30.5t-13.5 -32.5t-25 -25.5t-38.5 -10.5l-321 7q-48 1 -109 0t-128.5 -3t-138.5 -4t-138 -2 q-29 0 -48.5 7t-31 19.5t-16.5 29t-5 34.5z" />
<glyph unicode="&#xa4;" horiz-adv-x="1547" d="M100 121q0 21 5 36.5t12.5 27.5t17 20.5t17.5 16.5q18 17 37.5 39.5t40.5 47.5t43 49.5t46 45.5q-39 63 -60.5 129.5t-21.5 131.5q0 98 20 176t57 140q-24 23 -45.5 51.5t-39.5 55.5t-33 50t-26 36q-16 17 -28.5 38.5t-12.5 60.5q0 13 8 29.5t20.5 30t27 23t26.5 9.5 q29 0 58.5 -21t60 -54t63 -74t68.5 -81q77 51 168 74t186 23q83 0 153.5 -18t130.5 -53q30 32 66.5 67t72.5 64.5t66.5 48.5t48.5 19q21 0 38 -12.5t29.5 -31.5t19.5 -41.5t7 -43.5q0 -19 -5 -41q-1 -3 -13.5 -14.5t-31 -27.5t-40.5 -34.5t-41 -34.5t-33 -27.5t-17 -14.5 q-5 -5 -8.5 -10t-6.5 -10q49 -73 74.5 -167.5t25.5 -208.5q0 -85 -24 -159t-67 -136q31 -32 63.5 -69t58.5 -71t42.5 -60.5t17.5 -36.5q1 -6 1 -11v-10q0 -47 -23 -63.5t-67 -20.5q-17 0 -45 18.5t-60.5 47.5t-66 64.5t-61.5 70.5q-69 -48 -150 -73t-166 -25 q-97 0 -185.5 37t-161.5 99q-30 -34 -66.5 -69t-70.5 -64t-61 -48.5t-39 -22.5q-15 -4 -32 -4q-38 0 -63 23t-25 63zM410 690q0 -62 22.5 -123.5t60.5 -116.5q33 -14 39 -49q53 -58 118 -93.5t134 -35.5q76 0 147.5 26t126 76t87.5 122t33 164q0 90 -24.5 164.5t-67.5 127.5 t-103 82.5t-130 29.5q-78 0 -157 -24t-142.5 -71t-103.5 -117t-40 -162z" />
<glyph unicode="&#xa5;" horiz-adv-x="1290" d="M147 1220q0 15 8 30t20 27t26.5 19.5t28.5 7.5q15 0 25.5 -2t19.5 -7t16.5 -13.5t15.5 -22.5q11 -19 37 -56t59.5 -83t72 -96.5t74 -95.5t66 -81t49.5 -52q94 125 183.5 243t172.5 221q16 19 29.5 35.5t28 27.5t30.5 17.5t36 6.5q26 0 46 -19.5t20 -45.5q0 -4 -2 -11.5 t-4.5 -16t-5 -15t-3.5 -8.5q-39 -68 -82 -126.5t-89.5 -119t-96.5 -128.5t-104 -155q36 5 71.5 10t65.5 5q27 0 50.5 -3t40.5 -13t27 -30.5t10 -54.5q0 -22 -10 -37t-25 -24t-32.5 -12.5t-32.5 -3.5q-55 0 -101.5 7t-94.5 7h-27l3 -122q32 2 61 3.5t55 1.5q59 0 95.5 -5 t57 -16t28 -29.5t7.5 -45.5q0 -33 -7 -52.5t-22.5 -29t-41.5 -12.5t-64 -3q-32 0 -76.5 4t-84.5 8q2 -45 3.5 -86t1.5 -73q0 -24 -7 -42.5t-18.5 -31.5t-26 -19.5t-29.5 -6.5q-60 0 -94 26t-38 92q-2 28 -3 62.5t-2 73.5q-30 -3 -61.5 -5.5t-61.5 -4.5t-57 -3.5t-48 -1.5 q-29 0 -45.5 10t-24.5 24.5t-10.5 31.5t-2.5 32q0 13 6 28t18.5 27.5t31 20.5t43.5 8q47 0 100.5 1.5t110.5 3.5v114q-54 -6 -100.5 -11t-87.5 -5q-10 0 -36 3t-53 12.5t-48 28t-21 48.5q0 15 6.5 32t17.5 32t25 25t29 10h4q3 0 13.5 -2t23.5 -4t24.5 -3.5t17.5 -1.5h125 q-25 34 -61.5 76.5t-76 89.5t-78.5 95.5t-70 95.5t-50.5 89t-19.5 75z" />
<glyph unicode="&#xa6;" horiz-adv-x="886" d="M355 764q0 4 0.5 23t0.5 64.5t0.5 125t0.5 204.5q0 96 7 198t22 190q1 7 8 21t19 27t29 23t39 10q42 0 63.5 -24t21.5 -59q0 -46 -3.5 -100t-8 -109.5t-8 -108.5t-3.5 -96q0 -35 2 -83t4.5 -100t4.5 -104.5t2 -95.5t-24.5 -66t-54.5 -23q-57 0 -89.5 21.5t-32.5 61.5z M356 113q0 69 4 136t17 129q1 7 8 21t19 27t29 23t39 10q42 0 59.5 -24t17.5 -59q0 -46 -1 -101t-1.5 -111.5t-1.5 -110t-1 -97.5q0 -35 6 -81.5t13 -98t13 -103t6 -94.5t-24.5 -66t-54.5 -23q-61 0 -96.5 21.5t-35.5 61.5q0 4 -2.5 27.5t-5 82t-5 162t-2.5 268.5z" />
<glyph unicode="&#xa7;" horiz-adv-x="1212" d="M145 1103q0 54 24.5 96.5t65 75t91.5 55.5t104 37.5t103.5 21t88.5 6.5q30 0 67.5 -2t76.5 -9t76.5 -20t66.5 -34t46.5 -52t17.5 -74q0 -9 -4.5 -22.5t-13.5 -26.5t-21.5 -22t-28.5 -9q-13 0 -26.5 7t-30.5 21q-23 19 -46.5 32.5t-53 22.5t-66.5 13t-88 4 q-54 0 -102 -14.5t-84.5 -34.5t-57.5 -40t-21 -32q0 -20 10 -32.5t31 -21t54.5 -15.5t81.5 -17q31 -6 82 -16t109.5 -27.5t117.5 -44t107 -67.5t78.5 -97.5t30.5 -132.5q0 -44 -19.5 -86t-52 -77.5t-75 -62.5t-89.5 -41q60 -12 107 -31.5t79.5 -48.5t49 -68.5t16.5 -91.5 q0 -54 -25.5 -96.5t-67 -75t-94.5 -55.5t-108 -37.5t-107 -21.5t-92 -7q-29 0 -69 2.5t-83 9.5t-84.5 20t-74.5 34.5t-53.5 52t-20.5 72.5q0 13 5 30.5t16 33.5t29 27t45 11q12 0 24 -9t28 -22t37.5 -28.5t52.5 -28.5t74 -22t101 -9t109.5 14.5t90.5 35t61.5 43.5t22.5 40 q0 42 -57.5 61t-163.5 34q-30 4 -78 12t-103 24t-110.5 41t-100.5 63.5t-73 92t-28 126.5q0 46 17 90t49.5 82t79.5 69t108 52q-53 6 -100.5 22.5t-82.5 43.5t-55.5 65t-20.5 86zM338 590q0 -48 24 -79.5t62 -50t85.5 -26t94.5 -7.5q36 0 78 18t78 48t59.5 68t23.5 77 q0 47 -22 78.5t-59 50t-84 26t-96 7.5q-39 0 -82 -18t-79 -48t-59.5 -67.5t-23.5 -76.5z" />
<glyph unicode="&#xa8;" horiz-adv-x="1259" d="M237 1333q0 23 16.5 43.5t40 36t50 24.5t46.5 9q7 0 20.5 -9t26.5 -26.5t23 -43t10 -59.5q0 -31 -7.5 -53.5t-20.5 -37.5t-29 -22.5t-32 -7.5q-69 0 -106.5 32t-37.5 114zM744 1304q0 55 29 91.5t87 36.5q22 0 43.5 -12t38.5 -30.5t27 -41.5t10 -44q0 -22 -10 -43 t-27 -37.5t-38.5 -26.5t-43.5 -10q-58 0 -87 28.5t-29 88.5z" />
<glyph unicode="&#xa9;" horiz-adv-x="1760" d="M144 685q0 130 28.5 234t79.5 183t120 135t150.5 92t171 52.5t180.5 16.5q159 0 285 -51.5t213.5 -147.5t134.5 -234.5t47 -312.5q0 -101 -26.5 -190.5t-74 -164.5t-112.5 -135t-142.5 -102t-163.5 -64t-175 -22q-141 0 -248.5 32.5t-187 88t-133.5 127.5t-86.5 151 t-46.5 159.5t-14 152.5zM299 722q0 -126 36.5 -236.5t105.5 -193t168.5 -130t225.5 -47.5q112 0 213 37.5t177.5 109.5t122 177.5t45.5 241.5q0 132 -35 238.5t-98 182.5t-150.5 117t-192.5 41q-135 0 -248.5 -33t-195.5 -100t-128 -168t-46 -237zM484 600q0 33 5 70 t13 74.5t18.5 73t21.5 67.5q15 41 43 84t67.5 78.5t90.5 58t112 22.5q54 0 107.5 -17t96.5 -50t69.5 -80.5t26.5 -108.5q0 -13 -3 -30.5t-11 -33.5t-23.5 -27.5t-40.5 -11.5q-29 0 -45 12t-23.5 31.5t-8.5 42.5t-1 46q0 12 -16 22.5t-38.5 19t-45.5 13.5t-38 5 q-42 0 -73.5 -20.5t-55 -53t-39.5 -73t-26 -81t-14 -77t-4 -60.5q0 -42 18.5 -75.5t49 -57t69.5 -36t79 -12.5q20 0 44 -0.5t49 2.5t49.5 10t45.5 22q7 5 14 11.5t14.5 12t17 9.5t23.5 4q18 0 33.5 -7.5t26.5 -19.5t17.5 -27.5t6.5 -31.5q0 -10 -5.5 -21.5t-12.5 -22.5 q-8 -12 -18 -25q-24 -19 -58 -33t-73 -23.5t-81 -14t-82 -4.5q-47 0 -95 6t-91.5 21t-81 40t-65 63t-43.5 91t-16 123z" />
<glyph unicode="&#xaa;" horiz-adv-x="1559" d="M272 1197q0 28 19 49t51 35.5t72.5 23.5t83 14t84 7t75.5 2q83 0 157 -29.5t129.5 -82t87.5 -123.5t32 -155v-259q5 -25 14.5 -32t19.5 -7q12 0 17 9q11 11 22.5 20.5t36.5 9.5q39 0 60 -19.5t21 -62.5q0 -26 -13 -49t-35.5 -40t-52 -27t-62.5 -10q-68 0 -115 23t-73 71 q-25 -24 -53.5 -44.5t-63.5 -35t-78.5 -23t-98.5 -8.5q-76 0 -136.5 21.5t-103 59t-65 88.5t-22.5 110q0 69 19 123t62.5 91.5t113 57.5t171.5 20q71 0 131 -13t109 -37q-11 68 -45 106.5t-73 57.5t-73.5 23.5t-46.5 4.5q-32 0 -62 -3t-55 -7t-43 -9t-27 -8 q-3 -1 -11.5 -5.5t-16.5 -8.5v1q-15 -9 -30.5 -16t-35.5 -7q-51 0 -74 20.5t-23 72.5zM462 740q0 -24 10.5 -47t31.5 -42t52 -30.5t72 -11.5q36 0 62 7.5t45 19.5t32.5 26.5t25.5 28.5l16 17q27 32 76 43q-9 30 -31 52t-52.5 36.5t-66 21.5t-70.5 7q-95 0 -149 -28.5 t-54 -99.5zM538 182q0 68 39.5 98t103.5 30q17 0 46.5 -7t58 -22t49.5 -38.5t21 -55.5q0 -12 -14.5 -30.5t-36.5 -35.5t-49 -29.5t-51 -12.5q-28 0 -57.5 4t-54 15t-40 31.5t-15.5 52.5z" />
<glyph unicode="&#xab;" horiz-adv-x="1450" d="M90 506q0 44 27.5 89t66.5 86.5t81.5 78.5t72.5 65q38 35 81 77.5t81 79.5t65.5 62t34.5 25q12 0 25.5 -3.5t25 -11.5t19 -21.5t7.5 -32.5q0 -35 -26.5 -78t-67 -89t-87 -92t-87 -87t-67 -74t-26.5 -52q0 -11 29.5 -35.5t73.5 -57.5t95.5 -73t95.5 -82t73.5 -83t29.5 -76 q0 -31 -10 -49t-25.5 -27t-33.5 -11.5t-33 -2.5q-19 0 -45 16t-55.5 41.5t-61.5 57t-63 61t-60.5 54.5t-54.5 38q-30 17 -62.5 38.5t-58.5 47t-43 56t-17 65.5zM608 541q0 36 16 66t32 52q83 73 153 133q29 25 58 50.5t53.5 46.5t41.5 36t23 20q18 16 36 36.5t35.5 38.5 t33.5 30t30 12q62 0 83 -25.5t21 -75.5q0 -24 -8 -44t-19.5 -35t-22.5 -25.5t-17 -15.5q-38 -30 -81.5 -59.5t-85.5 -62t-80 -70t-63 -84.5q12 -9 42.5 -34.5t75.5 -67t102.5 -97.5t122.5 -127q8 -9 17.5 -23.5t18 -30.5t14 -30t5.5 -21q0 -15 -7 -32.5t-20 -32.5t-32 -25 t-43 -10q-14 0 -25.5 8.5t-22.5 20t-21 24.5t-20 22q-23 22 -54 53t-65.5 64t-70.5 66.5t-69 60.5t-60.5 45t-44.5 21q-21 4 -36.5 10.5t-25.5 20t-15 35t-5 56.5z" />
<glyph unicode="&#xac;" horiz-adv-x="1460" d="M155 780q0 30 14 46.5t46 24.5t85.5 9.5t132.5 1.5q63 0 108.5 -1.5t81.5 -4t66.5 -5t65 -5t76.5 -4t101 -1.5q26 0 55 3.5t64 8t77 8t95 3.5q17 0 28.5 -7t19 -17.5t11 -22.5t3.5 -21q0 -36 -1.5 -70t-3.5 -68t-3.5 -69.5t-1.5 -75.5q0 -43 4.5 -72t10.5 -52t10.5 -45 t4.5 -50q0 -20 -10 -39.5t-25 -35.5t-34 -26t-37 -10q-20 0 -38.5 7.5t-33 20.5t-23.5 30.5t-9 37.5q0 42 7.5 80t7.5 76q0 16 -1 39t-2 49l-2 52t-1 47q0 20 -5.5 32t-22.5 12q-78 1 -137 2.5t-107 3t-91 3t-89 2.5t-100 2t-125 1q-38 0 -79 -2t-81 -2q-22 0 -42.5 8.5 t-36 23t-24.5 33.5t-9 39z" />
<glyph unicode="&#xad;" horiz-adv-x="1081" />
<glyph unicode="&#xae;" horiz-adv-x="1760" d="M134 685q0 130 28.5 234t79.5 183t120 135t150.5 92t171 52.5t180.5 16.5q159 0 285 -51.5t213.5 -147.5t134.5 -234.5t47 -312.5q0 -170 -58 -297t-155 -212t-222 -127t-259 -42q-141 0 -248.5 32.5t-187 88t-133.5 127.5t-86.5 151t-46.5 159.5t-14 152.5zM289 722 q0 -126 36.5 -236.5t105.5 -193t168.5 -130t225.5 -47.5q112 0 213 32t177.5 100t122 175.5t45.5 258.5q0 132 -35 238.5t-98 182.5t-150.5 117t-192.5 41q-135 0 -248.5 -33t-195.5 -100t-128 -168t-46 -237zM513 789q0 23 0.5 51t4 58t10.5 59.5t20 56.5q68 61 150.5 98 t174.5 37q44 0 89.5 -11t83 -36t61.5 -67t24 -103q0 -30 -13 -57.5t-33 -50.5t-45 -40.5t-49 -27.5q71 -3 115 -33t68.5 -82t33 -122.5t8.5 -153.5q0 -18 -9.5 -33t-23 -26.5t-28 -17.5t-24.5 -6q-31 0 -50.5 8.5t-31 23.5t-15.5 35.5t-4 44.5q0 6 4.5 21t4.5 39 q0 44 -10.5 80.5t-33 63t-56.5 41t-82 14.5q-3 0 -18 -0.5t-37.5 -4t-49.5 -10.5t-53 -19q0 -27 4 -57t9 -61t9 -61.5t4 -60.5q0 -47 -29 -71t-69 -24q-18 0 -35 10t-30.5 24t-21.5 29t-8 25q0 18 3 35t3 37q0 41 -4 84.5t-8.5 87.5t-8.5 87.5t-4 85.5zM682 825.5 q0 -31.5 2 -54.5q28 6 73.5 21t89.5 36t76 46t32 51q0 21 -7.5 34.5t-20 21t-28 10.5t-30.5 3q-26 0 -58 -9.5t-61 -25t-48.5 -35.5t-19.5 -42v-56.5z" />
<glyph unicode="&#xaf;" horiz-adv-x="1286" d="M180 1355q0 18 7 37t19 35.5t27 27.5t30 11q26 1 74.5 0.5t109.5 -2t131 -3l140 -3t135.5 -2.5t117.5 -1q37 0 62.5 -23.5t25.5 -80.5q0 -35 -9 -53.5t-23 -27t-32.5 -10t-37.5 -1.5h-678q-24 0 -42.5 9.5t-31 24t-19 31t-6.5 31.5z" />
<glyph unicode="&#xb0;" horiz-adv-x="790" d="M129 1060q0 25 8.5 58t25 67t41 66.5t55 58t68 41t80.5 15.5q20 0 52 -3t68 -11.5t73 -24t67 -41.5t48.5 -63.5t18.5 -89.5q0 -60 -21 -126t-60 -120.5t-95.5 -90.5t-126.5 -36q-75 0 -132 21t-94.5 60t-56.5 94.5t-19 124.5zM309 1062q0 -72 37.5 -108t109.5 -36 q22 0 43 22t37 53t25.5 65.5t9.5 60.5q0 22 -19 41t-45.5 32t-55 20.5t-46.5 7.5q-17 0 -34 -15.5t-31 -39.5t-22.5 -51.5t-8.5 -51.5z" />
<glyph unicode="&#xb1;" horiz-adv-x="1185" d="M212 876q0 36 10.5 60t28.5 38.5t43 20t54 5.5q18 0 40 -3.5t44.5 -8t44 -8t37.5 -3.5v110q3 32 8 62.5t16.5 54t33.5 37.5t60 14q28 0 43 -7t22 -19.5t8 -29.5t1 -37q0 -18 -5.5 -50.5t-5.5 -68.5q0 -31 7 -56q25 1 52 6t51.5 11t43 11t26.5 5q34 0 53.5 -10t29.5 -25 t12.5 -33t2.5 -35q0 -37 -14 -58t-36.5 -31.5t-51.5 -13.5t-60 -2.5t-61 0.5t-54 -4q0 -26 5.5 -53.5t5.5 -59.5q0 -57 -10 -89t-27 -48.5t-39 -20.5t-47 -4q-45 0 -67.5 16t-22.5 69q0 18 3 42t7 49.5t7 49.5t3 42h-225q-34 0 -55.5 23.5t-21.5 51.5zM241 249q0 28 7 46 t24.5 28.5t45.5 15t70 4.5q107 0 228.5 6t242.5 6q42 0 66 -25t24 -68q0 -24 -12.5 -43t-30 -31.5t-36 -19t-30.5 -6.5q-38 0 -76.5 3t-74 7t-67 7t-56.5 3q-29 0 -54 -2t-51 -5t-54.5 -5t-63.5 -2q-20 0 -38 2.5t-32.5 11t-23 24.5t-8.5 43z" />
<glyph unicode="&#xb2;" horiz-adv-x="1145" d="M167 1306q0 47 27 84.5t73.5 63.5t109.5 39.5t135 13.5q82 0 145.5 -16t106.5 -44.5t65 -69.5t22 -90q0 -36 -13 -75.5t-36.5 -85t-56 -98t-70.5 -115.5l-169 -278q-4 -5 -4 -12q0 -10 8.5 -16t23.5 -9t34.5 -3.5t41.5 -0.5q62 0 128.5 6.5t128.5 37.5q7 3 14 5.5t14 2.5 q21 0 37.5 -13.5t27.5 -32.5t17 -39.5t6 -34.5q0 -19 -8 -38t-23.5 -34.5t-37.5 -25t-50 -9.5q-20 0 -36.5 2.5t-31.5 5t-29.5 5t-30.5 2.5q-35 0 -67 -1t-63 -2.5t-63 -2.5t-68 -1q-38 0 -78.5 1.5t-73.5 12t-54.5 32.5t-21.5 63q0 15 25.5 58.5t63.5 104.5t83.5 134.5 t84.5 149.5q12 24 35 57t45 70t38.5 74t16.5 69q0 19 -7.5 35t-25.5 28t-47.5 18.5t-72.5 6.5q-37 0 -59 -9.5t-37 -23.5t-26 -30t-25 -30t-35 -23.5t-55 -9.5q-39 0 -60.5 18t-21.5 73z" />
<glyph unicode="&#xb3;" horiz-adv-x="1100" d="M123 507q0 11 4.5 30.5t13.5 38.5t23 33t34 14q37 0 57 -8t36 -17t36 -17t59 -8q58 0 120.5 4.5t114.5 22t85.5 53t33.5 98.5q0 35 -14.5 57.5t-38.5 35t-56 17.5t-67 5q-16 0 -33 -6t-35.5 -12.5t-38 -12.5t-40.5 -6q-52 0 -80 17.5t-28 54.5q0 40 20 67t51.5 45 t70.5 29.5t76 20.5q27 22 58 51t56.5 63t42.5 71t17 75q0 4 -10 6.5t-24 3.5t-28.5 1h-23.5q-24 0 -51.5 -3.5t-54.5 -10t-52 -15.5t-44 -19q-10 -7 -18.5 -15t-18.5 -15t-21 -11.5t-25 -4.5t-30 5.5t-30 15.5t-23 22.5t-9 27.5q0 35 22.5 63.5t58.5 50t81 36.5t90 24.5 t85.5 14t67.5 4.5q116 0 178.5 -47.5t62.5 -152.5q0 -21 -11 -55t-32 -72.5t-52 -78.5t-71 -74q34 -14 70.5 -38t67 -57t50.5 -75t20 -92q0 -120 -48 -190t-140 -105.5t-225 -45.5t-302 -10q-28 0 -45 9.5t-26.5 24t-13 31t-3.5 31.5z" />
<glyph unicode="&#xb4;" horiz-adv-x="822" d="M165 1274q0 23 17 45t39.5 42t43.5 38t29 34q7 10 22.5 30t35.5 45t42.5 51.5t44.5 48.5t41 36t31 14q19 0 37 -2t32.5 -13t23 -35t8.5 -69q0 -11 -20.5 -40.5t-53 -68t-74 -80.5t-83 -77t-80 -58t-65.5 -23t-41 4.5t-21 14.5t-8 25.5t-1 37.5z" />
<glyph unicode="&#xb5;" horiz-adv-x="1386" d="M178 615q0 46 3 104.5t9.5 117.5t16.5 112.5t24 90.5q10 27 34.5 44.5t64.5 17.5q36 0 57.5 -26t21.5 -62q0 -6 -8 -32.5t-17.5 -74t-17.5 -114t-8 -151.5q0 -33 3.5 -81t13.5 -100.5t28 -105t48.5 -94.5t74.5 -68t105 -26q47 0 89 16t78.5 41.5t67.5 57.5t56 64t44 60 t32 47q5 51 8 91t5 73.5t2.5 63t0.5 58.5q0 42 -0.5 88.5t-0.5 110.5v119q0 21 9.5 35t23.5 23t31 12.5t31 3.5q12 0 26 -4t26 -12t20 -21.5t8 -31.5l-2 -949q0 -51 -20 -68.5t-61 -17.5q-37 0 -57.5 5.5t-30 20.5t-11.5 41t-2 67v68q-26 -47 -58.5 -89.5t-75.5 -74.5 t-99 -51t-128 -19q-117 0 -197.5 39.5t-132.5 102.5q7 -33 16.5 -84.5t18.5 -112t15 -124.5t6 -121q0 -66 -20.5 -107.5t-70.5 -41.5q-20 0 -36 8t-27 20.5t-17.5 28t-6.5 30.5v699q-3 36 -5.5 75.5t-4 78t-2.5 72t-1 57.5z" />
<glyph unicode="&#xb6;" horiz-adv-x="1551" d="M150 905q0 96 41 181t121 148.5t197.5 101t270.5 40.5q11 13 27.5 20.5t38.5 7.5q61 0 81 -58q38 -17 75.5 -37.5t74.5 -40.5q28 14 55.5 13.5t49 -14t34.5 -39.5t13 -63v-672q0 -9 -1 -37t-1 -58v-248q0 -48 -1 -98.5t-1 -92.5q0 -36 -8.5 -60t-23 -39t-34.5 -21t-43 -6 q-39 0 -66 20.5t-27 60.5q0 20 2 42t7 51q6 50 10.5 112t2.5 127l2 284q0 14 1 38t3 49q0 25 1 52t2 51t2 43t1 28q0 106 -1 164.5t-1 87.5v23q-3 18 -13.5 33.5t-26 28.5t-35.5 24t-42 19q0 -52 -0.5 -108.5t-1 -112.5t-1 -108.5t-1 -96t-0.5 -75.5v-46q0 -135 -8.5 -256 t-13.5 -213q-2 -35 -3.5 -60t-3.5 -42.5t-4 -30t-4 -22.5q-8 -40 -17.5 -78.5t-27 -68.5t-45.5 -48t-73 -18q-31 0 -54 17t-30 48.5t7 77.5t57 105q10 57 15 123.5t8 128.5q-142 9 -251.5 54.5t-184 124.5t-113 189t-38.5 250zM340 874q0 -98 31.5 -170t87 -121.5t130 -78 t160.5 -38.5q0 2 0.5 4.5t0.5 4.5l10 722q-97 -4 -175 -25.5t-132.5 -61.5t-83.5 -99t-29 -137z" />
<glyph unicode="&#xb7;" horiz-adv-x="580" d="M150 639q0 22 13 44.5t33.5 40.5t45 29t47.5 11q24 0 49 -5t45.5 -17.5t33.5 -35t13 -56.5q0 -120 -125 -120q-21 0 -47.5 4.5t-50.5 17t-40.5 33.5t-16.5 54z" />
<glyph unicode="&#xb8;" horiz-adv-x="657" d="M55 -443q0 13 3.5 29t11.5 29t20.5 22t30.5 9q13 0 23.5 -5.5t20.5 -10.5q9 -5 25.5 -10t33.5 -9t31.5 -6t19.5 -2q57 0 94 19.5t37 54.5q0 7 -1.5 18t-7 21t-17 17t-31.5 7q-15 0 -39.5 -0.5t-58.5 -14.5q-14 1 -33 6t-36 14t-29 22.5t-12 32.5q0 28 3.5 53.5t8 51 t9.5 52.5t8 57q0 3 6.5 5.5t17 5t23.5 4t26 1.5q29 0 52.5 -5.5t23.5 -12.5q0 -15 -1 -35t-3 -40t-5 -39t-6 -34q14 11 42.5 14t58.5 3q31 0 60.5 -13.5t52.5 -39.5t37 -64t14 -87q0 -59 -22 -102.5t-59.5 -72t-88 -43t-108.5 -14.5q-12 0 -34.5 3.5t-49 10t-53.5 16t-49 22 t-36 27.5t-14 33z" />
<glyph unicode="&#xb9;" horiz-adv-x="639" d="M196 979q0 112 13.5 229.5t33.5 222.5q1 9 7.5 24.5t18 31t27.5 27t37 11.5q45 0 66.5 -28.5t21.5 -67.5q0 -53 -6.5 -116.5t-14 -129t-14 -128.5t-6.5 -114q0 -45 6.5 -102t15 -117t15 -117.5t6.5 -104.5q0 -49 -25 -75.5t-56 -26.5q-60 0 -90 21.5t-41 75.5 q-2 8 -4.5 31t-5 76t-4 143.5t-1.5 233.5z" />
<glyph unicode="&#xba;" horiz-adv-x="1371" d="M238 887q0 121 39 205.5t103 137t145 76.5t165 24q97 0 175 -32t132 -92t83 -145.5t29 -191.5q0 -93 -36 -169.5t-95 -132t-136.5 -86t-159.5 -30.5q-59 0 -115 18.5t-105.5 50.5t-90.5 74.5t-70.5 91t-46 100t-16.5 101.5zM406 905q0 -52 22.5 -104t59 -94t83.5 -68 t96 -26q53 0 102.5 18t87.5 52.5t61 85t23 114.5q0 63 -16.5 115t-46.5 89.5t-71 58t-89 20.5q-55 0 -110.5 -16.5t-100.5 -49.5t-73 -82t-28 -113zM536 182q0 68 39.5 98t103.5 30q17 0 46.5 -7t58 -22t49.5 -38.5t21 -55.5q0 -12 -14.5 -30.5t-36.5 -35.5t-49 -29.5 t-51 -12.5q-28 0 -57.5 4t-54 15t-40 31.5t-15.5 52.5z" />
<glyph unicode="&#xbb;" horiz-adv-x="1456" d="M205 948q0 38 7 61t21.5 35t37 16t53.5 4q14 0 30.5 -13t34 -31.5t36 -39.5t36.5 -37q6 -5 23 -20t41 -36t53 -46.5t59 -50.5q69 -60 153 -133q16 -22 32 -52t16 -66q0 -42 -22 -71t-60 -51q-16 -10 -43 -30.5t-60 -47.5t-69 -58.5t-71 -62.5t-66.5 -60t-54.5 -51 q-10 -9 -20 -22t-21 -24.5t-23 -20t-25 -8.5q-24 0 -42 9.5t-29 23.5t-16.5 31t-5.5 32q0 7 5.5 21t13.5 30t18 30.5t18 23.5q65 71 121 128t99.5 98.5t72.5 68t41 35.5q-26 47 -65 82t-83 64.5t-89.5 56.5t-82.5 57q-6 5 -18.5 16t-24.5 27.5t-21.5 37t-9.5 44.5zM773 987 q0 31 10 49t25.5 27t33.5 11.5t33 2.5q19 0 43.5 -16t52 -41.5t57 -56.5t59 -60.5t57 -55t52.5 -38.5q31 -17 61.5 -38t54.5 -47t39 -56.5t15 -65.5q0 -44 -27.5 -89t-66.5 -86.5t-81.5 -78.5t-72.5 -65q-38 -35 -81 -77.5t-81 -79.5t-65.5 -62t-34.5 -25q-12 0 -25.5 3.5 t-25 11.5t-19 21t-7.5 33q0 35 26.5 78t67 89t87 92t87 87t67 73.5t26.5 52.5q0 11 -27 35.5t-68 57.5t-88.5 73t-88.5 82t-68 82.5t-27 76.5z" />
<glyph unicode="&#xbc;" horiz-adv-x="2378" d="M464 1224q0 112 10.5 229.5t26.5 222.5q1 9 8.5 24.5t20 31t30.5 27t41 11.5q45 0 66.5 -28.5t21.5 -67.5q0 -53 -6.5 -116.5t-14 -129t-14 -128.5t-6.5 -114q0 -45 6.5 -102t15 -117t15 -117.5t6.5 -104.5q0 -49 -25 -75.5t-56 -26.5q-60 0 -90 21.5t-41 75.5 q-2 8 -4.5 31t-5 76t-4 143.5t-1.5 233.5zM532 -24q0 15 4 31.5t14 35.5q16 31 48 90.5t73 133.5t87 156t89 158t79 139.5t58 100.5q18 31 53.5 91t80.5 134t95 154.5t98 154.5t89.5 133t68.5 89q3 3 11.5 9.5t20.5 13t27 11.5t31 5q19 0 33.5 -7t24 -17.5t14.5 -23.5t5 -24 q0 -15 -5.5 -30t-14.5 -31t-37 -60t-68.5 -107t-90 -140.5t-101.5 -159.5t-102.5 -164.5t-92.5 -155.5q-21 -37 -49.5 -89.5t-60 -114t-64.5 -128t-65 -130.5q-47 -93 -79.5 -162t-59 -115t-50.5 -69t-52 -23q-18 0 -38 9.5t-36.5 25t-27 35.5t-10.5 41zM1412 639l5 209 q1 34 25 57.5t72 23.5q25 0 41.5 -12.5t26.5 -33.5t14 -49t4 -60t-2.5 -67.5t-2.5 -63.5q0 -45 13.5 -72t39 -42.5t62.5 -21.5t85 -7l125 -4q2 25 3.5 59t2.5 73t1.5 80.5t0.5 81.5q0 64 -3 115t-3 77q0 52 28 74.5t66 22.5q19 0 35 -9.5t28 -23.5t18.5 -30.5t6.5 -30.5 q0 -137 -1.5 -262.5t-1.5 -259.5q9 -12 15.5 -30t6.5 -35q0 -11 -6.5 -26t-16.5 -26q-2 -25 -3.5 -45t-1.5 -29q0 -41 7.5 -89.5t7.5 -106.5q0 -55 -35.5 -88.5t-87.5 -33.5q-13 0 -27 7.5t-25.5 19.5t-19 27.5t-7.5 30.5l2 281q-53 2 -105.5 4t-105.5 4q-69 3 -123 26.5 t-91 64t-56 96.5t-17 124z" />
<glyph unicode="&#xbd;" horiz-adv-x="2495" d="M464 1224q0 112 10.5 229.5t26.5 222.5q1 9 8.5 24.5t20 31t30.5 27t41 11.5q45 0 66.5 -28.5t21.5 -67.5q0 -53 -6.5 -116.5t-14 -129t-14 -128.5t-6.5 -114q0 -45 6.5 -102t15 -117t15 -117.5t6.5 -104.5q0 -49 -25 -75.5t-56 -26.5q-60 0 -90 21.5t-41 75.5 q-2 8 -4.5 31t-5 76t-4 143.5t-1.5 233.5zM532 -24q0 15 4 31.5t14 35.5q16 31 48 90.5t73 133.5t87 156t89 158t79 139.5t58 100.5q18 31 53.5 91t80.5 134t95 154.5t98 154.5t89.5 133t68.5 89q3 3 11.5 9.5t20.5 13t27 11.5t31 5q19 0 33.5 -7t24 -17.5t14.5 -23.5t5 -24 q0 -15 -5.5 -30t-14.5 -31t-37 -60t-68.5 -107t-90 -140.5t-101.5 -159.5t-102.5 -164.5t-92.5 -155.5q-21 -37 -49.5 -89.5t-60 -114t-64.5 -128t-65 -130.5q-47 -93 -79.5 -162t-59 -115t-50.5 -69t-52 -23q-18 0 -38 9.5t-36.5 25t-27 35.5t-10.5 41zM1424 836 q0 47 27 84.5t73.5 63.5t109.5 39.5t135 13.5q82 0 145.5 -16t106.5 -44.5t65 -69.5t22 -90q0 -36 -13 -75.5t-36.5 -85t-56 -98t-70.5 -115.5l-169 -278q-4 -5 -4 -12q0 -10 8.5 -16t23.5 -9t34.5 -3.5t41.5 -0.5q62 0 128.5 6.5t128.5 37.5q7 3 14 5.5t14 2.5 q21 0 37.5 -13.5t27.5 -32.5t17 -39.5t6 -34.5q0 -19 -8 -38t-23.5 -34.5t-37.5 -25t-50 -9.5q-20 0 -36.5 2.5t-31.5 5t-29.5 5t-30.5 2.5q-35 0 -67 -1t-63 -2.5t-63 -2.5t-68 -1q-38 0 -78.5 1.5t-73.5 12t-54.5 32.5t-21.5 63q0 15 25.5 58.5t63.5 104.5t83.5 134.5 t84.5 149.5q12 24 35 57t45 70t38.5 74t16.5 69q0 19 -7.5 35t-25.5 28t-47.5 18.5t-72.5 6.5q-37 0 -59 -9.5t-37 -23.5t-25.5 -30t-25 -30t-35.5 -23.5t-55 -9.5q-39 0 -60.5 18t-21.5 73z" />
<glyph unicode="&#xbe;" horiz-adv-x="2756" d="M374 609q0 11 4.5 30.5t13.5 38.5t23 33t34 14q37 0 57 -8t36 -17t36 -17t59 -8q58 0 120.5 4.5t114.5 22t85.5 53t33.5 98.5q0 35 -14.5 57.5t-38.5 35t-56 17.5t-67 5q-16 0 -33 -6t-35.5 -12.5t-38 -12.5t-40.5 -6q-52 0 -80 17.5t-28 54.5q0 40 20 67t51.5 45 t70.5 29.5t76 20.5q27 22 58 51t56.5 63t42.5 71t17 75q0 4 -10 6.5t-24 3.5t-28.5 1h-23.5q-24 0 -51.5 -3.5t-54.5 -10t-52 -15.5t-44 -19q-10 -7 -18.5 -15t-18.5 -15t-21 -11.5t-25 -4.5t-30 5.5t-30 15.5t-23 22.5t-9 27.5q0 35 22.5 63.5t58.5 50t81 36.5t90 24.5 t85.5 14t67.5 4.5q116 0 178.5 -47.5t62.5 -152.5q0 -21 -11 -55t-32 -72.5t-52 -78.5t-71 -74q34 -14 70.5 -38t67 -57t50.5 -75t20 -92q0 -120 -48 -190t-140 -105.5t-225 -45.5t-302 -10q-28 0 -45 9.5t-26.5 24t-13 31t-3.5 31.5zM910 -24q0 15 4 31.5t14 35.5 q16 31 48 90.5t73 133.5t87 156t89 158t79 139.5t58 100.5q18 31 53.5 91t80.5 134t95 154.5t98 154.5t89.5 133t68.5 89q3 3 11.5 9.5t20.5 13t27 11.5t31 5q19 0 33.5 -7t24 -17.5t14.5 -23.5t5 -24q0 -15 -5.5 -30t-14.5 -31t-37 -60t-68.5 -107t-90 -140.5 t-101.5 -159.5t-102.5 -164.5t-92.5 -155.5q-21 -37 -49.5 -89.5t-60 -114t-64.5 -128t-65 -130.5q-47 -93 -79.5 -162t-59 -115t-50.5 -69t-52 -23q-18 0 -38 9.5t-36.5 25t-27 35.5t-10.5 41zM1650 324l5 209q1 34 25 57.5t72 23.5q25 0 41.5 -12.5t26.5 -33.5t14 -49 t4 -60t-2.5 -67.5t-2.5 -63.5q0 -45 13.5 -72t39 -42.5t62.5 -21.5t85 -7l125 -4q2 25 3.5 59t2.5 73t1.5 80.5t0.5 81.5q0 64 -3 115t-3 77q0 52 28 74.5t66 22.5q19 0 35 -9.5t28 -23.5t18.5 -30.5t6.5 -30.5q0 -137 -1.5 -262.5t-1.5 -259.5q9 -12 15.5 -30t6.5 -35 q0 -11 -6.5 -26t-16.5 -26q-2 -25 -3.5 -45t-1.5 -29q0 -41 7.5 -89.5t7.5 -106.5q0 -55 -35.5 -88.5t-87.5 -33.5q-13 0 -27 7.5t-25.5 19.5t-19 27.5t-7.5 30.5l2 281q-53 2 -105.5 4t-105.5 4q-69 3 -123 26.5t-91 64t-56 96.5t-17 124z" />
<glyph unicode="&#xbf;" horiz-adv-x="1095" d="M101 281q0 155 72.5 263t231.5 181q39 18 81.5 38t76 46.5t52.5 61.5t11 83q-5 26 2 46.5t37 26.5q29 6 61 0.5t59.5 -19t46.5 -33.5t23 -44q7 -47 -17.5 -90.5t-69.5 -83t-106 -75t-127 -66.5q-59 -27 -106 -55.5t-80 -64.5t-51 -84t-18 -114q0 -69 24 -118.5t63.5 -81 t90 -46t102.5 -14.5q38 0 68.5 9.5t56 24.5t48 31.5t44.5 31.5t46 24.5t53 9.5q12 0 24 -3.5t22 -13t16 -25.5t6 -40q0 -31 -22 -59.5t-57.5 -52t-79.5 -42.5t-87 -32t-81 -20t-61 -7q-98 0 -181.5 26t-144.5 77t-95 127t-34 177zM632 1292q0 60 31.5 92t93.5 32 q21 0 47.5 -5t50.5 -17.5t40.5 -34t16.5 -54.5q0 -23 -13 -45t-33.5 -39.5t-45 -28t-48.5 -10.5q-23 0 -48 4.5t-45.5 17t-33.5 34t-13 54.5z" />
<glyph unicode="&#xc0;" horiz-adv-x="1582" d="M119 86q0 36 12 67t26 58q2 4 6.5 12.5t16.5 36t33.5 82.5t57.5 153q-1 12 -1.5 23t-0.5 21q0 41 13.5 69.5t51.5 55.5l254 530q15 31 33 66.5t40.5 66t50 51t60.5 20.5q25 0 56 -29.5t63.5 -76t65 -103t60 -109.5t48.5 -96.5t30 -63.5q50 -112 75 -170.5t39 -74.5 q46 -29 64 -67.5t18 -100.5q28 -71 50.5 -142.5t49.5 -131.5q20 -44 41 -72.5t37.5 -54t27 -53t10.5 -70.5q0 -29 -14 -44.5t-33.5 -23t-39.5 -8.5t-32 -1q-31 0 -62 35t-58 83.5t-47.5 99.5t-29.5 84q-11 37 -22.5 78t-22.5 76.5t-22.5 60.5t-22.5 31q-16 14 -36 18.5 t-53 4.5q-57 0 -115 0.5t-119 1t-126.5 1t-138.5 0.5q-20 0 -32.5 -3.5t-23 -16t-21 -36.5t-24.5 -66l-80 -215q-9 -32 -17 -59.5t-15 -38.5q-9 -15 -19.5 -23.5t-21.5 -12.5t-23 -4.5t-24 -0.5q-43 0 -68 17.5t-25 64.5zM371 1791q0 17 7.5 31t19 24t25.5 15.5t28 5.5 q15 0 38 -8.5t50 -22t55 -30t53 -32t44.5 -28t29.5 -18.5q38 -23 67 -37.5t50.5 -25t36 -19.5t23.5 -21q10 -14 12 -29t2 -26q0 -6 -4 -15t-13.5 -16.5t-25.5 -13t-39 -5.5q-33 0 -78 12.5t-93 31.5t-95.5 42.5t-85.5 45.5t-63 40t-28 27q-16 44 -16 72zM533 662 q95 -1 156.5 -2t100.5 -2t61 -1.5t39 -0.5q12 0 23 0.5t25.5 1t34 1.5t47.5 3q-14 40 -42.5 101t-62 126.5t-66.5 127.5t-55 105q-20 38 -32 38q-6 0 -23 -29.5t-39.5 -75.5t-47.5 -103.5t-48.5 -112.5t-42.5 -102.5t-28 -74.5z" />
<glyph unicode="&#xc1;" horiz-adv-x="1582" d="M119 86q0 36 12 67t26 58q2 4 6.5 12.5t16.5 36t33.5 82.5t57.5 153q-1 12 -1.5 23t-0.5 21q0 41 13.5 69.5t51.5 55.5l254 530q15 31 33 66.5t40.5 66t50 51t60.5 20.5q25 0 56 -29.5t63.5 -76t65 -103t60 -109.5t48.5 -96.5t30 -63.5q50 -112 75 -170.5t39 -74.5 q46 -29 64 -67.5t18 -100.5q28 -71 50.5 -142.5t49.5 -131.5q20 -44 41 -72.5t37.5 -54t27 -53t10.5 -70.5q0 -29 -14 -44.5t-33.5 -23t-39.5 -8.5t-32 -1q-31 0 -62 35t-58 83.5t-47.5 99.5t-29.5 84q-11 37 -22.5 78t-22.5 76.5t-22.5 60.5t-22.5 31q-16 14 -36 18.5 t-53 4.5q-57 0 -115 0.5t-119 1t-126.5 1t-138.5 0.5q-20 0 -32.5 -3.5t-23 -16t-21 -36.5t-24.5 -66l-80 -215q-9 -32 -17 -59.5t-15 -38.5q-9 -15 -19.5 -23.5t-21.5 -12.5t-23 -4.5t-24 -0.5q-43 0 -68 17.5t-25 64.5zM473 1574q0 40 19.5 64t48.5 39.5t62 27t59 27.5 q9 6 29 18.5t45 27.5t53.5 31.5t55.5 30t50 22t38 8.5q14 0 28.5 -5.5t26 -15.5t18.5 -24t7 -31q0 -28 -15 -71q-4 -9 -29 -28t-63 -41.5t-85.5 -46t-95.5 -43t-92 -32t-76 -12.5q-24 0 -40 6t-26 14.5t-14 18t-4 15.5zM533 662q95 -1 156.5 -2t100.5 -2t61 -1.5t39 -0.5 q12 0 23 0.5t25.5 1t34 1.5t47.5 3q-14 40 -42.5 101t-62 126.5t-66.5 127.5t-55 105q-20 38 -32 38q-6 0 -23 -29.5t-39.5 -75.5t-47.5 -103.5t-48.5 -112.5t-42.5 -102.5t-28 -74.5z" />
<glyph unicode="&#xc2;" horiz-adv-x="1582" d="M119 86q0 36 12 67t26 58q2 4 6.5 12.5t16.5 36t33.5 82.5t57.5 153q-1 12 -1.5 23t-0.5 21q0 41 13.5 69.5t51.5 55.5l254 530q15 31 33 66.5t40.5 66t50 51t60.5 20.5q25 0 56 -29.5t63.5 -76t65 -103t60 -109.5t48.5 -96.5t30 -63.5q50 -112 75 -170.5t39 -74.5 q46 -29 64 -67.5t18 -100.5q28 -71 50.5 -142.5t49.5 -131.5q20 -44 41 -72.5t37.5 -54t27 -53t10.5 -70.5q0 -29 -14 -44.5t-33.5 -23t-39.5 -8.5t-32 -1q-31 0 -62 35t-58 83.5t-47.5 99.5t-29.5 84q-11 37 -22.5 78t-22.5 76.5t-22.5 60.5t-22.5 31q-16 14 -36 18.5 t-53 4.5q-57 0 -115 0.5t-119 1t-126.5 1t-138.5 0.5q-20 0 -32.5 -3.5t-23 -16t-21 -36.5t-24.5 -66l-80 -215q-9 -32 -17 -59.5t-15 -38.5q-9 -15 -19.5 -23.5t-21.5 -12.5t-23 -4.5t-24 -0.5q-43 0 -68 17.5t-25 64.5zM205 1610q0 37 23.5 65t59.5 37q44 11 92 24 t94.5 28.5t89 33.5t76.5 39q20 12 38 19t38 7q18 0 37 -7t41 -21q63 -40 102 -66.5t67.5 -42.5t52.5 -22.5t58 -6.5q15 0 30.5 -4.5t28 -12.5t21 -19.5t8.5 -25.5q0 -27 -10 -48t-24.5 -36t-31 -23t-30.5 -8q-38 0 -78 15t-84 38t-92 50.5t-100 52.5q-45 -21 -76 -35 t-55 -25t-43.5 -19t-42.5 -15.5t-51.5 -15.5t-69.5 -19q-29 -8 -49 -11.5t-35 -3.5t-30.5 6.5t-27.5 17.5t-19.5 25t-7.5 29zM533 662q95 -1 156.5 -2t100.5 -2t61 -1.5t39 -0.5q12 0 23 0.5t25.5 1t34 1.5t47.5 3q-14 40 -42.5 101t-62 126.5t-66.5 127.5t-55 105 q-20 38 -32 38q-6 0 -23 -29.5t-39.5 -75.5t-47.5 -103.5t-48.5 -112.5t-42.5 -102.5t-28 -74.5z" />
<glyph unicode="&#xc3;" horiz-adv-x="1582" d="M119 86q0 36 12 67t26 58q2 4 6.5 12.5t16.5 36t33.5 82.5t57.5 153q-1 12 -1.5 23t-0.5 21q0 41 13.5 69.5t51.5 55.5l254 530q15 31 33 66.5t40.5 66t50 51t60.5 20.5q25 0 56 -29.5t63.5 -76t65 -103t60 -109.5t48.5 -96.5t30 -63.5q50 -112 75 -170.5t39 -74.5 q46 -29 64 -67.5t18 -100.5q28 -71 50.5 -142.5t49.5 -131.5q20 -44 41 -72.5t37.5 -54t27 -53t10.5 -70.5q0 -29 -14 -44.5t-33.5 -23t-39.5 -8.5t-32 -1q-31 0 -62 35t-58 83.5t-47.5 99.5t-29.5 84q-11 37 -22.5 78t-22.5 76.5t-22.5 60.5t-22.5 31q-16 14 -36 18.5 t-53 4.5q-57 0 -115 0.5t-119 1t-126.5 1t-138.5 0.5q-20 0 -32.5 -3.5t-23 -16t-21 -36.5t-24.5 -66l-80 -215q-9 -32 -17 -59.5t-15 -38.5q-9 -15 -19.5 -23.5t-21.5 -12.5t-23 -4.5t-24 -0.5q-43 0 -68 17.5t-25 64.5zM306 1615q0 66 31 108t77.5 65t100 31.5t98.5 8.5 q40 0 68.5 -19.5t53.5 -43.5t51 -43.5t61 -19.5q25 0 47 11t44.5 24.5t46.5 24.5t54 11q25 0 38.5 -8.5t19.5 -21t7 -27t1 -26.5q0 -34 -32 -64.5t-76.5 -54t-91 -37t-75.5 -13.5q-57 0 -95.5 20t-69 43.5t-57.5 43.5t-60 20q-34 0 -56.5 -15.5t-40.5 -34.5t-36.5 -34.5 t-43.5 -15.5q-32 0 -48.5 16t-16.5 51zM533 662q95 -1 156.5 -2t100.5 -2t61 -1.5t39 -0.5q12 0 23 0.5t25.5 1t34 1.5t47.5 3q-14 40 -42.5 101t-62 126.5t-66.5 127.5t-55 105q-20 38 -32 38q-6 0 -23 -29.5t-39.5 -75.5t-47.5 -103.5t-48.5 -112.5t-42.5 -102.5 t-28 -74.5z" />
<glyph unicode="&#xc4;" horiz-adv-x="1582" d="M119 86q0 36 12 67t26 58q2 4 6.5 12.5t16.5 36t33.5 82.5t57.5 153q-1 12 -1.5 23t-0.5 21q0 41 13.5 69.5t51.5 55.5l254 530q15 31 33 66.5t40.5 66t50 51t60.5 20.5q25 0 56 -29.5t63.5 -76t65 -103t60 -109.5t48.5 -96.5t30 -63.5q50 -112 75 -170.5t39 -74.5 q46 -29 64 -67.5t18 -100.5q28 -71 50.5 -142.5t49.5 -131.5q20 -44 41 -72.5t37.5 -54t27 -53t10.5 -70.5q0 -29 -14 -44.5t-33.5 -23t-39.5 -8.5t-32 -1q-31 0 -62 35t-58 83.5t-47.5 99.5t-29.5 84q-11 37 -22.5 78t-22.5 76.5t-22.5 60.5t-22.5 31q-16 14 -36 18.5 t-53 4.5q-57 0 -115 0.5t-119 1t-126.5 1t-138.5 0.5q-20 0 -32.5 -3.5t-23 -16t-21 -36.5t-24.5 -66l-80 -215q-9 -32 -17 -59.5t-15 -38.5q-9 -15 -19.5 -23.5t-21.5 -12.5t-23 -4.5t-24 -0.5q-43 0 -68 17.5t-25 64.5zM325 1665q0 23 16.5 43.5t40 36t50 24.5t46.5 9 q7 0 20.5 -9t26.5 -26.5t23 -43t10 -59.5q0 -31 -7.5 -53.5t-20.5 -37.5t-29 -22.5t-32 -7.5q-69 0 -106.5 32t-37.5 114zM533 662q95 -1 156.5 -2t100.5 -2t61 -1.5t39 -0.5q12 0 23 0.5t25.5 1t34 1.5t47.5 3q-14 40 -42.5 101t-62 126.5t-66.5 127.5t-55 105 q-20 38 -32 38q-6 0 -23 -29.5t-39.5 -75.5t-47.5 -103.5t-48.5 -112.5t-42.5 -102.5t-28 -74.5zM832 1636q0 55 29 91.5t87 36.5q22 0 43.5 -12t38.5 -30.5t27 -41.5t10 -44q0 -22 -10 -43t-27 -37.5t-38.5 -26.5t-43.5 -10q-58 0 -87 28.5t-29 88.5z" />
<glyph unicode="&#xc5;" horiz-adv-x="1582" d="M119 86q0 36 12 67t26 58q2 4 6.5 12.5t16.5 36t33.5 82.5t57.5 153q-1 12 -1.5 23t-0.5 21q0 41 13.5 69.5t51.5 55.5l254 530q15 32 34 69t43 68q-73 22 -109.5 79t-36.5 145q0 18 6.5 47t19.5 61.5t31.5 65.5t42.5 60t52.5 43.5t62.5 16.5q22 0 38.5 -2t27.5 -9.5 t17 -23t6 -42.5v-1q12 -5 28.5 -11.5t30.5 -8.5q22 -4 41.5 -10.5t33.5 -21.5t22 -41t8 -69q0 -35 -9.5 -73.5t-27.5 -74t-43.5 -65.5t-58.5 -49q25 -28 51 -65.5t51 -79.5t48 -85.5t42 -82t33.5 -68.5t21.5 -46q50 -112 75 -170.5t39 -74.5q46 -29 64 -67.5t18 -100.5 q28 -71 50.5 -142.5t49.5 -131.5q20 -44 41 -72.5t37.5 -54t27 -53t10.5 -70.5q0 -29 -14 -44.5t-33.5 -23t-39.5 -8.5t-32 -1q-31 0 -62 35t-58 83.5t-47.5 99.5t-29.5 84q-11 37 -22.5 78t-22.5 76.5t-22.5 60.5t-22.5 31q-16 14 -36 18.5t-53 4.5q-57 0 -115 0.5t-119 1 t-126.5 1t-138.5 0.5q-20 0 -32.5 -3.5t-23 -16t-21 -36.5t-24.5 -66l-80 -215q-9 -32 -17 -59.5t-15 -38.5q-9 -15 -19.5 -23.5t-21.5 -12.5t-23 -4.5t-24 -0.5q-43 0 -68 17.5t-25 64.5zM533 662q95 -1 156.5 -2t100.5 -2t61 -1.5t39 -0.5q12 0 23 0.5t25.5 1t34 1.5 t47.5 3q-14 40 -42.5 101t-62 126.5t-66.5 127.5t-55 105q-20 38 -32 38q-6 0 -23 -29.5t-39.5 -75.5t-47.5 -103.5t-48.5 -112.5t-42.5 -102.5t-28 -74.5zM684 1567q0 -53 23.5 -76.5t67.5 -23.5q14 0 27 16t22.5 38t15.5 46t6 40q0 12 -12 22t-29.5 18t-36 12.5t-30.5 4.5 q-9 0 -18.5 -10t-17.5 -25t-13 -32t-5 -30z" />
<glyph unicode="&#xc6;" horiz-adv-x="2204" d="M21 51q0 23 17 44q64 81 117.5 152t100.5 135.5t88.5 123t80.5 114.5v11q0 24 6 40t16 26t22.5 15t25.5 7q45 63 91.5 126t100.5 131t117.5 142.5t140.5 160.5q9 10 27 23.5t39.5 25.5t42.5 20.5t36 8.5q23 0 41 -7q11 -3 23 -7t25 -9h-2q18 -10 40 -18t52 -8q41 0 94 1 t112.5 2t122 2.5t123.5 2.5t117 2t103 1q44 0 73 -4t46.5 -15t24.5 -31.5t7 -54.5q0 -15 -7.5 -30t-19.5 -27t-27.5 -20t-31.5 -8l-810 6h-1q-1 0 -2 -8t-1 -42q0 -31 1.5 -91t5.5 -163l5 -115h322q17 0 46 2.5t57 6.5q33 4 68 9q21 0 39 -10.5t31.5 -25.5t21 -32.5 t7.5 -30.5q0 -19 -6 -37t-16.5 -31.5t-24 -22t-28.5 -8.5l-509 5q0 -16 0.5 -47.5t1 -69t1 -77.5t1 -74t1 -58.5t0.5 -30.5q26 -2 58.5 -2h69.5q69 0 147 1t152.5 2.5t138.5 3t105 1.5q53 0 83.5 -11.5t46.5 -29.5t20 -39t4 -39q0 -27 -10 -46t-26.5 -30t-36.5 -16t-39 -5 q-27 0 -53.5 5.5t-60.5 12t-80.5 12t-113.5 5.5q-97 0 -216 -4t-267 -14q-24 0 -44.5 8.5t-36 24.5t-24 37t-8.5 47v435l-432 3q-82 -120 -163 -244t-164 -252q-10 -15 -22 -31t-27.5 -30t-36 -23t-46.5 -9q-13 0 -32.5 7t-37.5 19.5t-31 30t-13 37.5zM716 719 q65 0 143.5 -0.5t166.5 -1.5v69q0 15 -1.5 43.5t-4 68.5t-4 89t-1.5 105q-77 -84 -151 -177t-148 -196z" />
<glyph unicode="&#xc7;" horiz-adv-x="1434" d="M149 532q0 55 8 116.5t22 124t31.5 123.5t37.5 115q24 64 68.5 132t108 123.5t145 91.5t179.5 36q86 0 170.5 -25t152 -74t109.5 -120.5t42 -165.5q0 -17 -4 -39.5t-13.5 -43t-26.5 -34.5t-44 -14q-31 0 -47.5 17.5t-24 43.5t-9 57.5t-1.5 59.5q0 34 -29 64.5t-73 53.5 t-96 36.5t-97 13.5q-84 0 -149 -39t-113 -102t-80.5 -141t-52.5 -155.5t-28.5 -147.5t-8.5 -115q0 -89 38 -159t100 -118.5t140 -74t159 -25.5q40 0 94 3t110 10.5t109.5 20.5t91.5 32q16 8 27 19.5t22.5 22t26 18t36.5 7.5q43 0 68.5 -29t25.5 -71q0 -28 -7 -45.5 t-24 -31.5q-38 -32 -104.5 -55t-144 -38t-158 -22t-147.5 -7q-2 -29 -5.5 -61.5t-8.5 -55.5q14 11 42.5 14t58.5 3q31 0 60.5 -13.5t52.5 -39.5t37 -64t14 -87q0 -59 -22 -102.5t-59.5 -72t-88 -43t-108.5 -14.5q-13 0 -35 3.5t-48.5 10t-53.5 16t-49 22t-36 27.5t-14 33 q0 13 3.5 29t11.5 29t20.5 22t30.5 9q13 0 23.5 -5.5t20.5 -10.5q9 -5 25.5 -10t33.5 -9t31.5 -6t19.5 -2q57 0 94 19.5t37 54.5q0 7 -1.5 18t-7 21t-17 17t-31.5 7q-15 0 -39.5 -0.5t-58.5 -14.5q-14 1 -33 6t-36 14t-29 22.5t-12 32.5q0 50 9 94.5t17 95.5 q-97 12 -185.5 45.5t-156 97t-107.5 161t-40 238.5z" />
<glyph unicode="&#xc8;" horiz-adv-x="1316" d="M198 715q0 17 6 35t10 36q-5 85 -9.5 169t-4.5 172q0 18 -0.5 41.5t1.5 49t7 50t16 44t29.5 31.5t47.5 12q22 0 42.5 -7.5t41 -16t41.5 -16t45 -7.5q60 0 140 1.5t168 4.5q48 1 95.5 2t93.5 2t88 1h78q44 0 73.5 -2t47 -11.5t25 -28.5t7.5 -53q0 -15 -7.5 -30t-20.5 -27 t-29 -20t-32 -8q-193 1 -328.5 2t-226.5 2t-143 1.5t-78 1t-33.5 0.5t-7.5 1v-325q0 -13 9 -13q37 0 75 -0.5t79.5 -1.5t88.5 -1.5t103 -0.5q37 0 73.5 6.5t77.5 6.5t69.5 -23.5t28.5 -76.5q0 -7 -5 -20.5t-14.5 -27t-24.5 -23.5t-35 -10h-431q-29 0 -46 -0.5t-26 -1.5 t-11.5 -2.5t-2.5 -3.5q0 -14 3.5 -28t3.5 -34v-23.5t0.5 -44t1 -56t1.5 -59.5v-160q-4 -6 9 -9.5t35 -5t49 -2.5t51 -4q34 -2 84 -4.5t103 -4t104.5 -3t88.5 -3t54 -2t3 -0.5q-19 0 -16 0t18.5 -0.5t39.5 -0.5t49 -0.5t45.5 -0.5h29.5q27 0 44.5 -11t27.5 -27.5t14 -36.5 t4 -38q0 -27 -11 -46t-29.5 -30t-44 -16t-53.5 -5q-21 0 -51 7.5t-53 18.5q-11 4 -44 9t-84.5 9t-120.5 7t-152 3q-62 0 -128.5 -5.5t-138.5 -5.5q-24 0 -44.5 9t-35.5 24.5t-23.5 37t-8.5 47.5v508q-10 16 -13 34.5t-3 37.5zM382 1791q0 17 7.5 31t19 24t25.5 15.5t28 5.5 q15 0 38 -8.5t50 -22t55 -30t53 -32t44.5 -28t29.5 -18.5q38 -23 67 -37.5t50.5 -25t36 -19.5t23.5 -21q10 -14 12 -29t2 -26q0 -6 -4 -15t-13.5 -16.5t-25.5 -13t-39 -5.5q-33 0 -78 12.5t-93 31.5t-95.5 42.5t-85.5 45.5t-63 40t-28 27q-16 44 -16 72z" />
<glyph unicode="&#xc9;" horiz-adv-x="1316" d="M198 715q0 17 6 35t10 36q-5 85 -9.5 169t-4.5 172q0 18 -0.5 41.5t1.5 49t7 50t16 44t29.5 31.5t47.5 12q22 0 42.5 -7.5t41 -16t41.5 -16t45 -7.5q60 0 140 1.5t168 4.5q48 1 95.5 2t93.5 2t88 1h78q44 0 73.5 -2t47 -11.5t25 -28.5t7.5 -53q0 -15 -7.5 -30t-20.5 -27 t-29 -20t-32 -8q-193 1 -328.5 2t-226.5 2t-143 1.5t-78 1t-33.5 0.5t-7.5 1v-325q0 -13 9 -13q37 0 75 -0.5t79.5 -1.5t88.5 -1.5t103 -0.5q37 0 73.5 6.5t77.5 6.5t69.5 -23.5t28.5 -76.5q0 -7 -5 -20.5t-14.5 -27t-24.5 -23.5t-35 -10h-431q-29 0 -46 -0.5t-26 -1.5 t-11.5 -2.5t-2.5 -3.5q0 -14 3.5 -28t3.5 -34v-23.5t0.5 -44t1 -56t1.5 -59.5v-160q-4 -6 9 -9.5t35 -5t49 -2.5t51 -4q34 -2 84 -4.5t103 -4t104.5 -3t88.5 -3t54 -2t3 -0.5q-19 0 -16 0t18.5 -0.5t39.5 -0.5t49 -0.5t45.5 -0.5h29.5q27 0 44.5 -11t27.5 -27.5t14 -36.5 t4 -38q0 -27 -11 -46t-29.5 -30t-44 -16t-53.5 -5q-21 0 -51 7.5t-53 18.5q-11 4 -44 9t-84.5 9t-120.5 7t-152 3q-62 0 -128.5 -5.5t-138.5 -5.5q-24 0 -44.5 9t-35.5 24.5t-23.5 37t-8.5 47.5v508q-10 16 -13 34.5t-3 37.5zM484 1574q0 40 19.5 64t48.5 39.5t62 27 t59 27.5q9 6 29 18.5t45 27.5t53.5 31.5t55.5 30t50 22t38 8.5q14 0 28.5 -5.5t26 -15.5t18.5 -24t7 -31q0 -28 -15 -71q-4 -9 -29 -28t-63 -41.5t-85.5 -46t-95.5 -43t-92 -32t-76 -12.5q-24 0 -40 6t-26 14.5t-14 18t-4 15.5z" />
<glyph unicode="&#xca;" horiz-adv-x="1316" d="M198 715q0 17 6 35t10 36q-5 85 -9.5 169t-4.5 172q0 18 -0.5 41.5t1.5 49t7 50t16 44t29.5 31.5t47.5 12q22 0 42.5 -7.5t41 -16t41.5 -16t45 -7.5q60 0 140 1.5t168 4.5q48 1 95.5 2t93.5 2t88 1h78q44 0 73.5 -2t47 -11.5t25 -28.5t7.5 -53q0 -15 -7.5 -30t-20.5 -27 t-29 -20t-32 -8q-193 1 -328.5 2t-226.5 2t-143 1.5t-78 1t-33.5 0.5t-7.5 1v-325q0 -13 9 -13q37 0 75 -0.5t79.5 -1.5t88.5 -1.5t103 -0.5q37 0 73.5 6.5t77.5 6.5t69.5 -23.5t28.5 -76.5q0 -7 -5 -20.5t-14.5 -27t-24.5 -23.5t-35 -10h-431q-29 0 -46 -0.5t-26 -1.5 t-11.5 -2.5t-2.5 -3.5q0 -14 3.5 -28t3.5 -34v-23.5t0.5 -44t1 -56t1.5 -59.5v-160q-4 -6 9 -9.5t35 -5t49 -2.5t51 -4q34 -2 84 -4.5t103 -4t104.5 -3t88.5 -3t54 -2t3 -0.5q-19 0 -16 0t18.5 -0.5t39.5 -0.5t49 -0.5t45.5 -0.5h29.5q27 0 44.5 -11t27.5 -27.5t14 -36.5 t4 -38q0 -27 -11 -46t-29.5 -30t-44 -16t-53.5 -5q-21 0 -51 7.5t-53 18.5q-11 4 -44 9t-84.5 9t-120.5 7t-152 3q-62 0 -128.5 -5.5t-138.5 -5.5q-24 0 -44.5 9t-35.5 24.5t-23.5 37t-8.5 47.5v508q-10 16 -13 34.5t-3 37.5zM216 1610q0 37 23.5 65t59.5 37q44 11 92 24 t94.5 28.5t89 33.5t76.5 39q20 12 38 19t38 7q18 0 37 -7t41 -21q63 -40 102 -66.5t67.5 -42.5t52.5 -22.5t58 -6.5q15 0 30.5 -4.5t28 -12.5t21 -19.5t8.5 -25.5q0 -27 -10 -48t-24.5 -36t-31 -23t-30.5 -8q-38 0 -78 15t-84 38t-92 50.5t-100 52.5q-45 -21 -76 -35 t-55 -25t-43.5 -19t-42.5 -15.5t-51.5 -15.5t-69.5 -19q-29 -8 -49 -11.5t-35 -3.5t-30.5 6.5t-27.5 17.5t-19.5 25t-7.5 29z" />
<glyph unicode="&#xcb;" horiz-adv-x="1316" d="M198 715q0 17 6 35t10 36q-5 85 -9.5 169t-4.5 172q0 18 -0.5 41.5t1.5 49t7 50t16 44t29.5 31.5t47.5 12q22 0 42.5 -7.5t41 -16t41.5 -16t45 -7.5q60 0 140 1.5t168 4.5q48 1 95.5 2t93.5 2t88 1h78q44 0 73.5 -2t47 -11.5t25 -28.5t7.5 -53q0 -15 -7.5 -30t-20.5 -27 t-29 -20t-32 -8q-193 1 -328.5 2t-226.5 2t-143 1.5t-78 1t-33.5 0.5t-7.5 1v-325q0 -13 9 -13q37 0 75 -0.5t79.5 -1.5t88.5 -1.5t103 -0.5q37 0 73.5 6.5t77.5 6.5t69.5 -23.5t28.5 -76.5q0 -7 -5 -20.5t-14.5 -27t-24.5 -23.5t-35 -10h-431q-29 0 -46 -0.5t-26 -1.5 t-11.5 -2.5t-2.5 -3.5q0 -14 3.5 -28t3.5 -34v-23.5t0.5 -44t1 -56t1.5 -59.5v-160q-4 -6 9 -9.5t35 -5t49 -2.5t51 -4q34 -2 84 -4.5t103 -4t104.5 -3t88.5 -3t54 -2t3 -0.5q-19 0 -16 0t18.5 -0.5t39.5 -0.5t49 -0.5t45.5 -0.5h29.5q27 0 44.5 -11t27.5 -27.5t14 -36.5 t4 -38q0 -27 -11 -46t-29.5 -30t-44 -16t-53.5 -5q-21 0 -51 7.5t-53 18.5q-11 4 -44 9t-84.5 9t-120.5 7t-152 3q-62 0 -128.5 -5.5t-138.5 -5.5q-24 0 -44.5 9t-35.5 24.5t-23.5 37t-8.5 47.5v508q-10 16 -13 34.5t-3 37.5zM336 1665q0 23 16.5 43.5t40 36t50 24.5t46.5 9 q7 0 20.5 -9t26.5 -26.5t23 -43t10 -59.5q0 -31 -7.5 -53.5t-20.5 -37.5t-29 -22.5t-32 -7.5q-69 0 -106.5 32t-37.5 114zM843 1636q0 55 29 91.5t87 36.5q22 0 43.5 -12t38.5 -30.5t27 -41.5t10 -44q0 -22 -10 -43t-27 -37.5t-38.5 -26.5t-43.5 -10q-58 0 -87 28.5 t-29 88.5z" />
<glyph unicode="&#xcc;" horiz-adv-x="908" d="M141 1791q0 17 7.5 31t19 24t25.5 15.5t28 5.5q15 0 38 -8.5t50 -22t55 -30t53 -32t44.5 -28t29.5 -18.5q38 -23 67 -37.5t50.5 -25t36 -19.5t23.5 -21q10 -14 12 -29t2 -26q0 -6 -4 -15t-13.5 -16.5t-25.5 -13t-39 -5.5q-33 0 -78 12.5t-93 31.5t-95.5 42.5t-85.5 45.5 t-63 40t-28 27q-16 44 -16 72zM153 90q0 17 6 34.5t17 32t27.5 23.5t37.5 9q2 0 15.5 -1.5t31 -3.5t35.5 -3.5l30 -2.5v86q0 56 0.5 130t1.5 157t2.5 170.5t3.5 170.5t5.5 156t7.5 128h-77q-23 0 -46 1.5t-42.5 10t-31.5 25t-12 46.5q0 28 7.5 47.5t25.5 32t48 18.5t75 6 q21 0 47.5 0.5t55 1t56.5 1t51 0.5q14 0 36.5 0.5t64.5 0.5q34 0 64.5 8.5t61.5 8.5q16 0 33.5 -10.5t32 -25.5t24 -31t9.5 -26q0 -31 -14.5 -53t-36.5 -36.5t-47 -21t-46 -6.5q-7 0 -16 3.5l-18 7t-16.5 7t-10.5 3.5l-100 -6q-4 -32 -7 -91t-5.5 -134t-3.5 -161.5 t-1 -173.5q0 -53 1 -110t4 -114.5t7.5 -115.5t11.5 -112q30 -3 57 -2.5t48 1.5t35 1.5t17 -1.5q31 -20 45 -45t14 -51q0 -18 -10 -33.5t-25.5 -26t-35 -16.5t-37.5 -6h-342q-18 0 -47 4t-56.5 14.5t-48 28.5t-20.5 45z" />
<glyph unicode="&#xcd;" horiz-adv-x="908" d="M153 90q0 17 6 34.5t17 32t27.5 23.5t37.5 9q2 0 15.5 -1.5t31 -3.5t35.5 -3.5l30 -2.5v86q0 56 0.5 130t1.5 157t2.5 170.5t3.5 170.5t5.5 156t7.5 128h-77q-23 0 -46 1.5t-42.5 10t-31.5 25t-12 46.5q0 28 7.5 47.5t25.5 32t48 18.5t75 6q21 0 47.5 0.5t55 1t56.5 1 t51 0.5q14 0 36.5 0.5t64.5 0.5q34 0 64.5 8.5t61.5 8.5q16 0 33.5 -10.5t32 -25.5t24 -31t9.5 -26q0 -31 -14.5 -53t-36.5 -36.5t-47 -21t-46 -6.5q-7 0 -16 3.5l-18 7t-16.5 7t-10.5 3.5l-100 -6q-4 -32 -7 -91t-5.5 -134t-3.5 -161.5t-1 -173.5q0 -53 1 -110t4 -114.5 t7.5 -115.5t11.5 -112q30 -3 57 -2.5t48 1.5t35 1.5t17 -1.5q31 -20 45 -45t14 -51q0 -18 -10 -33.5t-25.5 -26t-35 -16.5t-37.5 -6h-342q-18 0 -47 4t-56.5 14.5t-48 28.5t-20.5 45zM243 1574q0 40 19.5 64t48.5 39.5t62 27t59 27.5q10 6 29.5 18.5t44.5 27.5t53.5 31.5 t55.5 30t50 22t38 8.5q14 0 28.5 -5.5t26 -15.5t18.5 -24t7 -31q0 -28 -15 -71q-4 -9 -29 -28t-63 -41.5t-85.5 -46t-95.5 -43t-92 -32t-76 -12.5q-24 0 -40 6t-26 14.5t-14 18t-4 15.5z" />
<glyph unicode="&#xce;" horiz-adv-x="908" d="M-25 1610q0 37 23.5 65t59.5 37q44 11 92 24t94.5 28.5t89 33.5t76.5 39q20 12 38 19t38 7q18 0 37 -7t41 -21q63 -40 102 -66.5t67.5 -42.5t52.5 -22.5t58 -6.5q15 0 30.5 -4.5t28 -12.5t21 -19.5t8.5 -25.5q0 -27 -10 -48t-24.5 -36t-31 -23t-30.5 -8q-38 0 -78 15 t-84 38t-92 50.5t-100 52.5q-45 -21 -76 -35t-55 -25t-43.5 -19t-42.5 -15.5t-51.5 -15.5t-69.5 -19q-29 -8 -49 -11.5t-35 -3.5t-30.5 6.5t-27.5 17.5t-19.5 25t-7.5 29zM153 90q0 17 6 34.5t17 32t27.5 23.5t37.5 9q2 0 15.5 -1.5t31 -3.5t35.5 -3.5l30 -2.5v86 q0 56 0.5 130t1.5 157t2.5 170.5t3.5 170.5t5.5 156t7.5 128h-77q-23 0 -46 1.5t-42.5 10t-31.5 25t-12 46.5q0 28 7.5 47.5t25.5 32t48 18.5t75 6q21 0 47.5 0.5t55 1t56.5 1t51 0.5q14 0 36.5 0.5t64.5 0.5q34 0 64.5 8.5t61.5 8.5q16 0 33.5 -10.5t32 -25.5t24 -31 t9.5 -26q0 -31 -14.5 -53t-36.5 -36.5t-47 -21t-46 -6.5q-7 0 -16 3.5l-18 7t-16.5 7t-10.5 3.5l-100 -6q-4 -32 -7 -91t-5.5 -134t-3.5 -161.5t-1 -173.5q0 -53 1 -110t4 -114.5t7.5 -115.5t11.5 -112q30 -3 57 -2.5t48 1.5t35 1.5t17 -1.5q31 -20 45 -45t14 -51 q0 -18 -10 -33.5t-25.5 -26t-35 -16.5t-37.5 -6h-342q-18 0 -47 4t-56.5 14.5t-48 28.5t-20.5 45z" />
<glyph unicode="&#xcf;" horiz-adv-x="908" d="M95 1665q0 23 16.5 43.5t40 36t50 24.5t46.5 9q7 0 20.5 -9t26.5 -26.5t23 -43t10 -59.5q0 -31 -7.5 -53.5t-20.5 -37.5t-29 -22.5t-32 -7.5q-69 0 -106.5 32t-37.5 114zM153 90q0 17 6 34.5t17 32t27.5 23.5t37.5 9q2 0 15.5 -1.5t31 -3.5t35.5 -3.5l30 -2.5v86 q0 56 0.5 130t1.5 157t2.5 170.5t3.5 170.5t5.5 156t7.5 128h-77q-23 0 -46 1.5t-42.5 10t-31.5 25t-12 46.5q0 28 7.5 47.5t25.5 32t48 18.5t75 6q21 0 47.5 0.5t55 1t56.5 1t51 0.5q14 0 36.5 0.5t64.5 0.5q34 0 64.5 8.5t61.5 8.5q16 0 33.5 -10.5t32 -25.5t24 -31 t9.5 -26q0 -31 -14.5 -53t-36.5 -36.5t-47 -21t-46 -6.5q-7 0 -16 3.5l-18 7t-16.5 7t-10.5 3.5l-100 -6q-4 -32 -7 -91t-5.5 -134t-3.5 -161.5t-1 -173.5q0 -53 1 -110t4 -114.5t7.5 -115.5t11.5 -112q30 -3 57 -2.5t48 1.5t35 1.5t17 -1.5q31 -20 45 -45t14 -51 q0 -18 -10 -33.5t-25.5 -26t-35 -16.5t-37.5 -6h-342q-18 0 -47 4t-56.5 14.5t-48 28.5t-20.5 45zM602 1636q0 55 29 91.5t87 36.5q22 0 43.5 -12t38.5 -30.5t27 -41.5t10 -44q0 -22 -10 -43t-27 -37.5t-38.5 -26.5t-43.5 -10q-58 0 -87 28.5t-29 88.5z" />
<glyph unicode="&#xd0;" horiz-adv-x="1566" d="M32 677q0 22 8.5 40.5t23.5 31t34.5 17.5t42.5 1l49 -10l3 430q0 57 18 92.5t45.5 55t61 26t66.5 6.5h197q86 0 182.5 -21.5t192 -63.5t182.5 -103.5t154 -142t106.5 -179t39.5 -214.5q0 -122 -38 -218t-102 -168t-148.5 -122.5t-176.5 -82t-186 -45.5t-178 -14 q-22 0 -52.5 0.5t-62.5 2t-61.5 4.5t-50.5 7q-19 -11 -40.5 -20t-32.5 -9q-39 0 -63 26.5t-37 65.5t-17.5 84.5t-4.5 83.5l2 342q-11 -1 -21.5 -1h-21.5q-20 0 -40 3t-36.5 13t-27 29.5t-10.5 52.5zM370 834.5q0 -34.5 1 -74.5q73 2 149.5 4t153.5 2q42 0 67 -25.5t25 -70.5 q0 -25 -13.5 -43.5t-32 -31t-38.5 -19t-33 -6.5q-35 0 -74 3.5t-75.5 7.5t-69.5 8t-56 4q1 -55 3.5 -110t5.5 -107.5t7.5 -99.5t9.5 -86q3 -3 12 -6.5t22 -5.5t28.5 -3.5t31.5 -1.5h161q58 0 125.5 13t134.5 38.5t128.5 63t108.5 85.5t75.5 106.5t28.5 126.5 q0 83 -27.5 159.5t-74.5 142.5t-110 120t-135 92.5t-148.5 59.5t-150.5 21q-20 0 -54 -0.5t-68.5 -2.5t-62.5 -5t-37 -9q-8 -36 -11.5 -70t-5 -68.5t-1.5 -70.5v-77v-63.5z" />
<glyph unicode="&#xd1;" horiz-adv-x="1429" d="M197 1234q0 14 4.5 35t14.5 40.5t25 33t36 13.5q42 0 70.5 -19.5t48 -51.5t32.5 -73t24.5 -84t24 -84.5t31.5 -74.5q33 -59 73 -128t81.5 -138t81 -133.5t72.5 -114.5q38 -51 73.5 -98t64.5 -82.5t49.5 -56.5t29.5 -21q3 0 6.5 23t6.5 59.5t6.5 82t6 90t5 83.5t3.5 63 q1 130 2 229t1.5 176.5t0.5 138.5v115q0 50 4 88t15.5 64t31 39.5t49.5 13.5q25 0 43 -3.5t30 -16t17.5 -37t5.5 -66.5q0 -103 -5 -203.5t-8 -204.5q-5 -177 -15 -360.5t-20 -365.5q-3 -42 -5 -90t-15.5 -88.5t-45 -67t-95.5 -26.5q-14 0 -27 5t-24.5 11.5t-20.5 14.5 t-13 14q-88 91 -169.5 196.5t-156.5 216.5t-142.5 224.5t-125.5 221.5q0 -249 7 -375t9 -140q6 -31 12.5 -73t6.5 -90q0 -28 -4.5 -53t-15.5 -44t-29 -30t-45 -11q-39 0 -62 12.5t-35 34t-15.5 50t-3.5 59.5q0 39 -1 88t-1 91q0 64 1 135t2 144.5t2 147.5t1 146 q0 74 -5.5 148t-5.5 157zM310 1615q0 66 31 108t77.5 65t100 31.5t98.5 8.5q40 0 68.5 -19.5t53.5 -43.5t51 -43.5t61 -19.5q25 0 47 11t44.5 24.5t46.5 24.5t54 11q25 0 38.5 -8.5t19.5 -21t7 -27t1 -26.5q0 -34 -32 -64.5t-76.5 -54t-91 -37t-75.5 -13.5q-57 0 -95.5 20 t-69 43.5t-57.5 43.5t-60 20q-34 0 -56.5 -15.5t-40.5 -34.5t-36.5 -34.5t-43.5 -15.5q-32 0 -48.5 16t-16.5 51z" />
<glyph unicode="&#xd2;" horiz-adv-x="1658" d="M128 681q0 129 28.5 232t79 181.5t120 134.5t150.5 92t170.5 52.5t180.5 16.5q157 0 282 -51t212 -146.5t133 -233t46 -310.5q0 -100 -26.5 -189t-73.5 -164t-111.5 -134.5t-141.5 -101.5t-163 -64t-175 -22q-95 0 -184.5 30t-168.5 82t-145 121t-113 148t-73.5 162.5 t-26.5 163.5zM310 711q0 -68 19.5 -136.5t55 -131.5t83.5 -117.5t105.5 -95t121.5 -64t131 -23.5q106 0 201.5 34.5t167.5 101.5t114 166t42 228q0 126 -35.5 227t-98.5 172t-149 109t-187 38q-109 0 -211.5 -31t-182.5 -94t-128.5 -158.5t-48.5 -224.5zM489 1791 q0 17 7.5 31t19 24t25.5 15.5t28 5.5q15 0 38 -8.5t50 -22t55 -30t53 -32t44.5 -28t29.5 -18.5q38 -23 67 -37.5t50.5 -25t36 -19.5t23.5 -21q10 -14 12 -29t2 -26q0 -6 -4 -15t-13.5 -16.5t-25.5 -13t-39 -5.5q-33 0 -78 12.5t-93 31.5t-95.5 42.5t-85.5 45.5t-63 40 t-28 27q-16 44 -16 72z" />
<glyph unicode="&#xd3;" horiz-adv-x="1658" d="M128 681q0 129 28.5 232t79 181.5t120 134.5t150.5 92t170.5 52.5t180.5 16.5q157 0 282 -51t212 -146.5t133 -233t46 -310.5q0 -100 -26.5 -189t-73.5 -164t-111.5 -134.5t-141.5 -101.5t-163 -64t-175 -22q-95 0 -184.5 30t-168.5 82t-145 121t-113 148t-73.5 162.5 t-26.5 163.5zM310 711q0 -68 19.5 -136.5t55 -131.5t83.5 -117.5t105.5 -95t121.5 -64t131 -23.5q106 0 201.5 34.5t167.5 101.5t114 166t42 228q0 126 -35.5 227t-98.5 172t-149 109t-187 38q-109 0 -211.5 -31t-182.5 -94t-128.5 -158.5t-48.5 -224.5zM591 1574 q0 40 19.5 64t48.5 39.5t62 27t59 27.5q9 6 29 18.5t45 27.5t53.5 31.5t55.5 30t50 22t38 8.5q14 0 28.5 -5.5t26 -15.5t18.5 -24t7 -31q0 -28 -15 -71q-4 -9 -29 -28t-63 -41.5t-85.5 -46t-95.5 -43t-92 -32t-76 -12.5q-24 0 -40 6t-26 14.5t-14 18t-4 15.5z" />
<glyph unicode="&#xd4;" horiz-adv-x="1658" d="M128 681q0 129 28.5 232t79 181.5t120 134.5t150.5 92t170.5 52.5t180.5 16.5q157 0 282 -51t212 -146.5t133 -233t46 -310.5q0 -100 -26.5 -189t-73.5 -164t-111.5 -134.5t-141.5 -101.5t-163 -64t-175 -22q-95 0 -184.5 30t-168.5 82t-145 121t-113 148t-73.5 162.5 t-26.5 163.5zM310 711q0 -68 19.5 -136.5t55 -131.5t83.5 -117.5t105.5 -95t121.5 -64t131 -23.5q106 0 201.5 34.5t167.5 101.5t114 166t42 228q0 126 -35.5 227t-98.5 172t-149 109t-187 38q-109 0 -211.5 -31t-182.5 -94t-128.5 -158.5t-48.5 -224.5zM323 1610 q0 37 23.5 65t59.5 37q44 11 92 24t94.5 28.5t89 33.5t76.5 39q20 12 38 19t38 7q18 0 37 -7t41 -21q63 -40 102 -66.5t67.5 -42.5t52.5 -22.5t58 -6.5q15 0 30.5 -4.5t28 -12.5t21 -19.5t8.5 -25.5q0 -27 -10 -48t-24.5 -36t-31 -23t-30.5 -8q-38 0 -78 15t-84 38t-92 50.5 t-100 52.5q-45 -21 -76 -35t-55 -25t-43.5 -19t-42.5 -15.5t-51.5 -15.5t-69.5 -19q-29 -8 -49 -11.5t-35 -3.5t-30.5 6.5t-27.5 17.5t-19.5 25t-7.5 29z" />
<glyph unicode="&#xd5;" horiz-adv-x="1658" d="M128 681q0 129 28.5 232t79 181.5t120 134.5t150.5 92t170.5 52.5t180.5 16.5q157 0 282 -51t212 -146.5t133 -233t46 -310.5q0 -100 -26.5 -189t-73.5 -164t-111.5 -134.5t-141.5 -101.5t-163 -64t-175 -22q-95 0 -184.5 30t-168.5 82t-145 121t-113 148t-73.5 162.5 t-26.5 163.5zM310 711q0 -68 19.5 -136.5t55 -131.5t83.5 -117.5t105.5 -95t121.5 -64t131 -23.5q106 0 201.5 34.5t167.5 101.5t114 166t42 228q0 126 -35.5 227t-98.5 172t-149 109t-187 38q-109 0 -211.5 -31t-182.5 -94t-128.5 -158.5t-48.5 -224.5zM424 1615 q0 66 31 108t77.5 65t100 31.5t98.5 8.5q40 0 68.5 -19.5t53.5 -43.5t51 -43.5t61 -19.5q25 0 47 11t44.5 24.5t46.5 24.5t54 11q25 0 38.5 -8.5t19.5 -21t7 -27t1 -26.5q0 -34 -32 -64.5t-76.5 -54t-91 -37t-75.5 -13.5q-57 0 -95.5 20t-69 43.5t-57.5 43.5t-60 20 q-34 0 -56.5 -15.5t-40.5 -34.5t-36.5 -34.5t-43.5 -15.5q-32 0 -48.5 16t-16.5 51z" />
<glyph unicode="&#xd6;" horiz-adv-x="1658" d="M128 681q0 129 28.5 232t79 181.5t120 134.5t150.5 92t170.5 52.5t180.5 16.5q157 0 282 -51t212 -146.5t133 -233t46 -310.5q0 -100 -26.5 -189t-73.5 -164t-111.5 -134.5t-141.5 -101.5t-163 -64t-175 -22q-95 0 -184.5 30t-168.5 82t-145 121t-113 148t-73.5 162.5 t-26.5 163.5zM310 711q0 -68 19.5 -136.5t55 -131.5t83.5 -117.5t105.5 -95t121.5 -64t131 -23.5q106 0 201.5 34.5t167.5 101.5t114 166t42 228q0 126 -35.5 227t-98.5 172t-149 109t-187 38q-109 0 -211.5 -31t-182.5 -94t-128.5 -158.5t-48.5 -224.5zM443 1665 q0 23 16.5 43.5t40 36t50 24.5t46.5 9q7 0 20.5 -9t26.5 -26.5t23 -43t10 -59.5q0 -31 -7.5 -53.5t-20.5 -37.5t-29 -22.5t-32 -7.5q-69 0 -106.5 32t-37.5 114zM950 1636q0 55 29 91.5t87 36.5q22 0 43.5 -12t38.5 -30.5t27 -41.5t10 -44q0 -22 -10 -43t-27 -37.5 t-38.5 -26.5t-43.5 -10q-58 0 -87 28.5t-29 88.5z" />
<glyph unicode="&#xd7;" horiz-adv-x="1224" d="M233 314q0 31 27 72t98 97q19 15 39.5 31.5t40 34t35.5 34.5t27 33l-233 253q-12 13 -16.5 28.5t-4.5 29.5q0 25 9.5 42t24 27.5t30.5 15.5t30 5q38 0 70.5 -19t56.5 -49q4 -5 10.5 -14.5t17 -25.5t25.5 -39t37 -55q7 -11 17.5 -23t20.5 -23q11 -12 23 -25l152 178 q25 29 53 53t63 24q11 0 29 -6.5t34.5 -18t28.5 -26.5t12 -31q0 -17 -11 -35.5t-30 -35.5q-7 -7 -23.5 -21.5t-37.5 -34.5t-45 -42.5t-47 -44t-42.5 -40.5t-30.5 -31l163 -158q7 -7 17 -10t21 -6.5t23.5 -9.5t23.5 -19q14 -17 20.5 -34.5t6.5 -34.5q0 -34 -11 -56.5 t-27.5 -36t-34.5 -19t-31 -5.5q-32 0 -59 21t-49 46q-45 51 -76 86t-51 57t-29.5 32t-10.5 11q-35 -42 -63 -78t-51 -65q-38 -48 -65.5 -76t-47 -42.5t-33 -18t-22.5 -3.5q-20 0 -38.5 8t-33 22t-23.5 32t-9 39z" />
<glyph unicode="&#xd8;" horiz-adv-x="1658" d="M128 681q0 129 28.5 232t79 181.5t120 134.5t150.5 92t170.5 52.5t180.5 16.5q97 0 184.5 -20t159.5 -60l38 38q9 9 22 20.5t28 21.5t31.5 16.5t33.5 6.5q13 0 28 -5t28 -14t22 -22t9 -29q0 -25 -7.5 -44t-18.5 -30l-22 -22l-14.5 -14.5t-14 -15t-20.5 -21.5 q89 -96 137.5 -233.5t48.5 -313.5q0 -100 -26.5 -189t-73.5 -164t-111.5 -134.5t-141.5 -101.5t-163 -64t-175 -22t-172.5 24t-155.5 69q-11 -18 -25 -43t-31.5 -47.5t-39 -38.5t-47.5 -16q-12 0 -32 9t-39 24t-32.5 34.5t-13.5 39.5q0 8 1 16.5t8 16.5l97 126 q-111 105 -170 232t-59 261zM320 711q0 -97 39 -191t105 -174q31 45 73 104.5t91 128t104 144t113 151.5t116.5 150t114.5 140q-44 19 -93.5 32t-101.5 13q-107 0 -208 -30.5t-179.5 -92.5t-126 -155.5t-47.5 -219.5zM605 215q52 -32 107.5 -49.5t113.5 -17.5 q104 0 197.5 34.5t164 101t112 164.5t41.5 225q0 124 -33.5 219t-91.5 164q-72 -80 -135.5 -161.5t-124.5 -172.5q-102 -150 -193 -279t-158 -228z" />
<glyph unicode="&#xd9;" horiz-adv-x="1396" d="M175 716q0 58 4 128.5t11 142.5t16.5 141t21.5 124q6 28 33 51t67 23q24 0 39 -7t24 -19t12.5 -27.5t3.5 -33.5q0 -11 -1 -24t-3 -25q-8 -45 -15.5 -99.5t-13.5 -111t-9.5 -111t-3.5 -99.5q0 -65 3.5 -137t14 -142.5t29.5 -134.5t51 -113t78.5 -78t110.5 -29 q76 0 139.5 20t109.5 58.5t72.5 93.5t29.5 125l24 552q5 105 17 177.5t31 116.5t45 63.5t58 19.5q33 0 53 -35.5t20 -86.5q0 -12 -9 -62t-20.5 -127.5t-20.5 -176t-9 -206.5q0 -55 1 -115t2.5 -121.5t3 -123.5t1.5 -120q0 -30 -11 -52t-28 -37t-38.5 -22.5t-43.5 -7.5 q-11 0 -20 8.5t-16.5 20t-13 23.5t-9.5 20q-36 -37 -77 -68t-90 -54t-106.5 -36t-126.5 -13q-90 0 -158 33.5t-117 90t-81 131.5t-51 158t-26.5 169t-7.5 165zM392 1791q0 17 7.5 31t19 24t25.5 15.5t28 5.5q15 0 38 -8.5t50 -22t55 -30t53 -32t44.5 -28t29.5 -18.5 q38 -23 67 -37.5t50.5 -25t36 -19.5t23.5 -21q10 -14 12 -29t2 -26q0 -6 -4 -15t-13.5 -16.5t-25.5 -13t-39 -5.5q-33 0 -78 12.5t-93 31.5t-95.5 42.5t-85.5 45.5t-63 40t-28 27q-16 44 -16 72z" />
<glyph unicode="&#xda;" horiz-adv-x="1396" d="M175 716q0 58 4 128.5t11 142.5t16.5 141t21.5 124q6 28 33 51t67 23q24 0 39 -7t24 -19t12.5 -27.5t3.5 -33.5q0 -11 -1 -24t-3 -25q-8 -45 -15.5 -99.5t-13.5 -111t-9.5 -111t-3.5 -99.5q0 -65 3.5 -137t14 -142.5t29.5 -134.5t51 -113t78.5 -78t110.5 -29 q76 0 139.5 20t109.5 58.5t72.5 93.5t29.5 125l24 552q5 105 17 177.5t31 116.5t45 63.5t58 19.5q33 0 53 -35.5t20 -86.5q0 -12 -9 -62t-20.5 -127.5t-20.5 -176t-9 -206.5q0 -55 1 -115t2.5 -121.5t3 -123.5t1.5 -120q0 -30 -11 -52t-28 -37t-38.5 -22.5t-43.5 -7.5 q-11 0 -20 8.5t-16.5 20t-13 23.5t-9.5 20q-36 -37 -77 -68t-90 -54t-106.5 -36t-126.5 -13q-90 0 -158 33.5t-117 90t-81 131.5t-51 158t-26.5 169t-7.5 165zM494 1574q0 40 19.5 64t48.5 39.5t62 27t59 27.5q10 6 29.5 18.5t44.5 27.5t53.5 31.5t55.5 30t50 22t38 8.5 q14 0 28.5 -5.5t26 -15.5t18.5 -24t7 -31q0 -28 -15 -71q-4 -9 -29 -28t-63 -41.5t-85.5 -46t-95.5 -43t-92 -32t-76 -12.5q-24 0 -40 6t-26 14.5t-14 18t-4 15.5z" />
<glyph unicode="&#xdb;" horiz-adv-x="1396" d="M175 716q0 58 4 128.5t11 142.5t16.5 141t21.5 124q6 28 33 51t67 23q24 0 39 -7t24 -19t12.5 -27.5t3.5 -33.5q0 -11 -1 -24t-3 -25q-8 -45 -15.5 -99.5t-13.5 -111t-9.5 -111t-3.5 -99.5q0 -65 3.5 -137t14 -142.5t29.5 -134.5t51 -113t78.5 -78t110.5 -29 q76 0 139.5 20t109.5 58.5t72.5 93.5t29.5 125l24 552q5 105 17 177.5t31 116.5t45 63.5t58 19.5q33 0 53 -35.5t20 -86.5q0 -12 -9 -62t-20.5 -127.5t-20.5 -176t-9 -206.5q0 -55 1 -115t2.5 -121.5t3 -123.5t1.5 -120q0 -30 -11 -52t-28 -37t-38.5 -22.5t-43.5 -7.5 q-11 0 -20 8.5t-16.5 20t-13 23.5t-9.5 20q-36 -37 -77 -68t-90 -54t-106.5 -36t-126.5 -13q-90 0 -158 33.5t-117 90t-81 131.5t-51 158t-26.5 169t-7.5 165zM226 1610q0 37 23.5 65t59.5 37q44 11 92 24t94.5 28.5t89 33.5t76.5 39q20 12 38 19t38 7q18 0 37 -7t41 -21 q63 -40 102 -66.5t67.5 -42.5t52.5 -22.5t58 -6.5q15 0 30.5 -4.5t28 -12.5t21 -19.5t8.5 -25.5q0 -27 -10 -48t-24.5 -36t-31 -23t-30.5 -8q-38 0 -78 15t-84 38t-92 50.5t-100 52.5q-45 -21 -76 -35t-55 -25t-43.5 -19t-42.5 -15.5t-51.5 -15.5t-69.5 -19 q-29 -8 -49 -11.5t-35 -3.5t-30.5 6.5t-27.5 17.5t-19.5 25t-7.5 29z" />
<glyph unicode="&#xdc;" horiz-adv-x="1396" d="M175 716q0 58 4 128.5t11 142.5t16.5 141t21.5 124q6 28 33 51t67 23q24 0 39 -7t24 -19t12.5 -27.5t3.5 -33.5q0 -11 -1 -24t-3 -25q-8 -45 -15.5 -99.5t-13.5 -111t-9.5 -111t-3.5 -99.5q0 -65 3.5 -137t14 -142.5t29.5 -134.5t51 -113t78.5 -78t110.5 -29 q76 0 139.5 20t109.5 58.5t72.5 93.5t29.5 125l24 552q5 105 17 177.5t31 116.5t45 63.5t58 19.5q33 0 53 -35.5t20 -86.5q0 -12 -9 -62t-20.5 -127.5t-20.5 -176t-9 -206.5q0 -55 1 -115t2.5 -121.5t3 -123.5t1.5 -120q0 -30 -11 -52t-28 -37t-38.5 -22.5t-43.5 -7.5 q-11 0 -20 8.5t-16.5 20t-13 23.5t-9.5 20q-36 -37 -77 -68t-90 -54t-106.5 -36t-126.5 -13q-90 0 -158 33.5t-117 90t-81 131.5t-51 158t-26.5 169t-7.5 165zM346 1665q0 23 16.5 43.5t40 36t50 24.5t46.5 9q7 0 20.5 -9t26.5 -26.5t23 -43t10 -59.5q0 -31 -7.5 -53.5 t-20.5 -37.5t-29 -22.5t-32 -7.5q-69 0 -106.5 32t-37.5 114zM853 1636q0 55 29 91.5t87 36.5q22 0 43.5 -12t38.5 -30.5t27 -41.5t10 -44q0 -22 -10 -43t-27 -37.5t-38.5 -26.5t-43.5 -10q-58 0 -87 28.5t-29 88.5z" />
<glyph unicode="&#xdd;" horiz-adv-x="1163" d="M58 1226q0 15 6.5 28.5t17 24t24.5 16.5t28 6q28 0 44 -8.5t33 -36.5q11 -19 40 -63.5t67 -102t81.5 -122.5t85 -124.5t76 -107t55.5 -70.5l12.5 17.5t14.5 21.5t13 20t9 14q37 64 80 142t87 154.5t86 143.5t77 110q17 21 31.5 38t29 29t30.5 18.5t36 6.5q29 0 48 -20.5 t19 -48.5q0 -5 -2.5 -11.5t-12.5 -25.5t-29.5 -53.5t-53.5 -94.5q-46 -78 -98.5 -169.5t-107.5 -190.5t-110 -202.5t-106 -205.5t-96 -200.5t-79 -186.5q-3 -8 -10 -22t-17 -27.5t-23 -23.5t-27 -10q-11 0 -31 8t-40 21.5t-34.5 30.5t-14.5 34q0 29 15.5 79.5t39.5 108 t52 115.5t53 101q17 28 30 52t13 38q0 17 -8.5 38t-16.5 34q-15 25 -51.5 75t-83 114t-96.5 135.5t-91.5 138.5t-68 123.5t-26.5 90.5zM386 1574q0 40 19.5 64t48.5 39.5t62 27t59 27.5q10 6 29.5 18.5t44.5 27.5t53.5 31.5t55.5 30t50 22t38 8.5q14 0 28.5 -5.5t26 -15.5 t18.5 -24t7 -31q0 -28 -15 -71q-3 -9 -28.5 -28t-63.5 -41.5t-85.5 -46t-95.5 -43t-92 -32t-76 -12.5q-24 0 -40 6t-26 14.5t-14 18t-4 15.5z" />
<glyph unicode="&#xde;" horiz-adv-x="1292" d="M197 1220q0 68 25 110.5t74 42.5q19 0 35 -8.5t27 -21.5t17.5 -29.5t6.5 -31.5v-198q67 16 137.5 32t154.5 16q263 0 395 -90t132 -265q0 -82 -15 -140.5t-34.5 -97.5t-39 -61.5t-28.5 -31.5q-22 -21 -59 -42.5t-85.5 -41.5t-105 -37.5t-116.5 -30.5t-121 -20.5 t-118 -7.5q-13 0 -29 0.5t-30 2.5q-17 1 -34 3q0 -19 2.5 -45t5 -55t5 -59t2.5 -57q0 -20 -10 -32t-24.5 -18t-31 -8t-29.5 -2q-30 0 -51 7t-33.5 23t-18 41.5t-5.5 62.5v13t0.5 20t0.5 32.5v51.5zM382 479q22 -2 40.5 -7t36 -11t35 -10.5t37.5 -4.5q28 0 64.5 3t77 9t81 15 t76.5 20t63.5 25t42.5 31q14 16 28 35.5t25 41.5t17.5 46.5t6.5 51.5q0 59 -17.5 103t-56.5 73t-100 43.5t-148 14.5q-37 0 -77 -1t-75.5 -6t-63.5 -15.5t-41 -28.5q-1 -3 -4 -14t-9 -24.5t-15.5 -27.5t-23.5 -22v-340z" />
<glyph unicode="&#xdf;" horiz-adv-x="1443" d="M193 800q0 74 6 155.5t29 160.5q31 83 75.5 144t105 101t139.5 59.5t179 19.5q75 0 140 -22t114 -60t77 -88.5t28 -107.5q0 -61 -25 -104t-64 -74t-87 -53t-93 -40q-28 -11 -52.5 -21.5t-42.5 -20.5t-28.5 -20.5t-10.5 -22.5q0 -15 20 -25.5t52.5 -19t73.5 -15.5t83 -14 q50 -9 103.5 -20.5t104.5 -28.5t96 -40.5t79.5 -57.5t54.5 -80t20 -107q0 -108 -44 -189t-114.5 -135t-159.5 -81.5t-178 -27.5q-83 0 -150 17.5t-114 46.5t-72.5 67.5t-25.5 80.5q0 25 6 49t17.5 42.5t28 30t38.5 11.5q14 0 30 -4t30 -15t23.5 -30t9.5 -49q0 -20 15.5 -34 t43 -23t65.5 -13t83 -4q40 0 89.5 16t93 47t73 76.5t29.5 104.5q0 37 -27 63t-69.5 44.5t-95 30t-103.5 20.5q-70 12 -142 26.5t-130.5 42t-95.5 72t-37 115.5q0 57 24 97.5t62.5 69.5t85.5 49.5t93 37.5q31 12 60 23.5t51.5 25t36 29t13.5 34.5q0 28 -15 48.5t-41.5 33.5 t-61 19t-73.5 6q-81 0 -138.5 -23t-96.5 -61.5t-62 -88.5t-35 -103.5t-15.5 -108t-3.5 -100.5l22 -596q1 -29 10.5 -55.5t9.5 -56.5q0 -35 -3.5 -57.5t-12.5 -36t-25.5 -18.5t-41.5 -5q-44 0 -69 9.5t-37.5 28.5t-15.5 47.5t-3 67.5q0 51 -0.5 85.5t-0.5 57t-0.5 35.5 t-0.5 20q0 38 -2 89t-2 111q-2 34 -3 72t-1.5 75.5t-1 74t-0.5 68.5z" />
<glyph unicode="&#xe0;" horiz-adv-x="1529" d="M133 426q0 78 22.5 162.5t64.5 157.5q40 73 98.5 137t130.5 111.5t155.5 75t174.5 27.5q69 0 133 -18.5t120 -50.5t102.5 -76t79.5 -94.5t51 -105.5t18 -110q0 -49 -5.5 -86.5t-13.5 -74.5q-6 -38 -12 -78.5t-6 -94.5q0 -47 7 -77.5t20 -49.5t31.5 -26.5t41.5 -7.5 q6 0 15 3.5t17 8t14 9t8 7.5q11 11 21.5 19.5t28.5 8.5q36 0 54.5 -17t18.5 -56q0 -24 -14.5 -50t-40.5 -47.5t-62 -35.5t-80 -14q-88 0 -150.5 49.5t-89.5 135.5q-37 -39 -81 -74.5t-97 -62t-117.5 -42t-142.5 -15.5q-59 0 -120.5 16t-119 45t-107.5 70.5t-87.5 91.5 t-59 108t-21.5 121zM320 428q0 -62 33.5 -114t86.5 -89t118.5 -57.5t128.5 -20.5q84 0 154.5 32t121 83t78.5 114.5t28 125.5q0 35 15.5 61.5t29.5 50.5q4 5 4.5 15.5t0 22t-1.5 21.5t-1 14q0 22 -15 48t-40.5 52t-58 50.5t-66.5 43.5t-68 30.5t-61 11.5q-76 0 -141.5 -21 t-119.5 -57t-96.5 -84.5t-71 -103.5t-43.5 -114t-15 -115zM484 1612q0 45 9 69t23.5 35t32.5 13t37 2q12 0 31 -14t40.5 -36t44 -49t42.5 -52t35.5 -45t22.5 -29q28 -34 51.5 -57.5l41 -41t27.5 -31t10 -28.5q0 -22 -1 -37.5t-7.5 -25.5t-20 -14.5t-38.5 -4.5q-28 0 -67 23 t-81 58t-84 77t-75 80.5t-53.5 68t-20.5 39.5z" />
<glyph unicode="&#xe1;" horiz-adv-x="1529" d="M133 426q0 78 22.5 162.5t64.5 157.5q40 73 98.5 137t130.5 111.5t155.5 75t174.5 27.5q69 0 133 -18.5t120 -50.5t102.5 -76t79.5 -94.5t51 -105.5t18 -110q0 -49 -5.5 -86.5t-13.5 -74.5q-6 -38 -12 -78.5t-6 -94.5q0 -47 7 -77.5t20 -49.5t31.5 -26.5t41.5 -7.5 q6 0 15 3.5t17 8t14 9t8 7.5q11 11 21.5 19.5t28.5 8.5q36 0 54.5 -17t18.5 -56q0 -24 -14.5 -50t-40.5 -47.5t-62 -35.5t-80 -14q-88 0 -150.5 49.5t-89.5 135.5q-37 -39 -81 -74.5t-97 -62t-117.5 -42t-142.5 -15.5q-59 0 -120.5 16t-119 45t-107.5 70.5t-87.5 91.5 t-59 108t-21.5 121zM320 428q0 -62 33.5 -114t86.5 -89t118.5 -57.5t128.5 -20.5q84 0 154.5 32t121 83t78.5 114.5t28 125.5q0 35 15.5 61.5t29.5 50.5q4 5 4.5 15.5t0 22t-1.5 21.5t-1 14q0 22 -15 48t-40.5 52t-58 50.5t-66.5 43.5t-68 30.5t-61 11.5q-76 0 -141.5 -21 t-119.5 -57t-96.5 -84.5t-71 -103.5t-43.5 -114t-15 -115zM585 1346q0 23 17 45t39.5 42t43.5 38t29 34q7 10 22.5 30t35.5 45t42.5 51.5t44.5 48.5t41 36t31 14q19 0 37 -2t32.5 -13t23 -35t8.5 -69q0 -11 -20.5 -40.5t-53 -68t-74 -80.5t-83 -77t-80 -58t-65.5 -23 t-41 4.5t-21 14.5t-8 25.5t-1 37.5z" />
<glyph unicode="&#xe2;" horiz-adv-x="1529" d="M133 426q0 78 22.5 162.5t64.5 157.5q40 73 98.5 137t130.5 111.5t155.5 75t174.5 27.5q69 0 133 -18.5t120 -50.5t102.5 -76t79.5 -94.5t51 -105.5t18 -110q0 -49 -5.5 -86.5t-13.5 -74.5q-6 -38 -12 -78.5t-6 -94.5q0 -47 7 -77.5t20 -49.5t31.5 -26.5t41.5 -7.5 q6 0 15 3.5t17 8t14 9t8 7.5q11 11 21.5 19.5t28.5 8.5q36 0 54.5 -17t18.5 -56q0 -24 -14.5 -50t-40.5 -47.5t-62 -35.5t-80 -14q-88 0 -150.5 49.5t-89.5 135.5q-37 -39 -81 -74.5t-97 -62t-117.5 -42t-142.5 -15.5q-59 0 -120.5 16t-119 45t-107.5 70.5t-87.5 91.5 t-59 108t-21.5 121zM296 1366.5q2 15.5 10 27t22 20t31 18.5q40 23 82.5 49.5t81.5 53t72.5 52t56.5 48.5q16 16 49.5 32t82.5 16q25 0 49.5 -9.5t45.5 -22t36.5 -26t24.5 -22.5q43 -45 68 -70.5t42.5 -40t33 -21.5t41.5 -14q18 -5 36 -16.5t31 -27.5t19 -35.5t0 -38.5 q-5 -17 -19 -35t-33 -31t-40.5 -19.5t-39.5 -1.5q-23 6 -42.5 17t-38 26t-37 33.5t-40.5 39.5q-10 10 -27.5 34t-38 49.5t-41 46t-37.5 22.5q-48 -32 -92 -70.5t-86 -74.5t-84.5 -65t-88.5 -41q-20 -5 -40 -4.5t-37 7.5t-30 20.5t-19 34.5q-6 24 -4 39.5zM320 428 q0 -62 33.5 -114t86.5 -89t118.5 -57.5t128.5 -20.5q84 0 154.5 32t121 83t78.5 114.5t28 125.5q0 35 15.5 61.5t29.5 50.5q4 5 4.5 15.5t0 22t-1.5 21.5t-1 14q0 22 -15 48t-40.5 52t-58 50.5t-66.5 43.5t-68 30.5t-61 11.5q-76 0 -141.5 -21t-119.5 -57t-96.5 -84.5 t-71 -103.5t-43.5 -114t-15 -115z" />
<glyph unicode="&#xe3;" horiz-adv-x="1529" d="M133 426q0 78 22.5 162.5t64.5 157.5q40 73 98.5 137t130.5 111.5t155.5 75t174.5 27.5q69 0 133 -18.5t120 -50.5t102.5 -76t79.5 -94.5t51 -105.5t18 -110q0 -49 -5.5 -86.5t-13.5 -74.5q-6 -38 -12 -78.5t-6 -94.5q0 -47 7 -77.5t20 -49.5t31.5 -26.5t41.5 -7.5 q6 0 15 3.5t17 8t14 9t8 7.5q11 11 21.5 19.5t28.5 8.5q36 0 54.5 -17t18.5 -56q0 -24 -14.5 -50t-40.5 -47.5t-62 -35.5t-80 -14q-88 0 -150.5 49.5t-89.5 135.5q-37 -39 -81 -74.5t-97 -62t-117.5 -42t-142.5 -15.5q-59 0 -120.5 16t-119 45t-107.5 70.5t-87.5 91.5 t-59 108t-21.5 121zM320 428q0 -62 33.5 -114t86.5 -89t118.5 -57.5t128.5 -20.5q84 0 154.5 32t121 83t78.5 114.5t28 125.5q0 35 15.5 61.5t29.5 50.5q4 5 4.5 15.5t0 22t-1.5 21.5t-1 14q0 22 -15 48t-40.5 52t-58 50.5t-66.5 43.5t-68 30.5t-61 11.5q-76 0 -141.5 -21 t-119.5 -57t-96.5 -84.5t-71 -103.5t-43.5 -114t-15 -115zM371 1359q0 66 31 108t77.5 65t100 31.5t98.5 8.5q40 0 68.5 -19.5t53.5 -43.5t51 -43.5t61 -19.5q25 0 47 11t44.5 24.5t46.5 24.5t54 11q25 0 38.5 -8.5t19.5 -21t7 -27t1 -26.5q0 -34 -32 -64.5t-76.5 -54 t-91 -37t-75.5 -13.5q-57 0 -95.5 20t-69 43.5t-57.5 43.5t-60 20q-34 0 -56.5 -15.5t-40.5 -34.5t-36.5 -34.5t-43.5 -15.5q-32 0 -48.5 16t-16.5 51z" />
<glyph unicode="&#xe4;" horiz-adv-x="1529" d="M133 426q0 78 22.5 162.5t64.5 157.5q40 73 98.5 137t130.5 111.5t155.5 75t174.5 27.5q69 0 133 -18.5t120 -50.5t102.5 -76t79.5 -94.5t51 -105.5t18 -110q0 -49 -5.5 -86.5t-13.5 -74.5q-6 -38 -12 -78.5t-6 -94.5q0 -47 7 -77.5t20 -49.5t31.5 -26.5t41.5 -7.5 q6 0 15 3.5t17 8t14 9t8 7.5q11 11 21.5 19.5t28.5 8.5q36 0 54.5 -17t18.5 -56q0 -24 -14.5 -50t-40.5 -47.5t-62 -35.5t-80 -14q-88 0 -150.5 49.5t-89.5 135.5q-37 -39 -81 -74.5t-97 -62t-117.5 -42t-142.5 -15.5q-59 0 -120.5 16t-119 45t-107.5 70.5t-87.5 91.5 t-59 108t-21.5 121zM320 428q0 -62 33.5 -114t86.5 -89t118.5 -57.5t128.5 -20.5q84 0 154.5 32t121 83t78.5 114.5t28 125.5q0 35 15.5 61.5t29.5 50.5q4 5 4.5 15.5t0 22t-1.5 21.5t-1 14q0 22 -15 48t-40.5 52t-58 50.5t-66.5 43.5t-68 30.5t-61 11.5q-76 0 -141.5 -21 t-119.5 -57t-96.5 -84.5t-71 -103.5t-43.5 -114t-15 -115zM400 1412q0 23 16.5 43.5t40 36t50 24.5t46.5 9q7 0 20.5 -9t26.5 -26.5t23 -43t10 -59.5q0 -31 -7.5 -53.5t-20.5 -37.5t-29 -22.5t-32 -7.5q-69 0 -106.5 32t-37.5 114zM907 1383q0 55 29 91.5t87 36.5 q22 0 43.5 -12t38.5 -30.5t27 -41.5t10 -44q0 -22 -10 -43t-27 -37.5t-38.5 -26.5t-43.5 -10q-58 0 -87 28.5t-29 88.5z" />
<glyph unicode="&#xe5;" horiz-adv-x="1529" d="M133 426q0 78 22.5 162.5t64.5 157.5q40 73 98.5 137t130.5 111.5t155.5 75t174.5 27.5q69 0 133 -18.5t120 -50.5t102.5 -76t79.5 -94.5t51 -105.5t18 -110q0 -49 -5.5 -86.5t-13.5 -74.5q-6 -38 -12 -78.5t-6 -94.5q0 -47 7 -77.5t20 -49.5t31.5 -26.5t41.5 -7.5 q6 0 15 3.5t17 8t14 9t8 7.5q11 11 21.5 19.5t28.5 8.5q36 0 54.5 -17t18.5 -56q0 -24 -14.5 -50t-40.5 -47.5t-62 -35.5t-80 -14q-88 0 -150.5 49.5t-89.5 135.5q-37 -39 -81 -74.5t-97 -62t-117.5 -42t-142.5 -15.5q-59 0 -120.5 16t-119 45t-107.5 70.5t-87.5 91.5 t-59 108t-21.5 121zM320 428q0 -62 33.5 -114t86.5 -89t118.5 -57.5t128.5 -20.5q84 0 154.5 32t121 83t78.5 114.5t28 125.5q0 35 15.5 61.5t29.5 50.5q4 5 4.5 15.5t0 22t-1.5 21.5t-1 14q0 22 -15 48t-40.5 52t-58 50.5t-66.5 43.5t-68 30.5t-61 11.5q-76 0 -141.5 -21 t-119.5 -57t-96.5 -84.5t-71 -103.5t-43.5 -114t-15 -115zM536 1433q0 18 6.5 47t19.5 61.5t31.5 65.5t42.5 60t52.5 43.5t62.5 16.5q22 0 38.5 -2t27.5 -9.5t17 -23t6 -42.5v-1q12 -5 28.5 -11.5t30.5 -8.5q22 -4 41.5 -10.5t33.5 -21.5t22 -41t8 -69q0 -47 -16.5 -98 t-47 -93.5t-73.5 -70t-97 -27.5q-118 0 -176 62.5t-58 172.5zM701 1445q0 -53 23.5 -76.5t67.5 -23.5q14 0 27 16t22.5 38t15.5 46t6 40q0 12 -12 22t-29.5 18t-36 12.5t-30.5 4.5q-9 0 -18.5 -10t-17.5 -25t-13 -32t-5 -30z" />
<glyph unicode="&#xe6;" horiz-adv-x="2267" d="M133 325q0 87 26.5 154.5t86 114t155 71t233.5 24.5q266 0 404 -100v8q0 80 -20 136.5t-53.5 94.5t-76.5 59.5t-89 32.5t-92 14t-85 3q-36 0 -69.5 -4.5t-61 -10.5t-49.5 -12t-35 -9q-9 -3 -15 -6l-16 -8q-19 -11 -44.5 -21.5t-51.5 -10.5q-57 0 -83.5 21.5t-26.5 73.5 q0 31 25.5 54.5t67.5 40t95 27t108.5 16.5t108 8.5t92.5 2.5q78 0 149 -16t131 -47t107.5 -76.5t79.5 -104.5q69 133 202.5 206.5t331.5 73.5q52 0 106.5 -11t105.5 -32t96.5 -52t79.5 -71.5t53.5 -90t19.5 -107.5q0 -45 -20 -65t-53 -28q-29 -8 -67.5 -14.5t-86.5 -21.5 l-669 -208q13 -61 42.5 -104t69 -72t86 -46t93.5 -25.5t91.5 -11t80.5 -2.5q57 0 113 13t103 29t82.5 29t51.5 13q53 0 77.5 -24t24.5 -75q0 -33 -33.5 -57t-86.5 -40t-117.5 -25.5t-126 -14t-112.5 -6t-77 -1.5q-65 0 -128 15.5t-119.5 44t-105.5 68.5t-86 90 q-29 -44 -77 -89.5t-118 -82.5t-164 -60.5t-215 -23.5q-105 0 -188 27t-141 74t-89 110.5t-31 137.5zM305 329q0 -35 18.5 -70t56.5 -62.5t96 -45t138 -17.5q84 0 153.5 20t123.5 51t91.5 68.5t55.5 71.5q-1 37 -19 65t-48 49t-70 34.5t-84 22t-89.5 12t-87.5 3.5 q-78 0 -140 -11.5t-105.5 -36t-66.5 -62.5t-23 -92zM1228 591q47 14 108 32t128.5 38.5t137 42.5t134 43.5t119 41t91.5 36.5q-11 38 -37 65.5t-65.5 45t-91.5 26t-114 8.5q-28 0 -66.5 -8t-81 -25.5t-86 -46.5t-79.5 -71t-62 -98.5t-35 -129.5z" />
<glyph unicode="&#xe7;" horiz-adv-x="1253" d="M133 420q0 138 40 259.5t118 213t193 144.5t264 53q28 0 64 -10t73 -29t73 -45.5t64 -59t45 -70.5t17 -79q0 -12 -5 -30t-13.5 -34t-20.5 -26t-26.5 -7.5t-31.5 21.5t-35 63q-14 32 -39.5 55t-58.5 37.5t-70.5 21.5t-74.5 7q-91 0 -163.5 -37t-123.5 -97.5t-78 -137.5 t-27 -156q0 -97 29 -158.5t82.5 -97t128 -48.5t165.5 -13q27 0 52.5 -1.5t50 -1t49.5 4.5t52 15q22 10 41 19q17 7 33 13t24 6q10 0 28 -6t35.5 -20t30.5 -36.5t13 -55.5q0 -17 -11.5 -34.5t-29 -32t-36.5 -23.5t-34 -9h-79q-67 0 -130.5 -5.5t-131.5 -6.5q-2 -30 -5.5 -64 t-8.5 -58q14 11 42.5 14t58.5 3q31 0 60.5 -13.5t52.5 -39.5t37 -64t14 -87q0 -59 -22 -102.5t-59.5 -72t-88 -43t-108.5 -14.5q-13 0 -35 3.5t-48.5 10t-53.5 16t-49 22t-36 27.5t-14 33q0 13 3.5 29t11.5 29t20.5 22t30.5 9q13 0 23.5 -5.5t20.5 -10.5q9 -5 25.5 -10 t33.5 -9t31.5 -6t19.5 -2q57 0 94 19.5t37 54.5q0 7 -1.5 18t-7 21t-17 17t-31.5 7q-15 0 -39.5 -0.5t-58.5 -14.5q-14 1 -33 6t-36 14t-29 22.5t-12 32.5q0 51 10 96.5t17 98.5q-84 11 -156.5 39.5t-125.5 79t-83.5 126t-30.5 180.5z" />
<glyph unicode="&#xe8;" horiz-adv-x="1336" d="M107 475q0 142 41 257t121 196t196.5 125t268.5 44q52 0 106.5 -11t105.5 -32t96.5 -52t79.5 -71.5t53.5 -90t19.5 -107.5q0 -45 -20 -65t-53 -28q-29 -8 -67.5 -14.5t-86.5 -21.5l-669 -208q13 -61 42.5 -104t69 -72t86 -46t93.5 -25.5t91.5 -11t80.5 -2.5q57 0 113 13 t103 29t82.5 29t51.5 13q53 0 77.5 -24t24.5 -75q0 -33 -33.5 -57t-86.5 -40t-117.5 -25.5t-126 -14t-112.5 -6t-77 -1.5q-69 0 -137.5 17.5t-130 49.5t-114 77.5t-91 101t-60 119.5t-21.5 134zM294 553q47 14 108 32t128.5 38.5t137 42.5t134 43.5t119 41t91.5 36.5 q-11 38 -37 65.5t-65.5 45t-91.5 26t-114 8.5q-28 0 -66.5 -8t-81 -25.5t-86 -46.5t-79.5 -71t-62 -98.5t-35 -129.5zM425 1612q0 45 9 69t23.5 35t32.5 13t37 2q12 0 31 -14t40.5 -36t44 -49t42.5 -52t35.5 -45t22.5 -29q28 -34 51.5 -57.5l41 -41t27.5 -31t10 -28.5 q0 -22 -1 -37.5t-7.5 -25.5t-20 -14.5t-38.5 -4.5q-28 0 -67 23t-81 58t-84 77t-75 80.5t-53.5 68t-20.5 39.5z" />
<glyph unicode="&#xe9;" horiz-adv-x="1336" d="M107 475q0 142 41 257t121 196t196.5 125t268.5 44q52 0 106.5 -11t105.5 -32t96.5 -52t79.5 -71.5t53.5 -90t19.5 -107.5q0 -45 -20 -65t-53 -28q-29 -8 -67.5 -14.5t-86.5 -21.5l-669 -208q13 -61 42.5 -104t69 -72t86 -46t93.5 -25.5t91.5 -11t80.5 -2.5q57 0 113 13 t103 29t82.5 29t51.5 13q53 0 77.5 -24t24.5 -75q0 -33 -33.5 -57t-86.5 -40t-117.5 -25.5t-126 -14t-112.5 -6t-77 -1.5q-69 0 -137.5 17.5t-130 49.5t-114 77.5t-91 101t-60 119.5t-21.5 134zM294 553q47 14 108 32t128.5 38.5t137 42.5t134 43.5t119 41t91.5 36.5 q-11 38 -37 65.5t-65.5 45t-91.5 26t-114 8.5q-28 0 -66.5 -8t-81 -25.5t-86 -46.5t-79.5 -71t-62 -98.5t-35 -129.5zM526 1346q0 23 17 45t39.5 42t43.5 38t29 34q7 10 22.5 30t35.5 45t42.5 51.5t44.5 48.5t41 36t31 14q19 0 37 -2t32.5 -13t23 -35t8.5 -69 q0 -11 -20.5 -40.5t-53 -68t-74 -80.5t-83 -77t-80 -58t-65.5 -23t-41 4.5t-21 14.5t-8 25.5t-1 37.5z" />
<glyph unicode="&#xea;" horiz-adv-x="1336" d="M107 475q0 142 41 257t121 196t196.5 125t268.5 44q52 0 106.5 -11t105.5 -32t96.5 -52t79.5 -71.5t53.5 -90t19.5 -107.5q0 -45 -20 -65t-53 -28q-29 -8 -67.5 -14.5t-86.5 -21.5l-669 -208q13 -61 42.5 -104t69 -72t86 -46t93.5 -25.5t91.5 -11t80.5 -2.5q57 0 113 13 t103 29t82.5 29t51.5 13q53 0 77.5 -24t24.5 -75q0 -33 -33.5 -57t-86.5 -40t-117.5 -25.5t-126 -14t-112.5 -6t-77 -1.5q-69 0 -137.5 17.5t-130 49.5t-114 77.5t-91 101t-60 119.5t-21.5 134zM237 1366.5q2 15.5 10 27t22 20t31 18.5q40 23 82.5 49.5t81.5 53t72.5 52 t56.5 48.5q16 16 49.5 32t82.5 16q25 0 49.5 -9.5t45.5 -22t36.5 -26t24.5 -22.5q43 -45 68 -70.5t42.5 -40t33 -21.5t41.5 -14q18 -5 36 -16.5t31 -27.5t19 -35.5t0 -38.5q-5 -17 -19 -35t-33 -31t-40.5 -19.5t-39.5 -1.5q-23 6 -42.5 17t-38 26t-37 33.5t-40.5 39.5 q-10 10 -27.5 34t-38 49.5t-41 46t-37.5 22.5q-48 -32 -92 -70.5t-86 -74.5t-84.5 -65t-88.5 -41q-20 -5 -40 -4.5t-37 7.5t-30 20.5t-19 34.5q-6 24 -4 39.5zM294 553q47 14 108 32t128.5 38.5t137 42.5t134 43.5t119 41t91.5 36.5q-11 38 -37 65.5t-65.5 45t-91.5 26 t-114 8.5q-28 0 -66.5 -8t-81 -25.5t-86 -46.5t-79.5 -71t-62 -98.5t-35 -129.5z" />
<glyph unicode="&#xeb;" horiz-adv-x="1336" d="M107 475q0 142 41 257t121 196t196.5 125t268.5 44q52 0 106.5 -11t105.5 -32t96.5 -52t79.5 -71.5t53.5 -90t19.5 -107.5q0 -45 -20 -65t-53 -28q-29 -8 -67.5 -14.5t-86.5 -21.5l-669 -208q13 -61 42.5 -104t69 -72t86 -46t93.5 -25.5t91.5 -11t80.5 -2.5q57 0 113 13 t103 29t82.5 29t51.5 13q53 0 77.5 -24t24.5 -75q0 -33 -33.5 -57t-86.5 -40t-117.5 -25.5t-126 -14t-112.5 -6t-77 -1.5q-69 0 -137.5 17.5t-130 49.5t-114 77.5t-91 101t-60 119.5t-21.5 134zM294 553q47 14 108 32t128.5 38.5t137 42.5t134 43.5t119 41t91.5 36.5 q-11 38 -37 65.5t-65.5 45t-91.5 26t-114 8.5q-28 0 -66.5 -8t-81 -25.5t-86 -46.5t-79.5 -71t-62 -98.5t-35 -129.5zM341 1412q0 23 16.5 43.5t40 36t50 24.5t46.5 9q7 0 20.5 -9t26.5 -26.5t23 -43t10 -59.5q0 -31 -7.5 -53.5t-20.5 -37.5t-29 -22.5t-32 -7.5 q-69 0 -106.5 32t-37.5 114zM848 1383q0 55 29 91.5t87 36.5q22 0 43.5 -12t38.5 -30.5t27 -41.5t10 -44q0 -22 -10 -43t-27 -37.5t-38.5 -26.5t-43.5 -10q-58 0 -87 28.5t-29 88.5z" />
<glyph unicode="&#xec;" horiz-adv-x="631" d="M32 1612q0 45 9 69t23.5 35t32.5 13t37 2q12 0 31 -14t40.5 -36t44 -49t42.5 -52t35.5 -45t22.5 -29q28 -34 51.5 -57.5l41 -41t27.5 -31t10 -28.5q0 -22 -1 -37.5t-7.5 -25.5t-20 -14.5t-38.5 -4.5q-28 0 -67 23t-81 58t-84 77t-75 80.5t-53.5 68t-20.5 39.5zM221 195 v358q0 112 9 231t34 227v-6q1 9 8 24.5t19.5 31t29.5 27t39 11.5q43 0 60.5 -28t17.5 -68q0 -54 -6 -113.5t-12 -122.5q-6 -68 -10.5 -134t-4.5 -118q0 -38 5 -89.5t14 -108.5q8 -62 16 -125t8 -117q0 -50 -24.5 -76.5t-55.5 -26.5q-61 0 -97 25t-36 71q0 4 -2 21.5t-4 37.5 q-3 17 -5.5 37.5t-2.5 30.5z" />
<glyph unicode="&#xed;" horiz-adv-x="631" d="M221 195v358q0 112 9 231t34 227v-6q1 9 8 24.5t19.5 31t29.5 27t39 11.5q43 0 60.5 -28t17.5 -68q0 -54 -6 -113.5t-12 -122.5q-6 -68 -10.5 -134t-4.5 -118q0 -38 5 -89.5t14 -108.5q8 -62 16 -125t8 -117q0 -50 -24.5 -76.5t-55.5 -26.5q-61 0 -97 25t-36 71 q0 4 -2 21.5t-4 37.5q-3 17 -5.5 37.5t-2.5 30.5zM249 1346q0 23 17 45t39.5 42t43.5 38t29 34q7 10 22.5 30t35.5 45t42.5 51.5t44.5 48.5t41 36t31 14q19 0 37 -2t32.5 -13t23 -35t8.5 -69q0 -11 -20.5 -40.5t-53 -68t-74 -80.5t-83 -77t-80 -58t-65.5 -23t-41 4.5 t-21 14.5t-8 25.5t-1 37.5z" />
<glyph unicode="&#xee;" horiz-adv-x="631" d="M-92 1366.5q2 15.5 10 27t22 20t31 18.5q40 23 82.5 49.5t81.5 53t72.5 52t56.5 48.5q16 16 49.5 32t82.5 16q25 0 49.5 -9.5t45.5 -22t36.5 -26t24.5 -22.5q43 -45 68 -70.5t42.5 -40t33 -21.5t41.5 -14q18 -5 36 -16.5t31 -27.5t19 -35.5t0 -38.5q-5 -17 -19 -35 t-33 -31t-40.5 -19.5t-39.5 -1.5q-23 6 -42.5 17t-38 26t-37 33.5t-40.5 39.5q-10 10 -27.5 34t-38 49.5t-41 46t-37.5 22.5q-48 -32 -92 -70.5t-86 -74.5t-84.5 -65t-88.5 -41q-20 -5 -40 -4.5t-37 7.5t-30 20.5t-19 34.5q-6 24 -4 39.5zM221 195v358q0 112 9 231t34 227 v-6q1 9 8 24.5t19.5 31t29.5 27t39 11.5q43 0 60.5 -28t17.5 -68q0 -54 -6 -113.5t-12 -122.5q-6 -68 -10.5 -134t-4.5 -118q0 -38 5 -89.5t14 -108.5q8 -62 16 -125t8 -117q0 -50 -24.5 -76.5t-55.5 -26.5q-61 0 -97 25t-36 71q0 4 -2 21.5t-4 37.5q-3 17 -5.5 37.5 t-2.5 30.5z" />
<glyph unicode="&#xef;" horiz-adv-x="631" d="M-6 1412q0 23 16.5 43.5t40 36t50 24.5t46.5 9q7 0 20.5 -9t26.5 -26.5t23 -43t10 -59.5q0 -31 -7.5 -53.5t-20.5 -37.5t-29 -22.5t-32 -7.5q-69 0 -106.5 32t-37.5 114zM221 195v358q0 112 9 231t34 227v-6q1 9 8 24.5t19.5 31t29.5 27t39 11.5q43 0 60.5 -28t17.5 -68 q0 -54 -6 -113.5t-12 -122.5q-6 -68 -10.5 -134t-4.5 -118q0 -38 5 -89.5t14 -108.5q8 -62 16 -125t8 -117q0 -50 -24.5 -76.5t-55.5 -26.5q-61 0 -97 25t-36 71q0 4 -2 21.5t-4 37.5q-3 17 -5.5 37.5t-2.5 30.5zM501 1383q0 55 29 91.5t87 36.5q22 0 43.5 -12t38.5 -30.5 t27 -41.5t10 -44q0 -22 -10 -43t-27 -37.5t-38.5 -26.5t-43.5 -10q-58 0 -87 28.5t-29 88.5z" />
<glyph unicode="&#xf0;" horiz-adv-x="1427" d="M134 492q0 112 36 203.5t101.5 156.5t156.5 101t201 36q63 0 129.5 -17t129.5 -50t118 -80.5t93 -108.5q-6 61 -27.5 127.5t-57 132t-85 126.5t-112.5 110q-62 -48 -98.5 -75.5t-57 -41.5t-28 -18t-11.5 -5q-22 -6 -41 -3.5t-33.5 10t-24 19.5t-12.5 25t-2.5 28t5 29.5 t13 26.5t21.5 19l150 60q-59 27 -124.5 42.5t-138.5 15.5q-48 0 -76 5.5t-43 14.5t-19.5 21t-4.5 26q0 46 30.5 68.5t107.5 22.5q123 0 226.5 -32t191.5 -87q40 38 65.5 70.5t54.5 55.5q26 21 42 33t25.5 18t14.5 8.5t9 3.5q9 3 27.5 6.5t37.5 2t35 -10.5t22 -31 q6 -24 1 -44t-15.5 -36t-24 -27.5t-23.5 -17.5q-14 -8 -60 -31.5t-118 -67.5q85 -72 148.5 -161t106 -184.5t64 -190.5t21.5 -179q0 -165 -41.5 -282.5t-118 -193t-183.5 -110.5t-239 -35q-70 0 -139.5 15t-132 44t-116.5 72t-93 98t-61.5 122t-22.5 145zM303 486 q0 -57 19.5 -102t53 -79.5t77.5 -59.5t92.5 -40.5t99 -23t96.5 -7.5q64 0 122.5 17.5t104 48.5t75 74t35.5 94q-5 67 -28 123.5t-58 101t-79.5 78t-93 56t-97.5 33.5t-94 11q-63 0 -111.5 -15t-84.5 -40.5t-60.5 -59t-40 -69.5t-22 -72.5t-6.5 -68.5z" />
<glyph unicode="&#xf1;" horiz-adv-x="1428" d="M174 845q0 35 3 78.5t12 81t26 63t46 25.5q31 0 48.5 -19.5t26 -50t10 -69t1.5 -77.5q35 51 89 92.5t115.5 70.5t124.5 45t117 16q98 0 172.5 -28.5t129 -77.5t91 -113.5t58.5 -136.5t31.5 -147.5t9.5 -145.5v-170q0 -65 -8.5 -125.5t-24.5 -107t-39.5 -75t-53.5 -28.5 q-22 0 -41 3t-33.5 14.5t-22.5 35.5t-8 66q0 39 8 81.5t17.5 85.5t17.5 86t8 85q0 47 -2.5 93.5t-10.5 91.5t-22.5 87.5t-39.5 81.5q-20 32 -41.5 62.5t-52 54.5t-73.5 38.5t-106 14.5q-43 0 -98 -17.5t-110.5 -50t-106 -78t-84.5 -101.5v-256q0 -13 1.5 -33.5t4.5 -45.5 t7.5 -53t9.5 -55q8 -42 19 -80t11 -71q0 -23 -2 -44t-10.5 -36.5t-26.5 -24.5t-50 -9q-21 0 -43 3.5t-40.5 15.5t-30.5 35.5t-12 63.5q0 15 1 41t1 68q0 68 -4 143.5t-8.5 157t-8 168t-3.5 177.5zM340 1359q0 66 31 108t77.5 65t100 31.5t98.5 8.5q40 0 68.5 -19.5 t53.5 -43.5t51 -43.5t61 -19.5q25 0 47 11t44.5 24.5t46.5 24.5t54 11q25 0 38.5 -8.5t19.5 -21t7 -27t1 -26.5q0 -34 -32 -64.5t-76.5 -54t-91 -37t-75.5 -13.5q-57 0 -95.5 20t-69 43.5t-57.5 43.5t-60 20q-34 0 -56.5 -15.5t-40.5 -34.5t-36.5 -34.5t-43.5 -15.5 q-32 0 -48.5 16t-16.5 51z" />
<glyph unicode="&#xf2;" horiz-adv-x="1381" d="M133 532q0 155 50 263t131.5 175.5t185 98t211.5 30.5q125 0 224.5 -41t168.5 -118t106 -186.5t37 -245.5q0 -79 -21 -149t-58 -129.5t-88.5 -106.5t-112.5 -80.5t-129 -51t-138 -17.5q-76 0 -147.5 23.5t-134.5 64.5t-115.5 95.5t-90 116.5t-58.5 128t-21 130zM306 557 q0 -74 32 -148.5t84.5 -134.5t120 -97.5t137.5 -37.5q76 0 147.5 26t126 76t87.5 122t33 164q0 90 -24.5 164.5t-67.5 128.5t-103 83.5t-130 29.5q-78 0 -157 -24.5t-142.5 -72t-103.5 -117.5t-40 -162zM433 1612q0 45 9 69t23.5 35t32.5 13t37 2q12 0 31 -14t40.5 -36 t44 -49t42.5 -52t35.5 -45t22.5 -29q28 -34 51.5 -57.5l41 -41t27.5 -31t10 -28.5q0 -22 -1 -37.5t-7.5 -25.5t-20 -14.5t-38.5 -4.5q-28 0 -67 23t-81 58t-84 77t-75 80.5t-53.5 68t-20.5 39.5z" />
<glyph unicode="&#xf3;" horiz-adv-x="1381" d="M133 532q0 155 50 263t131.5 175.5t185 98t211.5 30.5q125 0 224.5 -41t168.5 -118t106 -186.5t37 -245.5q0 -79 -21 -149t-58 -129.5t-88.5 -106.5t-112.5 -80.5t-129 -51t-138 -17.5q-76 0 -147.5 23.5t-134.5 64.5t-115.5 95.5t-90 116.5t-58.5 128t-21 130zM306 557 q0 -74 32 -148.5t84.5 -134.5t120 -97.5t137.5 -37.5q76 0 147.5 26t126 76t87.5 122t33 164q0 90 -24.5 164.5t-67.5 128.5t-103 83.5t-130 29.5q-78 0 -157 -24.5t-142.5 -72t-103.5 -117.5t-40 -162zM534 1346q0 23 17 45t39.5 42t43.5 38t29 34q7 10 22.5 30t35.5 45 t42.5 51.5t44.5 48.5t41 36t31 14q19 0 37 -2t32.5 -13t23 -35t8.5 -69q0 -11 -20.5 -40.5t-53 -68t-74 -80.5t-83 -77t-80 -58t-65.5 -23t-41 4.5t-21 14.5t-8 25.5t-1 37.5z" />
<glyph unicode="&#xf4;" horiz-adv-x="1381" d="M133 532q0 155 50 263t131.5 175.5t185 98t211.5 30.5q125 0 224.5 -41t168.5 -118t106 -186.5t37 -245.5q0 -79 -21 -149t-58 -129.5t-88.5 -106.5t-112.5 -80.5t-129 -51t-138 -17.5q-76 0 -147.5 23.5t-134.5 64.5t-115.5 95.5t-90 116.5t-58.5 128t-21 130z M245 1366.5q2 15.5 10 27t22 20t31 18.5q40 23 82.5 49.5t81.5 53t72.5 52t56.5 48.5q16 16 49.5 32t82.5 16q25 0 49.5 -9.5t45.5 -22t36.5 -26t24.5 -22.5q43 -45 68 -70.5t42.5 -40t33 -21.5t41.5 -14q18 -5 36 -16.5t31 -27.5t19 -35.5t0 -38.5q-5 -17 -19 -35t-33 -31 t-40.5 -19.5t-39.5 -1.5q-23 6 -42.5 17t-38 26t-37 33.5t-40.5 39.5q-10 10 -27.5 34t-38 49.5t-41 46t-37.5 22.5q-48 -32 -92 -70.5t-86 -74.5t-84.5 -65t-88.5 -41q-20 -5 -40 -4.5t-37 7.5t-30 20.5t-19 34.5q-6 24 -4 39.5zM306 557q0 -74 32 -148.5t84.5 -134.5 t120 -97.5t137.5 -37.5q76 0 147.5 26t126 76t87.5 122t33 164q0 90 -24.5 164.5t-67.5 128.5t-103 83.5t-130 29.5q-78 0 -157 -24.5t-142.5 -72t-103.5 -117.5t-40 -162z" />
<glyph unicode="&#xf5;" horiz-adv-x="1381" d="M133 532q0 155 50 263t131.5 175.5t185 98t211.5 30.5q125 0 224.5 -41t168.5 -118t106 -186.5t37 -245.5q0 -79 -21 -149t-58 -129.5t-88.5 -106.5t-112.5 -80.5t-129 -51t-138 -17.5q-76 0 -147.5 23.5t-134.5 64.5t-115.5 95.5t-90 116.5t-58.5 128t-21 130zM306 557 q0 -74 32 -148.5t84.5 -134.5t120 -97.5t137.5 -37.5q76 0 147.5 26t126 76t87.5 122t33 164q0 90 -24.5 164.5t-67.5 128.5t-103 83.5t-130 29.5q-78 0 -157 -24.5t-142.5 -72t-103.5 -117.5t-40 -162zM320 1359q0 66 31 108t77.5 65t100 31.5t98.5 8.5q40 0 68.5 -19.5 t53.5 -43.5t51 -43.5t61 -19.5q25 0 47 11t44.5 24.5t46.5 24.5t54 11q25 0 38.5 -8.5t19.5 -21t7 -27t1 -26.5q0 -34 -32 -64.5t-76.5 -54t-91 -37t-75.5 -13.5q-57 0 -95.5 20t-69 43.5t-57.5 43.5t-60 20q-34 0 -56.5 -15.5t-40.5 -34.5t-36.5 -34.5t-43.5 -15.5 q-32 0 -48.5 16t-16.5 51z" />
<glyph unicode="&#xf6;" horiz-adv-x="1381" d="M133 532q0 155 50 263t131.5 175.5t185 98t211.5 30.5q125 0 224.5 -41t168.5 -118t106 -186.5t37 -245.5q0 -79 -21 -149t-58 -129.5t-88.5 -106.5t-112.5 -80.5t-129 -51t-138 -17.5q-76 0 -147.5 23.5t-134.5 64.5t-115.5 95.5t-90 116.5t-58.5 128t-21 130zM306 557 q0 -74 32 -148.5t84.5 -134.5t120 -97.5t137.5 -37.5q76 0 147.5 26t126 76t87.5 122t33 164q0 90 -24.5 164.5t-67.5 128.5t-103 83.5t-130 29.5q-78 0 -157 -24.5t-142.5 -72t-103.5 -117.5t-40 -162zM349 1412q0 23 16.5 43.5t40 36t50 24.5t46.5 9q7 0 20.5 -9 t26.5 -26.5t23 -43t10 -59.5q0 -31 -7.5 -53.5t-20.5 -37.5t-29 -22.5t-32 -7.5q-69 0 -106.5 32t-37.5 114zM856 1383q0 55 29 91.5t87 36.5q22 0 43.5 -12t38.5 -30.5t27 -41.5t10 -44q0 -22 -10 -43t-27 -37.5t-38.5 -26.5t-43.5 -10q-58 0 -87 28.5t-29 88.5z" />
<glyph unicode="&#xf7;" horiz-adv-x="1166" d="M175 609q0 15 7.5 32t19 31.5t26 24.5t28.5 10q9 0 22.5 -2t38 -4.5t64.5 -4.5t103 -2q42 0 84.5 3.5t85.5 7.5t88 7.5t92 3.5q27 0 55 -1.5t50.5 -11.5t37 -31t14.5 -60q0 -26 -10 -42.5t-25 -26t-32.5 -13.5t-32.5 -4q-33 0 -67.5 6t-83.5 6q-42 0 -86.5 -4.5 t-92 -10.5t-96 -10.5t-97.5 -4.5q-7 0 -24 1t-38.5 4.5t-44.5 10.5t-42 18t-31.5 27.5t-12.5 39.5zM445 1042q0 24 17.5 45.5t43 38t54 26t50.5 9.5q7 0 21.5 -9.5t28 -28.5t24 -46t10.5 -63q0 -34 -8 -58.5t-21.5 -40t-31 -23t-36.5 -7.5q-36 0 -64.5 7.5t-48 26 t-29.5 48.5t-10 75zM447 226q0 29 8 54.5t23.5 44t38 29.5t52.5 11q25 0 48 -13t40.5 -33.5t28 -45t10.5 -47.5t-10.5 -45.5t-28 -40.5t-40.5 -29t-48 -11q-60 0 -91 31t-31 95z" />
<glyph unicode="&#xf8;" horiz-adv-x="1379" d="M134 532q0 103 22.5 185t62.5 145t94.5 108t118.5 73.5t134.5 41.5t142.5 13q86 0 152 -15.5t126 -52.5l18 19q9 12 25.5 26t37.5 26t45 20t49 8q41 0 61 -20t20 -56q0 -19 -13 -35t-32 -31.5t-40.5 -31.5t-38.5 -36q59 -73 93 -178t34 -233q0 -118 -46 -216.5 t-122.5 -169t-175.5 -109.5t-204 -39q-69 0 -133 19.5t-123 51.5q-13 -24 -25.5 -46.5t-28 -39.5t-34.5 -27.5t-44 -10.5q-54 0 -87 25t-33 60q0 5 1 12t8 20q14 25 26 41.5t23 30t21.5 26.5t21.5 32q-74 80 -115.5 175t-41.5 189zM306 557q0 -30 7 -62.5t19.5 -65.5 t29.5 -64t37 -58q60 74 117 147t114.5 146.5t117 149t124.5 153.5q-26 16 -61.5 22.5t-64.5 6.5q-80 0 -158.5 -23t-141 -70t-101.5 -117.5t-39 -164.5zM523 187q32 -20 74 -33.5t82 -13.5q78 0 149 26t125 75.5t86 121.5t32 164q0 82 -19.5 150t-59.5 117 q-49 -62 -110.5 -141t-125 -161.5t-124.5 -162t-109 -142.5z" />
<glyph unicode="&#xf9;" horiz-adv-x="1336" d="M153 577q0 31 2 70t6 81t9.5 85.5t12.5 84t15.5 75t17.5 59.5q11 27 35 44.5t64 17.5q36 0 57.5 -26t21.5 -62q0 -6 -9.5 -37.5t-21 -84t-21 -124t-9.5 -156.5q0 -33 3.5 -81t13.5 -100.5t28 -105t48.5 -94.5t74.5 -68t105 -26q52 0 96 16t80.5 41.5t66 57.5t53 64t41 60 t30.5 47q6 58 9 102.5t4.5 81.5t2 69.5t0.5 67t-0.5 74t-0.5 90.5v119q0 21 9.5 35t23.5 23t31 12.5t31 3.5q12 0 26 -4t26 -12t20 -21.5t8 -31.5l-2 -949q0 -51 -20 -68.5t-61 -17.5q-37 0 -57.5 5.5t-30 20.5t-11.5 41t-2 67v68q-26 -47 -58.5 -89.5t-75.5 -74.5t-99 -51 t-128 -19q-104 0 -178.5 31.5t-126 83t-83 117.5t-49 135t-23 135t-5.5 118zM388 1612q0 45 9 69t23.5 35t32.5 13t37 2q12 0 31 -14t40.5 -36t44 -49t42.5 -52t35.5 -45t22.5 -29q28 -34 51.5 -57.5l41 -41t27.5 -31t10 -28.5q0 -22 -1 -37.5t-7.5 -25.5t-20 -14.5 t-38.5 -4.5q-28 0 -67 23t-81 58t-84 77t-75 80.5t-53.5 68t-20.5 39.5z" />
<glyph unicode="&#xfa;" horiz-adv-x="1336" d="M153 577q0 31 2 70t6 81t9.5 85.5t12.5 84t15.5 75t17.5 59.5q11 27 35 44.5t64 17.5q36 0 57.5 -26t21.5 -62q0 -6 -9.5 -37.5t-21 -84t-21 -124t-9.5 -156.5q0 -33 3.5 -81t13.5 -100.5t28 -105t48.5 -94.5t74.5 -68t105 -26q52 0 96 16t80.5 41.5t66 57.5t53 64t41 60 t30.5 47q6 58 9 102.5t4.5 81.5t2 69.5t0.5 67t-0.5 74t-0.5 90.5v119q0 21 9.5 35t23.5 23t31 12.5t31 3.5q12 0 26 -4t26 -12t20 -21.5t8 -31.5l-2 -949q0 -51 -20 -68.5t-61 -17.5q-37 0 -57.5 5.5t-30 20.5t-11.5 41t-2 67v68q-26 -47 -58.5 -89.5t-75.5 -74.5t-99 -51 t-128 -19q-104 0 -178.5 31.5t-126 83t-83 117.5t-49 135t-23 135t-5.5 118zM489 1346q0 23 17 45t39.5 42t43.5 38t29 34q7 10 22.5 30t35.5 45t42.5 51.5t44.5 48.5t41 36t31 14q19 0 37 -2t32.5 -13t23 -35t8.5 -69q0 -11 -20.5 -40.5t-53 -68t-74 -80.5t-83 -77t-80 -58 t-65.5 -23t-41 4.5t-21 14.5t-8 25.5t-1 37.5z" />
<glyph unicode="&#xfb;" horiz-adv-x="1336" d="M153 577q0 31 2 70t6 81t9.5 85.5t12.5 84t15.5 75t17.5 59.5q11 27 35 44.5t64 17.5q36 0 57.5 -26t21.5 -62q0 -6 -9.5 -37.5t-21 -84t-21 -124t-9.5 -156.5q0 -33 3.5 -81t13.5 -100.5t28 -105t48.5 -94.5t74.5 -68t105 -26q52 0 96 16t80.5 41.5t66 57.5t53 64t41 60 t30.5 47q6 58 9 102.5t4.5 81.5t2 69.5t0.5 67t-0.5 74t-0.5 90.5v119q0 21 9.5 35t23.5 23t31 12.5t31 3.5q12 0 26 -4t26 -12t20 -21.5t8 -31.5l-2 -949q0 -51 -20 -68.5t-61 -17.5q-37 0 -57.5 5.5t-30 20.5t-11.5 41t-2 67v68q-26 -47 -58.5 -89.5t-75.5 -74.5t-99 -51 t-128 -19q-104 0 -178.5 31.5t-126 83t-83 117.5t-49 135t-23 135t-5.5 118zM200 1366.5q2 15.5 10 27t22 20t31 18.5q40 23 82.5 49.5t81.5 53t72.5 52t56.5 48.5q16 16 49.5 32t82.5 16q25 0 49.5 -9.5t45.5 -22t36.5 -26t24.5 -22.5q43 -45 68 -70.5t42.5 -40t33 -21.5 t41.5 -14q18 -5 36 -16.5t31 -27.5t19 -35.5t0 -38.5q-5 -17 -19 -35t-33 -31t-40.5 -19.5t-39.5 -1.5q-23 6 -42.5 17t-38 26t-37 33.5t-40.5 39.5q-10 10 -27.5 34t-38 49.5t-41 46t-37.5 22.5q-48 -32 -92 -70.5t-86 -74.5t-84.5 -65t-88.5 -41q-20 -5 -40 -4.5t-37 7.5 t-30 20.5t-19 34.5q-6 24 -4 39.5z" />
<glyph unicode="&#xfc;" horiz-adv-x="1336" d="M153 577q0 31 2 70t6 81t9.5 85.5t12.5 84t15.5 75t17.5 59.5q11 27 35 44.5t64 17.5q36 0 57.5 -26t21.5 -62q0 -6 -9.5 -37.5t-21 -84t-21 -124t-9.5 -156.5q0 -33 3.5 -81t13.5 -100.5t28 -105t48.5 -94.5t74.5 -68t105 -26q52 0 96 16t80.5 41.5t66 57.5t53 64t41 60 t30.5 47q6 58 9 102.5t4.5 81.5t2 69.5t0.5 67t-0.5 74t-0.5 90.5v119q0 21 9.5 35t23.5 23t31 12.5t31 3.5q12 0 26 -4t26 -12t20 -21.5t8 -31.5l-2 -949q0 -51 -20 -68.5t-61 -17.5q-37 0 -57.5 5.5t-30 20.5t-11.5 41t-2 67v68q-26 -47 -58.5 -89.5t-75.5 -74.5t-99 -51 t-128 -19q-104 0 -178.5 31.5t-126 83t-83 117.5t-49 135t-23 135t-5.5 118zM304 1412q0 23 16.5 43.5t40 36t50 24.5t46.5 9q7 0 20.5 -9t26.5 -26.5t23 -43t10 -59.5q0 -31 -7.5 -53.5t-20.5 -37.5t-29 -22.5t-32 -7.5q-69 0 -106.5 32t-37.5 114zM811 1383q0 55 29 91.5 t87 36.5q22 0 43.5 -12t38.5 -30.5t27 -41.5t10 -44q0 -22 -10 -43t-27 -37.5t-38.5 -26.5t-43.5 -10q-58 0 -87 28.5t-29 88.5z" />
<glyph unicode="&#xfd;" horiz-adv-x="1212" d="M85 945q0 24 9 44t24.5 34.5t35.5 22.5t42 8q21 0 33 -7t20.5 -19t14 -27.5t13.5 -33.5q23 -54 50.5 -116t57 -125.5t59 -126t56 -117.5t49 -100.5t37.5 -74.5l399 691q31 51 79 80t99 29q13 0 24 -6.5t19 -17t12 -22.5t4 -22q0 -16 -4.5 -28t-17.5 -31t-36 -49.5 t-59.5 -84t-89 -135t-123.5 -201.5l-250 -457q-33 -57 -67 -125.5t-61.5 -134t-45 -121.5t-17.5 -87q0 -19 -6.5 -39.5t-18.5 -37.5t-28.5 -28t-36.5 -11q-17 0 -40 10t-44 25.5t-36 34.5t-15 37q0 25 10.5 64t28.5 85t42.5 95t52.5 94l119 206q-26 46 -59 109.5t-68.5 134 t-71 143t-67 138t-57 118.5t-40.5 85q-17 35 -24 59t-7 38zM415 1346q0 23 17 45t39.5 42t43.5 38t29 34q7 10 22.5 30t35.5 45t42.5 51.5t44.5 48.5t41 36t31 14q19 0 37 -2t32.5 -13t23 -35t8.5 -69q0 -11 -20.5 -40.5t-53 -68t-74 -80.5t-83 -77t-80 -58t-65.5 -23 t-41 4.5t-21 14.5t-8 25.5t-1 37.5z" />
<glyph unicode="&#xfe;" horiz-adv-x="1385" d="M194 1348q0 31 2.5 55t11.5 41t26 26t47 9q14 0 31 -5t31.5 -14.5t24.5 -23.5t10 -32v-99q0 -50 -1 -90.5t-2.5 -78t-2 -75.5t-0.5 -83q64 39 137 67t160 28q277 0 414.5 -129t137.5 -400q0 -106 -31 -188.5t-83.5 -144.5t-120.5 -105.5t-142.5 -70t-150.5 -38.5 t-143 -12q-35 0 -76.5 7t-79.5 15q0 -42 3 -95t7 -105t7 -95.5t3 -66.5q0 -24 -7 -43t-18.5 -31.5t-26 -19t-29.5 -6.5q-55 0 -85 25.5t-34 91.5q-2 32 -4 91.5t-3.5 134.5t-3.5 160t-4 167q-2 85 -2.5 168t-0.5 155q0 157 1.5 311t1.5 306q0 72 -2.5 120.5t-2.5 72.5z M372 634q0 -70 2 -154.5t2 -166.5q0 -32 2 -54.5t5 -37.5t5.5 -24t3.5 -15q12 -7 31 -11.5t42 -7.5t48.5 -4t50.5 -1q96 0 179.5 28.5t146 83t98.5 132.5t36 177q0 85 -30 145.5t-80.5 99t-116.5 56.5t-139 18q-36 0 -77 -10t-80 -27.5t-71 -41.5t-50 -52q-5 -16 -6.5 -51 t-1.5 -82z" />
<glyph unicode="&#xff;" horiz-adv-x="1212" d="M85 945q0 24 9 44t24.5 34.5t35.5 22.5t42 8q21 0 33 -7t20.5 -19t14 -27.5t13.5 -33.5q23 -54 50.5 -116t57 -125.5t59 -126t56 -117.5t49 -100.5t37.5 -74.5l399 691q31 51 79 80t99 29q13 0 24 -6.5t19 -17t12 -22.5t4 -22q0 -16 -4.5 -28t-17.5 -31t-36 -49.5 t-59.5 -84t-89 -135t-123.5 -201.5l-250 -457q-33 -57 -67 -125.5t-61.5 -134t-45 -121.5t-17.5 -87q0 -19 -6.5 -39.5t-18.5 -37.5t-28.5 -28t-36.5 -11q-17 0 -40 10t-44 25.5t-36 34.5t-15 37q0 25 10.5 64t28.5 85t42.5 95t52.5 94l119 206q-26 46 -59 109.5t-68.5 134 t-71 143t-67 138t-57 118.5t-40.5 85q-17 35 -24 59t-7 38zM230 1412q0 23 16.5 43.5t40 36t50 24.5t46.5 9q7 0 20.5 -9t26.5 -26.5t23 -43t10 -59.5q0 -31 -7.5 -53.5t-20.5 -37.5t-29 -22.5t-32 -7.5q-69 0 -106.5 32t-37.5 114zM737 1383q0 55 29 91.5t87 36.5 q22 0 43.5 -12t38.5 -30.5t27 -41.5t10 -44q0 -22 -10 -43t-27 -37.5t-38.5 -26.5t-43.5 -10q-58 0 -87 28.5t-29 88.5z" />
<glyph unicode="&#x152;" horiz-adv-x="2459" d="M128 681q0 129 28.5 232t79 181.5t119.5 134.5t149.5 92t170 52.5t180.5 16.5q145 0 260 -42.5t202 -125.5q2 25 8 49t18 42.5t30.5 30t46.5 11.5q21 0 40.5 -6t39.5 -15h-1q18 -10 40 -18t51 -8q60 0 136.5 1.5t157.5 4t161 4t149 1.5q44 0 73.5 -3.5t47 -14t25 -30.5 t7.5 -54q0 -13 -7.5 -26.5t-20 -25t-28 -19t-31.5 -7.5l-762 6q-6 -30 -6 -71.5t2 -87t4 -91.5t1 -86q40 0 90 -0.5t102 -1.5t102 -1.5t91 -0.5q30 0 67 6.5t87 6.5q39 0 67 -23.5t28 -76.5q0 -7 -4.5 -21.5t-14 -29.5t-25 -26t-36.5 -11h-540q1 -25 2 -69t2 -99t1.5 -118 t1.5 -126q48 0 78.5 -1t48 -1.5t25.5 -1.5t12 -1q49 -2 106.5 -7.5t112.5 -12t101 -11.5t73 -5q16 0 41 0.5t51 1t49 1t37 0.5q27 0 44.5 -10.5t27 -27t13.5 -35.5t4 -36q0 -27 -10.5 -46t-29 -30t-43 -16t-52.5 -5q-23 0 -38 4t-33.5 10t-46 13t-76 13t-124 10t-189.5 4 q-60 0 -124 -5.5t-132 -5.5q-24 0 -45 9t-36.5 24.5t-24 37t-8.5 47.5v40q-49 -46 -107 -83t-121.5 -63.5t-131 -40.5t-134.5 -14q-96 0 -185.5 30t-168.5 82t-144.5 121t-112.5 148t-73 162.5t-26 163.5zM318 711q0 -67 19.5 -134.5t53.5 -130t81.5 -117t104 -95 t119.5 -63.5t129 -23q69 0 145 17t146.5 52t128 87t89.5 123v213q-9 16 -15 35t-6 38q0 15 6.5 36t14.5 32v158q-29 63 -78.5 113.5t-110.5 85t-129.5 53t-135.5 18.5q-108 0 -209 -30.5t-179.5 -92.5t-126 -155.5t-47.5 -219.5z" />
<glyph unicode="&#x153;" horiz-adv-x="2294" d="M133 532q0 155 50 263t131.5 175.5t185 98t211.5 30.5q158 0 273 -64.5t182 -182.5q77 117 208.5 181t317.5 64q52 0 106.5 -11t105.5 -32t96.5 -52t79.5 -71.5t53.5 -90t19.5 -107.5q0 -45 -20 -65t-53 -28q-29 -8 -67.5 -14.5t-86.5 -21.5l-678 -211q14 -60 44 -102.5 t70.5 -71t88 -45.5t95 -25.5t93 -11t81.5 -2.5q57 0 113 13t103 29t82.5 29t51.5 13q53 0 77.5 -24t24.5 -75q0 -33 -33.5 -57t-86.5 -40t-117.5 -25.5t-126 -14t-112.5 -6t-77 -1.5q-68 0 -134.5 16.5t-127 47t-112.5 74t-91 96.5q-38 -55 -88.5 -99t-109 -74.5t-124 -46.5 t-132.5 -16q-76 0 -147.5 23.5t-134.5 64.5t-115.5 95.5t-90 116.5t-58.5 128t-21 130zM306 557q0 -74 32 -148.5t84.5 -134.5t120 -97.5t137.5 -37.5q76 0 149 26t129.5 76t91 122t34.5 164q0 90 -26 164.5t-71 127.5t-106.5 82.5t-131.5 29.5q-78 0 -157 -24t-142.5 -71 t-103.5 -117t-40 -162zM1241 550q46 13 107.5 31.5t130 39t139.5 43t137 44.5t121.5 42t93.5 37q-11 38 -37 65.5t-65.5 45t-91.5 26t-114 8.5q-29 0 -68.5 -8t-83.5 -26t-88.5 -47t-81.5 -71.5t-64 -99.5t-35 -130z" />
<glyph unicode="&#x178;" horiz-adv-x="1163" d="M58 1226q0 15 6.5 28.5t17 24t24.5 16.5t28 6q28 0 44 -8.5t33 -36.5q11 -19 40 -63.5t67 -102t81.5 -122.5t85 -124.5t76 -107t55.5 -70.5l12.5 17.5t14.5 21.5t13 20t9 14q37 64 80 142t87 154.5t86 143.5t77 110q17 21 31.5 38t29 29t30.5 18.5t36 6.5q29 0 48 -20.5 t19 -48.5q0 -5 -2.5 -11.5t-12.5 -25.5t-29.5 -53.5t-53.5 -94.5q-46 -78 -98.5 -169.5t-107.5 -190.5t-110 -202.5t-106 -205.5t-96 -200.5t-79 -186.5q-3 -8 -10 -22t-17 -27.5t-23 -23.5t-27 -10q-11 0 -31 8t-40 21.5t-34.5 30.5t-14.5 34q0 29 15.5 79.5t39.5 108 t52 115.5t53 101q17 28 30 52t13 38q0 17 -8.5 38t-16.5 34q-15 25 -51.5 75t-83 114t-96.5 135.5t-91.5 138.5t-68 123.5t-26.5 90.5zM238 1665q0 23 16.5 43.5t40 36t50 24.5t46.5 9q7 0 20.5 -9t26.5 -26.5t23 -43t10 -59.5q0 -31 -7.5 -53.5t-20.5 -37.5t-29 -22.5 t-32 -7.5q-69 0 -106.5 32t-37.5 114zM745 1636q0 55 29 91.5t87 36.5q22 0 43.5 -12t38.5 -30.5t27 -41.5t10 -44q0 -22 -10 -43t-27 -37.5t-38.5 -26.5t-43.5 -10q-58 0 -87 28.5t-29 88.5z" />
<glyph unicode="&#x2c6;" horiz-adv-x="1297" d="M188 1287.5q2 15.5 10 27t22 20t31 18.5q40 23 82.5 49.5t81.5 53t72.5 52t56.5 48.5q16 16 49.5 32t82.5 16q25 0 49.5 -9.5t45.5 -22t36.5 -26t24.5 -22.5q43 -45 68 -70.5t42.5 -40t33 -21.5t41.5 -14q18 -5 36 -16.5t31 -27.5t19 -35.5t0 -38.5q-5 -17 -19 -35 t-33 -31t-40.5 -19.5t-39.5 -1.5q-23 6 -42.5 17t-38 26t-37 33.5t-40.5 39.5q-10 10 -27.5 34t-38 49.5t-41 46t-37.5 22.5q-48 -32 -92 -70.5t-86 -74.5t-84.5 -65t-88.5 -41q-20 -5 -40 -4.5t-37 7.5t-30 20.5t-19 34.5q-6 24 -4 39.5z" />
<glyph unicode="&#x2dc;" horiz-adv-x="1242" d="M208 1280q0 66 31 108t77.5 65t100 31.5t98.5 8.5q40 0 68.5 -19.5t53.5 -43.5t51 -43.5t61 -19.5q25 0 47 11t44.5 24.5t46.5 24.5t54 11q25 0 38.5 -8.5t19.5 -21t7 -27t1 -26.5q0 -34 -32 -64.5t-76.5 -54t-91 -37t-75.5 -13.5q-57 0 -95.5 20t-69 43.5t-57.5 43.5 t-60 20q-34 0 -56.5 -15.5t-40.5 -34.5t-36.5 -34.5t-43.5 -15.5q-32 0 -48.5 16t-16.5 51z" />
<glyph unicode="&#x2000;" horiz-adv-x="935" />
<glyph unicode="&#x2001;" horiz-adv-x="1870" />
<glyph unicode="&#x2002;" horiz-adv-x="935" />
<glyph unicode="&#x2003;" horiz-adv-x="1870" />
<glyph unicode="&#x2004;" horiz-adv-x="623" />
<glyph unicode="&#x2005;" horiz-adv-x="467" />
<glyph unicode="&#x2006;" horiz-adv-x="311" />
<glyph unicode="&#x2007;" horiz-adv-x="311" />
<glyph unicode="&#x2008;" horiz-adv-x="233" />
<glyph unicode="&#x2009;" horiz-adv-x="374" />
<glyph unicode="&#x200a;" horiz-adv-x="103" />
<glyph unicode="&#x2010;" horiz-adv-x="1081" d="M179 606q0 27 7 44.5t23.5 28t44.5 14.5t70 4q49 0 100.5 2t102.5 4q27 1 59.5 2.5t66.5 2l68 1t64 0.5q41 0 65.5 -25t24.5 -68q0 -24 -13 -44.5t-31 -35.5t-37 -23.5t-31 -8.5q-30 0 -63 5t-66 10.5t-66.5 10.5t-65.5 5q-54 0 -108 -5.5t-113 -5.5q-19 0 -37.5 2.5 t-32.5 11t-23 24.5t-9 44z" />
<glyph unicode="&#x2011;" horiz-adv-x="1081" d="M179 606q0 27 7 44.5t23.5 28t44.5 14.5t70 4q49 0 100.5 2t102.5 4q27 1 59.5 2.5t66.5 2l68 1t64 0.5q41 0 65.5 -25t24.5 -68q0 -24 -13 -44.5t-31 -35.5t-37 -23.5t-31 -8.5q-30 0 -63 5t-66 10.5t-66.5 10.5t-65.5 5q-54 0 -108 -5.5t-113 -5.5q-19 0 -37.5 2.5 t-32.5 11t-23 24.5t-9 44z" />
<glyph unicode="&#x2012;" horiz-adv-x="1081" d="M179 606q0 27 7 44.5t23.5 28t44.5 14.5t70 4q49 0 100.5 2t102.5 4q27 1 59.5 2.5t66.5 2l68 1t64 0.5q41 0 65.5 -25t24.5 -68q0 -24 -13 -44.5t-31 -35.5t-37 -23.5t-31 -8.5q-30 0 -63 5t-66 10.5t-66.5 10.5t-65.5 5q-54 0 -108 -5.5t-113 -5.5q-19 0 -37.5 2.5 t-32.5 11t-23 24.5t-9 44z" />
<glyph unicode="&#x2013;" horiz-adv-x="1399" d="M179 616q0 19 7 37t18 32t26 22.5t31 8.5q27 0 85 -1t134.5 -2.5t164 -3.5t172 -4t160 -3t128.5 -1q18 0 34 -3.5t28 -13t19 -27.5t7 -47q0 -35 -8.5 -53.5t-23 -27t-32.5 -10t-37 -1.5l-817 4q-24 0 -42 9.5t-30 23.5t-18 30.5t-6 30.5z" />
<glyph unicode="&#x2014;" horiz-adv-x="2024" d="M179 616q0 19 7 37t18 32t26 22.5t31 8.5q28 0 98 -0.5t166 -1.5t211.5 -2.5t236 -3t239 -2.5t220.5 -2.5t179.5 -2t117.5 -0.5q18 0 34.5 -3.5t28.5 -13t19 -27.5t7 -47q0 -35 -9 -53.5t-23 -27t-33 -10t-38 -1.5l-1441 4q-23 0 -41 9.5t-30 23.5t-18 30.5t-6 30.5z" />
<glyph unicode="&#x2018;" horiz-adv-x="632" d="M111 1447q0 29 9.5 45t25 23.5t35.5 8.5t41 1q16 0 34 -18.5t34.5 -44t31 -53t24.5 -45.5q5 -9 11 -21.5t15 -25.5t21.5 -26.5t31.5 -25.5q12 -8 26 -19t25 -24.5t18.5 -28t7.5 -29.5q0 -20 -3 -40.5t-12.5 -37t-27 -27t-45.5 -10.5q-29 0 -63 22.5t-67.5 58.5t-65 80.5 t-55 89t-38 83.5t-14.5 64z" />
<glyph unicode="&#x2019;" horiz-adv-x="632" d="M133 1158q0 20 3.5 34t13.5 35q3 8 18.5 28t36.5 45.5t43.5 53t40.5 48.5q19 23 36 56t37 63t45.5 51t63.5 21q23 0 35.5 -11t18 -27.5t6 -36.5t0.5 -39t-15.5 -55.5t-41.5 -80t-59.5 -88.5t-70 -82.5t-73 -61t-67.5 -23.5q-34 0 -52.5 17.5t-18.5 52.5z" />
<glyph unicode="&#x201a;" horiz-adv-x="632" d="M133 -77q0 20 3.5 34t13.5 35q3 8 18.5 28t36.5 45.5t43.5 53t40.5 48.5q19 23 36 56t37 63t45.5 51t63.5 21q23 0 35.5 -11t18 -27.5t6 -36.5t0.5 -39t-15.5 -55.5t-41.5 -80t-59.5 -88.5t-70 -82.5t-73 -61t-67.5 -23.5q-34 0 -52.5 17.5t-18.5 52.5z" />
<glyph unicode="&#x201c;" horiz-adv-x="1029" d="M165 1304q0 13 8 29.5t20.5 30t27 23t26.5 9.5q1 0 2.5 -0.5l6 -2t13.5 -5t25 -10.5q12 -5 39.5 -32.5t62 -67.5t71.5 -87t67.5 -92t50.5 -82.5t20 -57.5q0 -27 -4 -45t-14.5 -28.5t-28.5 -14.5t-45 -4q-29 0 -60 21.5t-61.5 54.5t-59 73t-53 77.5t-43.5 67.5t-30 44 q-16 17 -28.5 39t-12.5 60zM560 1425q0 19 8 37t22.5 32t34.5 22.5t44 8.5q14 0 42 -27.5t61.5 -70t68.5 -92.5t63.5 -95.5t47 -79.5t18.5 -44q0 -30 -6 -49t-18.5 -29.5t-31 -14t-42.5 -3.5q-17 0 -46.5 26t-64 65.5t-70.5 88t-65 93.5t-47.5 81t-18.5 51z" />
<glyph unicode="&#x201d;" horiz-adv-x="957" d="M91 1112q0 13 17 50t43.5 85t59.5 100t65 95.5t59 71.5t43 28q29 0 52 -12.5t39 -32.5t24.5 -45.5t8.5 -51.5q0 -3 -12.5 -22.5t-31.5 -47.5t-41.5 -60.5t-42.5 -60.5t-33.5 -48.5t-15.5 -23.5q-10 -20 -15.5 -41.5t-15 -39t-27.5 -28.5t-53 -11q-17 0 -38.5 7.5 t-40.5 20.5t-31.5 30t-12.5 37zM458 931q0 22 16.5 61.5t42.5 87.5t57.5 98.5t61 93t53 72t34.5 35.5q15 9 24 13.5t13.5 6.5t6 3t2.5 1q19 -1 36 -10t30 -23.5t20.5 -33t7.5 -37.5q0 -27 -8.5 -45.5t-18.5 -34.5q-16 -25 -34 -62.5t-40 -79.5t-46.5 -84t-53.5 -76t-62 -55 t-70 -21q-34 0 -53 20.5t-19 69.5z" />
<glyph unicode="&#x201e;" horiz-adv-x="957" d="M91 64q0 13 17 50t43.5 85t59.5 100t65 95.5t59 71.5t43 28q29 0 52 -12.5t39 -32.5t24.5 -45.5t8.5 -51.5q0 -3 -12.5 -22.5t-31.5 -47.5t-41.5 -60.5t-42.5 -60.5t-33.5 -48.5t-15.5 -23.5q-10 -20 -15.5 -41.5t-15 -39t-27.5 -28.5t-53 -11q-17 0 -38.5 7.5 t-40.5 20.5t-31.5 30t-12.5 37zM458 -117q0 21 16.5 61t42.5 88t57.5 98.5t61 93t53 72t34.5 35.5q15 9 24 13.5t13.5 6.5t6 3t2.5 1q19 -1 36 -10t30 -23.5t20.5 -33t7.5 -37.5q0 -27 -8.5 -45.5t-18.5 -34.5q-16 -25 -34 -62.5t-40 -79.5t-46.5 -84t-53.5 -76t-62 -55 t-70 -21q-34 0 -53 20.5t-19 69.5z" />
<glyph unicode="&#x2022;" horiz-adv-x="809" d="M170 532q0 18 6.5 49.5t19 67.5t31 72.5t42 66t52.5 48.5t63 19q42 0 66 -29t25 -69q30 -10 59.5 -15.5t52.5 -20t37.5 -45.5t14.5 -92q0 -47 -16.5 -98t-47.5 -93t-74 -69.5t-97 -27.5q-117 0 -175.5 63.5t-58.5 172.5z" />
<glyph unicode="&#x2026;" horiz-adv-x="1740" d="M150 90q0 22 13 44.5t33.5 40.5t45 29t47.5 11q24 0 49 -5t45.5 -17.5t33.5 -35t13 -56.5q0 -120 -125 -120q-21 0 -47.5 4.5t-50.5 17t-40.5 33.5t-16.5 54zM730 90q0 22 13 44.5t33.5 40.5t45 29t47.5 11q24 0 49 -5t45.5 -17.5t33.5 -35t13 -56.5q0 -120 -125 -120 q-21 0 -47.5 4.5t-50.5 17t-40.5 33.5t-16.5 54zM1310 90q0 22 13 44.5t33.5 40.5t45 29t47.5 11q24 0 49 -5t45.5 -17.5t33.5 -35t13 -56.5q0 -120 -125 -120q-21 0 -47.5 4.5t-50.5 17t-40.5 33.5t-16.5 54z" />
<glyph unicode="&#x202f;" horiz-adv-x="374" />
<glyph unicode="&#x2039;" horiz-adv-x="918" d="M90 506q0 44 27 89t66 87t81.5 79t73.5 64q37 36 80 78.5t81.5 79t66 61.5t34.5 25q12 0 25.5 -3.5t25 -11.5t19 -21.5t7.5 -32.5q0 -35 -26.5 -78t-67 -89t-87 -92t-87 -87t-67 -74t-26.5 -52q0 -11 29.5 -35.5t73.5 -57.5t95.5 -73t95.5 -82t73.5 -83t29.5 -76 q0 -31 -10 -49t-25.5 -27t-33.5 -11.5t-33 -2.5q-19 0 -45 16t-55.5 41.5t-61.5 57t-63 61t-60.5 54.5t-54.5 38q-30 17 -62.5 38.5t-58.5 47t-43 56t-17 65.5z" />
<glyph unicode="&#x203a;" horiz-adv-x="918" d="M205 979q0 31 10 49t25.5 27t33.5 11.5t33 2.5q19 0 45 -16t55.5 -41.5t61.5 -57t63 -61t60.5 -54.5t54.5 -38q30 -17 62.5 -38.5t58.5 -47t43 -56t17 -65.5q0 -44 -27 -89t-66 -87t-81.5 -79t-73.5 -64q-37 -36 -80 -78.5t-81.5 -79t-66 -61.5t-34.5 -25 q-12 0 -25.5 3.5t-25 11.5t-19 21t-7.5 33q0 35 26.5 78t67 89t87 92t87 87t67 73.5t26.5 52.5q0 11 -29.5 35.5t-73.5 57.5t-95.5 73t-95.5 82t-73.5 82.5t-29.5 76.5z" />
<glyph unicode="&#x205f;" horiz-adv-x="467" />
<glyph unicode="&#x20ac;" horiz-adv-x="1581" d="M142 512q0 15 4.5 31.5t15 30.5t28 22t42.5 7l53 -3q2 23 5 46.5t8 47.5q-11 0 -18 -0.5t-6 -0.5q-15 0 -29.5 8.5t-26.5 22t-19 29t-7 30.5q0 27 15.5 46t38 31.5t49 18.5t48.5 5q8 27 16.5 53.5t17.5 51.5q22 63 65 129.5t104 121.5t139.5 90.5t172.5 35.5 q82 0 165.5 -19t150.5 -58t109 -98.5t42 -140.5q0 -24 -5.5 -46.5t-17.5 -40.5t-30.5 -28.5t-43.5 -10.5q-33 0 -51.5 13.5t-26.5 34.5t-9.5 45.5t-1.5 47.5q0 21 -14.5 37.5t-38 29.5t-53 22.5t-60 16t-59 9.5t-48.5 3q-65 0 -118 -25.5t-94.5 -68.5t-73 -99t-53.5 -117 l56 -3q40 -2 83 -5t84.5 -5.5t78.5 -4t64 -1.5q32 0 64 5.5t69 5.5q15 0 32.5 -3.5t32.5 -13t25 -26t10 -41.5q0 -39 -14.5 -59t-37 -28.5t-50 -9t-54.5 -0.5q-80 0 -156 9q-38 4 -74.5 7.5t-70.5 3.5h-188q-6 -33 -10.5 -63t-6.5 -57l193 -4q16 0 45 2t60.5 5t60.5 5.5 t46 2.5q34 0 58.5 -4.5t40 -16t22.5 -32t7 -52.5q0 -23 -9 -39t-30 -26.5t-56 -15.5t-88 -5q-59 0 -132.5 2.5t-164.5 6.5l-39 1q20 -59 60.5 -104.5t93.5 -77t114.5 -47.5t124.5 -16q38 0 90 2.5t106 8.5t105 16.5t88 25.5q15 8 25.5 19t22 21.5t25 17.5t34.5 7 q42 0 66.5 -28t24.5 -68q0 -27 -7 -44t-23 -30q-37 -31 -100.5 -53t-138.5 -36.5t-152.5 -21t-141.5 -6.5q-68 0 -136 7.5t-131.5 26.5t-120 50t-101 78t-75 111.5t-42.5 149.5h-57q-22 0 -39 9t-28 22t-17 28.5t-6 29.5z" />
<glyph unicode="&#x2122;" horiz-adv-x="1998" d="M148 1210q0 33 9.5 55t26 34.5t37.5 18t44 5.5q80 0 167 3.5t175 3.5q10 0 33.5 5.5t71.5 5.5q20 0 36.5 -9t28 -23t18 -31t6.5 -34q0 -13 -8.5 -28.5t-21.5 -29t-28.5 -22.5t-30.5 -9q-21 0 -40 7.5t-31 18.5q-8 0 -23 1l-30 2t-27.5 2.5t-13.5 2.5q0 -40 -0.5 -68 t-1.5 -49.5t-1.5 -39.5t-0.5 -38q0 -24 1 -53.5t3 -68.5t5.5 -89t9.5 -114q1 -3 3.5 -13t5 -23.5t4.5 -26.5t2 -22q0 -20 -2.5 -34t-11 -23t-24 -13t-41.5 -4q-36 0 -56 9.5t-29.5 26.5t-12 39.5t-2.5 48.5q0 17 1.5 27.5t1.5 26.5q0 52 -2 99.5t-4 94t-4 94t-2 100.5v86 q-26 -4 -43.5 -6.5t-30.5 -4t-23.5 -2t-20.5 -0.5q-69 0 -96 15t-27 46zM877 636q0 7 0.5 19.5t3.5 36.5q0 113 1.5 192t3 135t3 93t1.5 66q0 22 6.5 49.5t18.5 51.5t29.5 40.5t39.5 16.5q18 0 31.5 -8t22.5 -20.5t14.5 -27.5t7.5 -30q8 -20 24 -56.5t36 -80t41.5 -89.5 t40 -85t32 -66.5t18.5 -33.5q38 37 80 85t84.5 100.5t83.5 105t77 99.5q8 25 16 48t19 40t26 27t36 10q41 0 65 -25.5t24 -66.5q0 -168 -4 -340.5t-4 -353.5q0 -18 -9.5 -30.5t-21.5 -20t-23.5 -11t-15.5 -3.5q-2 0 -18.5 3.5t-36 13.5t-35.5 27.5t-16 45.5q0 15 4 28.5 t9 27t9 27t4 28.5v332q-40 -49 -80 -102t-81.5 -103.5t-83.5 -94.5t-87 -74q-13 -8 -23 -9t-26 -1q-15 0 -36.5 23.5t-45.5 61t-49.5 83t-48.5 90.5q0 -57 -1 -112t-1 -115q4 -8 8 -24t4 -37q0 -47 -16 -79t-56 -32q-38 0 -59.5 10t-31.5 27t-12 39.5t-2 48.5z" />
<glyph unicode="&#x25fc;" horiz-adv-x="1110" d="M0 0v1110h1110v-1110h-1110z" />
<glyph unicode="&#xfb01;" horiz-adv-x="1429" d="M74 943q0 19 7 37t19.5 31t29.5 20.5t36 7.5l204 -4q4 25 9 53t9.5 53.5t8.5 45t6 26.5q43 166 155 252t279 86q18 0 47 -4.5t61 -14t64 -24.5t58 -36q16 -13 26.5 -13t21.5 12q54 57 94 57q50 0 74.5 -29.5t24.5 -70.5q0 -17 -10.5 -35t-27.5 -35t-37 -32t-40 -26.5 t-36.5 -18t-25.5 -6.5q-39 0 -69.5 16.5t-62 36t-68.5 36t-91 16.5q-84 0 -135.5 -29t-81 -77t-42 -111t-17.5 -131q71 -1 122.5 -1.5t90.5 -0.5h84.5h70t63 1t64.5 4q20 5 42.5 7t44.5 2q35 0 60 -24.5t25 -79.5q0 -46 -5.5 -101t-11.5 -112t-11.5 -111t-5.5 -99t6.5 -102 t15 -117t15 -117.5t6.5 -104.5q0 -49 -25 -75.5t-56 -26.5q-60 0 -90 21.5t-41 75.5q-2 8 -4.5 31t-5 76t-4 143.5t-1.5 233.5q0 75 8 152t22 151q-29 2 -60 4.5t-75.5 5t-108 4t-157.5 1.5q-17 0 -38.5 -0.5t-47.5 -0.5q-2 -53 -3 -114.5t-2.5 -127t-2 -133.5t-0.5 -134 q0 -19 1.5 -40t5.5 -51t11 -73t17 -107q2 -8 2 -15v-14q0 -41 -20 -57t-51 -16q-41 0 -67.5 5.5t-42 18.5t-22 35t-6.5 55q0 9 -3 31.5t-7 53.5t-7 66.5t-3 70.5q0 28 1 84t2 128.5t2 157t1 170.5l-196 -11q-20 -1 -37 6.5t-29 20.5t-19 29t-7 32z" />
<glyph unicode="&#xfb02;" horiz-adv-x="1558" d="M74 943q0 19 7 36.5t19.5 31t29.5 21t36 7.5l194 -4q2 0 5 -0.5t5 -0.5q4 25 9 53.5t9.5 54t8.5 45t6 26.5q45 165 166 251.5t298 86.5q19 0 50.5 -5.5t67.5 -15.5t73 -24.5t66 -32.5q15 5 30 5q19 0 34.5 -8t26.5 -20.5t17 -27.5t6 -29v-734q0 -54 -0.5 -106t1 -104.5 t5.5 -105.5t14 -108q3 -18 11 -32t18 -23.5t21.5 -14t20.5 -4.5q15 0 25 6.5t15 12.5q6 7 12.5 13.5t14.5 12t19.5 8.5t27.5 3q18 0 31 -7.5t22 -19.5t13.5 -27t4.5 -30q0 -31 -18.5 -56.5t-46.5 -43.5t-61 -28t-62 -10q-104 -2 -167.5 44.5t-83.5 137.5q-16 69 -22 149.5 t-6 163.5t2.5 164.5t4.5 153.5l8 508q-20 8 -38 19t-39 21t-48.5 17t-66.5 7q-93 0 -150 -29t-90 -77.5t-47 -111.5t-19 -132q25 0 42.5 0.5t32.5 0.5q29 0 59 1t59 3h2q18 2 37.5 3t39.5 1q13 0 27.5 -3.5t26.5 -13t19.5 -26t7.5 -42.5q0 -36 -12.5 -55.5t-30.5 -29.5 t-38.5 -12t-35.5 -2q-16 0 -36.5 1.5t-49 4t-67 4.5t-91.5 3q-2 -75 -3 -157.5t-1 -176.5q0 -64 1 -116.5t4.5 -103t9.5 -103.5t16 -119q8 -57 -12.5 -79.5t-56.5 -22.5q-41 0 -65 5t-38.5 18t-21.5 35t-13 56q-2 9 -5 31.5t-6.5 53.5t-6 66.5t-2.5 70.5q0 28 1 84t2 128.5 t2 156.5t1 170q-54 -3 -104 -6.5t-92 -3.5q-20 0 -37 8t-29 20.5t-19 28t-7 31.5z" />
</font>
</defs>
</svg>
